<?xml version="1.0" standalone="no"?>
<!DOCTYPE svg PUBLIC "-//W3C//DTD SVG 1.1//EN" "http://www.w3.org/Graphics/SVG/1.1/DTD/svg11.dtd" >
<svg xmlns="http://www.w3.org/2000/svg">
<metadata>
This is a custom SVG webfont generated by Font Squirrel.
Copyright   : Converted by Andrey V Panov from TeX fonts
</metadata>
<defs>
<font id="webfontu5JLJoUH" horiz-adv-x="1024" >
<font-face units-per-em="2048" ascent="1638" descent="-410" />
<missing-glyph horiz-adv-x="681" />
<glyph unicode="i&#x300;" horiz-adv-x="489" d="M-68 1311h160l273 -267h-125zM168 0v911h154v-911h-154z" />
<glyph unicode="&#x456;&#x301;" horiz-adv-x="489" d="M66 1044l272 267h160l-305 -267h-127zM166 0v911h153v-911h-153z" />
<glyph unicode="i&#x302;" horiz-adv-x="489" d="M-74 1042l256 289h125l256 -289h-125l-194 203l-193 -203h-125zM168 0v911h154v-911h-154z" />
<glyph unicode="i&#x308;" horiz-adv-x="602" d="M408 1167v183h184v-183h-184zM223 0v911h154v-911h-154zM10 1169v183h185v-183h-185z" />
<glyph unicode="A&#x328;" horiz-adv-x="1366" d="M55 0l535 1421h182l533 -1421h-58q-184 -111 -184 -219q0 -37 28.5 -59.5t75.5 -22.5q29 0 138 29l32 -121q-111 -51 -198.5 -51t-143 50t-55.5 132q0 76 49 145.5t125 116.5l-156 418h-593l-156 -418h-154zM408 532h507q-244 682 -253 746q-14 -66 -71 -230l-117 -330 q-60 -166 -66 -186z" />
<glyph unicode="i&#x304;" horiz-adv-x="780" d="M166 1128v132h737v-132h-737zM457 0v911h153v-911h-153z" />
<glyph unicode="i&#x306;" horiz-adv-x="757" d="M166 1333h125q4 -47 30.5 -79.5t65.5 -47t69.5 -19.5t57.5 -5q39 0 80 8t88 45t51 98h127q-6 -135 -109.5 -212t-238.5 -77t-238.5 78t-107.5 211zM436 0v911h154v-911h-154z" />
<glyph unicode="IJ" horiz-adv-x="1478" d="M596 41l16 94l13 60q113 -113 264 -113q102 0 170.5 54t68.5 186v1099h179v-1104q0 -137 -57.5 -222t-133.5 -112.5t-170 -27.5q-170 0 -350 86zM135 0v1421h184v-1421h-184z" />
<glyph unicode="ij" horiz-adv-x="1114" d="M471 -350l31 125q74 -63 151 -64q57 0 99.5 32t50.5 73q2 8 2 51v1044h156v-1015q0 -168 -79 -242t-173 -74q-121 0 -238 70zM180 0v911h154v-911h-154zM776 1208v183h185v-183h-185zM166 1208v183h184v-183h-184z" />
<glyph unicode="j&#x302;" horiz-adv-x="546" d="M-16 1047l256 288h125l256 -288h-125l-195 202l-192 -202h-125zM-125 -350l41 125q76 -63 154 -64q61 0 102 31t49 74q4 16 4 51v1044h154v-1013q0 -168 -80 -243t-178 -75q-125 0 -246 70z" />
<glyph unicode="i&#x30c;" horiz-adv-x="489" d="M-88 1239h127l205 -139l202 139h72l55 -2q-252 -180 -266 -186q-10 -4 -26 -4h-74q-8 0 -17.5 3t-24.5 10t-27.5 15t-38.5 27l-47 35l-63 46zM166 0v911h153v-911h-153z" />
<glyph unicode="j&#x30c;" horiz-adv-x="546" d="M-29 1239h127l205 -139l203 139h72l55 -2q-252 -180 -266 -186q-10 -4 -27 -4h-74q-8 0 -17 3t-24.5 10t-28 15t-37.5 27l-47 35l-64 46zM-125 -350l41 125q76 -63 154 -64q61 0 102 31t49 74q4 16 4 51v1044h154v-1013q0 -168 -80 -243t-178 -75q-125 0 -246 70z" />
<glyph unicode="&#x20;&#x1dc4;" d="M250 999v162h315l127 262h160l-205 -424h-397z" />
<glyph unicode="&#x20;&#x1dc5;" d="M170 1423h160l127 -262h317v-160l-2 -2h-397z" />
<glyph unicode="&#x20;&#x1dc8;" d="M55 1423h160l170 -233l170 233h160l250 -342h-160l-170 232l-170 -232h-160z" />
<glyph unicode="&#x20;&#x1dc9;" d="M55 1081l250 342h160l170 -233l170 233h160l-250 -342h-160l-170 232l-170 -232h-160z" />
<glyph unicode="&#x20;&#x30d;" d="M430 1468h162l-19 -387h-124z" />
<glyph unicode="&#x20;&#x30e;" d="M268 1468h162l-18 -387h-125zM588 1468h162l-19 -387h-125z" />
<glyph unicode="&#x20;&#x30f;" d="M170 1423h160l131 -342h-127zM510 1423h162l129 -342h-125z" />
<glyph unicode="&#x20;&#x311;" d="M164 1044q4 133 108.5 210t237.5 77q135 0 238.5 -76.5t109.5 -210.5h-127q-4 61 -51 97.5t-88 44.5t-80 8q-41 0 -82 -8t-88 -44t-53 -98h-125z" />
<glyph unicode="&#x20;&#x321;" horiz-adv-x="454" d="M-141 -332l47 127q45 -113 131 -112q51 0 86 45t41 116l2 60v119h125v-129q0 -176 -79 -257t-173 -81q-114 -1 -180 112z" />
<glyph unicode="&#x20;&#x322;" horiz-adv-x="454" d="M164 23h125v-199q0 -57 26.5 -92t50 -42t48.5 -7q31 0 54.5 10t37.5 26.5t23.5 32t15.5 27.5l4 10l47 -127q-23 -33 -39 -50.5t-55 -36.5t-90 -19q-102 0 -175 71.5t-73 190.5v205z" />
<glyph unicode="&#x20;&#x32a;" d="M164 -227h694v-377h-127v250h-442v-250h-125v377z" />
<glyph unicode="&#x20;&#x32b;" d="M98 -358q0 76 39 161l109 -63q-25 -57 -25 -107q0 -55 27.5 -91t73.5 -36q51 0 85.5 38t38.5 89q8 74 66 74q23 0 38 -12t18 -25.5t6.5 -35t5.5 -27.5q12 -41 44.5 -71t75.5 -30q45 0 73 36t28 91q0 45 -27 107l111 63q37 -90 37 -161q0 -111 -61.5 -187t-160.5 -76 q-111 0 -188 91l-10 -11q-10 -10 -20.5 -18l-28 -20.5t-36 -20.5t-44 -14.5t-51.5 -6.5q-104 0 -164 78.5t-60 184.5z" />
<glyph unicode="&#x20;&#x335;" horiz-adv-x="569" d="M10 442v115h545v-115h-545z" />
<glyph unicode="&#x20;&#x337;" horiz-adv-x="489" d="M-29 301l492 418l82 -96l-492 -418z" />
<glyph unicode="&#x20;&#x33a;" d="M164 -227h125v-252h442v252h127v-377h-694v377z" />
<glyph unicode="&#x20;&#x33b;" d="M164 -227h694v-439h-694v439zM289 -428v-113h442v187h-440z" />
<glyph unicode="&#x20;&#x33c;" d="M82 -479q68 272 244 272q104 0 186 -90q78 90 186 90q35 0 66 -11t53.5 -29.5t42 -43t32.5 -48t22.5 -49.5t14.5 -44l9 -33l4 -14l-111 -62q0 2 -5 26l-8 37q-3 13 -10 38.5t-16.5 41t-22.5 33t-30.5 25.5t-38.5 8q-43 0 -72.5 -25.5t-38.5 -54t-15.5 -60.5t-6.5 -34 q-18 -35 -55 -35q-16 0 -27.5 5.5t-17.5 12.5t-11 18t-6 18.5t-4 17.5v10q-4 51 -39.5 89t-82.5 38q-31 0 -53.5 -16.5t-38 -50t-21.5 -57t-16 -66.5q-2 -12 -5 -19z" />
<glyph unicode="&#x20;&#x34d;" horiz-adv-x="1138" d="M12 -307q193 68 242 256h82q-25 -115 -119 -215h701q-90 96 -119 215h82q16 -63 45.5 -111.5t68.5 -77t65.5 -42t61.5 -25.5q-37 -14 -62.5 -27.5t-64.5 -42.5t-68.5 -76t-45.5 -110h-82q29 115 119 215h-701q94 -104 119 -215h-82q-16 63 -46 110t-69 76t-64.5 42.5 t-62.5 27.5z" />
<glyph unicode="&#x20;&#x484;" horiz-adv-x="1136" d="M72 1044q39 141 169 225.5t298 84.5q59 0 114.5 -10.5t96.5 -29t73.5 -39t58 -45t40.5 -41.5l27 -34q13 -16 14 -18q57 -72 174 -74v-107q-61 2 -112.5 16.5t-87.5 42t-57.5 46t-43.5 49.5l-25 33q-88 100 -268 104h-4q-61 0 -120 -14t-122.5 -62.5t-87.5 -126.5h-137z " />
<glyph unicode="&#x20;&#x485;" d="M285 1337q6 90 63.5 132t124.5 42q76 0 140.5 -52t64.5 -134q0 -72 -47 -148.5t-105 -132.5l-73 74v2q111 111 110 176q0 35 -26.5 60.5t-63.5 25.5q-35 0 -70.5 -26.5t-42.5 -93.5z" />
<glyph unicode="&#x20;&#x486;" d="M229 1325q0 82 64.5 134t140.5 52q51 0 89 -18t56.5 -43t28.5 -50.5t13 -43.5l2 -19l-76 -75q-6 61 -40 90.5t-73 29.5q-35 0 -63.5 -24.5t-28.5 -61.5q0 -63 113 -176v-2l-76 -74q-150 160 -150 281z" />
<glyph unicode="&#x20;&#x488;" horiz-adv-x="2275" d="M51 512q0 41 31 71.5t72 30.5t71.5 -29.5t30.5 -72.5q0 -41 -30.5 -71.5t-71.5 -30.5t-72 29.5t-31 72.5zM340 -215q0 41 29.5 71.5t70.5 30.5t72 -29.5t31 -72.5q0 -41 -30 -71.5t-71 -30.5t-71.5 29.5t-30.5 72.5zM340 1239q0 41 29.5 71.5t70.5 30.5t72 -29.5 t31 -72.5q0 -41 -30 -71.5t-71 -30.5t-71.5 29.5t-30.5 72.5zM1034 -516q0 41 30 70.5t71 29.5t71.5 -28.5t30.5 -71.5t-29.5 -72.5t-70.5 -29.5t-72 29.5t-31 72.5zM1034 1540q0 43 30 72.5t71 29.5t71.5 -29.5t30.5 -72.5q0 -41 -29.5 -70.5t-70.5 -29.5t-72 28.5 t-31 71.5zM1729 -215q0 41 30.5 71.5t71.5 30.5q43 0 71.5 -30.5t28.5 -71.5q0 -39 -29.5 -70.5t-70.5 -31.5q-43 0 -72.5 29.5t-29.5 72.5zM1729 1239q0 41 29.5 71.5t72.5 30.5q45 0 72.5 -30.5t27.5 -71.5t-28.5 -71.5t-71.5 -30.5q-41 0 -71.5 29.5t-30.5 72.5z M2015 512q0 43 31 72.5t72 29.5q43 0 72.5 -30.5t29.5 -71.5q0 -43 -30.5 -72.5t-71.5 -29.5q-43 0 -73 30.5t-30 71.5z" />
<glyph unicode="&#x20;&#x489;" horiz-adv-x="2275" d="M-49 592q0 8 3 11t7 5l4 2h6q10 -4 17 -14l21 -35q15 -25 44 -55q2 59 35 83.5t68 24.5q43 0 71.5 -30.5t28.5 -71.5q0 -43 -30.5 -72.5t-69.5 -29.5q-63 0 -134 70.5t-71 111.5zM238 -293q8 14 20 14q4 0 35 -7t65 -7h19q-35 39 -35 78q0 41 28.5 71.5t71.5 30.5 q41 0 72 -29.5t31 -72.5q0 -63 -59.5 -92t-129.5 -29q-111 0 -118 37v6zM326 1319q0 43 11 84t25 43h9q14 -6 14 -16q0 -2 -9 -41t-9 -80q39 33 75 32q41 0 72 -29.5t31 -72.5q0 -41 -30 -71.5t-73 -30.5q-63 0 -89.5 55t-26.5 127zM1036 -516q0 43 31 71.5t72 28.5 q43 0 71.5 -30.5t28.5 -69.5q0 -61 -67.5 -135t-106.5 -74l-16 8l-5 12q4 10 15.5 17.5t36 25t49.5 44.5q-59 2 -84 33.5t-25 68.5zM1036 1540q0 63 69 136t105 73l17 -8l2 -6v-6q-4 -10 -15 -18l-34 -23q-25 -16 -52 -46q61 -2 86 -33.5t25 -68.5q0 -45 -30.5 -72.5 t-71.5 -27.5q-43 0 -72 29.5t-29 70.5zM1731 -215q0 41 29.5 70.5t72.5 29.5q61 0 89 -55t28 -125q0 -39 -10.5 -82t-26.5 -45h-8q-14 6 -15 19q0 4 8.5 41.5t10.5 76.5q-39 -33 -78 -32q-41 0 -70.5 29.5t-29.5 72.5zM1731 1239q0 63 59 92t127 29q113 0 119 -41 q-2 -14 -17 -14q-4 0 -43 7t-78 7q35 -41 35 -80q0 -41 -28.5 -70.5t-71.5 -29.5t-72.5 28.5t-29.5 71.5zM2017 512q0 41 29 71.5t74 30.5q61 0 132.5 -71.5t71.5 -110.5q0 -6 -3 -10t-7 -6l-4 -2h-6q-10 2 -17.5 14l-23.5 38t-41 50q-4 -57 -37 -81.5t-65 -24.5 q-45 0 -74 30.5t-29 71.5z" />
<glyph unicode="&#x20;&#x309;" d="M311 1403q88 88 191 88q111 0 159 -49t48 -111q0 -49 -29 -81.5t-63.5 -48t-63.5 -48.5t-29 -80q0 -6 1 -14t1 -12h-59v30q0 72 24.5 119t63.5 78l39 29q10 20 10 34q0 72 -100 72q-92 0 -162 -92z" />
<glyph unicode="&#xfb00;" horiz-adv-x="1193" d="M774 0v1110q0 188 102.5 289.5t237.5 101.5q76 0 164 -22v-138q-86 35 -164 35q-74 0 -132 -43t-58 -143v-279h231v-120h-225v-791h-156zM55 791v120h152v150q0 8 -1 24.5t-1 24.5q0 182 99 286.5t245 104.5q76 0 162 -22v-138q-88 35 -166 35q-74 0 -132.5 -43 t-58.5 -143v-279h232v-120h-226v-791h-153v791h-152z" />
<glyph unicode="&#xfb01;" horiz-adv-x="1097" d="M55 791v120h152v203q0 197 86 292t188 95q31 0 121 -22v-140q-74 37 -121 37q-49 0 -88 -42t-39 -144v-279h248v-120h-242v-791h-153v791h-152zM766 1309v172h172v-172h-172zM774 0v911h154v-911h-154z" />
<glyph unicode="&#xfb02;" horiz-adv-x="1097" d="M55 791v120h152v203q0 197 86 292t188 95q31 0 121 -22v-138q-70 35 -121 35q-49 0 -88 -41t-39 -145v-279h248v-120h-242v-791h-153v791h-152zM774 0v1479h154v-1479h-154z" />
<glyph unicode="&#xfb03;" horiz-adv-x="1667" d="M55 791v120h152v199q0 186 89 288.5t218 102.5q63 0 139 -22v-138q-82 35 -141 35q-61 0 -109.5 -42t-48.5 -144v-279h248v-120h-242v-791h-153v791h-152zM774 0v1104q0 207 86 302t189 95q55 0 122 -20v-142q-66 37 -120 37q-49 0 -88 -42t-39 -144v-279h247v-120h-241 v-791h-156zM1335 1309v172h172v-172h-172zM1343 0v911h154v-911h-154z" />
<glyph unicode="&#xfb04;" horiz-adv-x="1667" d="M55 791v120h152v199q0 186 89 288.5t218 102.5q63 0 139 -22v-138q-82 35 -141 35q-61 0 -109.5 -42t-48.5 -144v-279h248v-120h-242v-791h-153v791h-152zM774 0v1104q0 207 86 302t191 95q31 0 120 -22v-138q-70 35 -120 35q-49 0 -88 -41t-39 -145v-279h247v-120h-241 v-791h-156zM1343 0v1479h154v-1479h-154z" />
<glyph horiz-adv-x="1556" d="M20 20v1547h1516v-1547h-1516zM143 229l566 566l-566 563v-1129zM215 143h1126l-563 566zM215 1444l563 -565l563 565h-1126zM848 795l565 -566v1129z" />
<glyph unicode=" "  horiz-adv-x="681" />
<glyph unicode="&#x09;" horiz-adv-x="681" />
<glyph unicode="&#xa0;" horiz-adv-x="681" />
<glyph unicode="!" horiz-adv-x="653" d="M240 1479h172l-19 -1121h-137l-14 1016zM240 0v172h172v-172h-172z" />
<glyph unicode="&#x22;" d="M258 1479h160l-17 -736v-2h-125zM602 1479h160l-19 -738h-125v2z" />
<glyph unicode="#" horiz-adv-x="1705" d="M115 307q0 61 75 62h338l68 286h-410q-43 0 -57 20.5t-14 41.5q0 63 82 63h432l153 619l2 6q2 8 3 13t4.5 13.5t6.5 13.5t8 12t11 11.5t15.5 7.5t19.5 3q25 0 42 -17.5t19 -42.5q0 -18 -8 -47l-147 -592h321l152 619q20 80 69 80q27 0 44.5 -18.5t17.5 -43.5l-6 -45 l-148 -592h279q63 -4 76 -12q27 -20 26 -51q0 -61 -76 -62h-337l-70 -286h412q29 0 46 -13.5t21 -26t4 -22.5q0 -63 -82 -63h-432l-153 -619l-2 -6q-2 -8 -3.5 -13t-4.5 -13.5t-6 -13.5t-8 -12t-11 -11.5t-15.5 -7.5t-19.5 -3q-25 0 -43 18.5t-18 43.5q0 16 8 45l145 592 h-319l-154 -619l-2 -6q-2 -8 -3 -13t-4 -13.5t-6 -13.5t-8.5 -12t-11.5 -11.5t-15 -7.5t-20 -3q-25 0 -42 18.5t-19 43.5q0 8 4 24.5t4 20.5l148 592h-281q-29 0 -44 1t-35.5 16t-20.5 46zM657 369h320l70 286h-320z" />
<glyph unicode="$" d="M90 125l25 141q2 -2 20.5 -17.5t28.5 -22.5l34 -23q24 -16 47 -27.5t55 -24t70 -22.5t81 -16v577h-2q-172 39 -254 155t-82 249q0 139 87 255.5t251 147.5v39h120v-37q164 -16 303 -117l-24 -135q-139 106 -279 119v-518q94 -23 164 -73t104.5 -113.5t51 -124 t16.5 -121.5q0 -164 -96 -287t-240 -145v-41h-120v37q-201 20 -361 145zM262 1120q0 -76 45 -144.5t144 -94.5v481h-2q-98 -33 -142.5 -100.5t-44.5 -141.5zM571 119q100 31 143.5 109.5t43.5 160.5t-42 158t-145 112v-540z" />
<glyph unicode="%" horiz-adv-x="1705" d="M360 -14q0 23 19 41l891 1482q14 25 39 25q16 0 27.5 -11.5t11.5 -27.5q0 -8 -25 -57l-870 -1448q0 -2 -7.5 -11.5t-9.5 -12.5t-8 -10t-12 -9t-15 -2q-16 0 -28.5 12.5t-12.5 28.5zM1022 342q0 162 84 279.5t202.5 117.5t200.5 -117.5t82 -281.5q0 -166 -83 -281.5 t-199 -115.5q-113 0 -200 112.5t-87 286.5zM1176 342q0 -45 4 -84t12 -65.5t17.5 -48t21.5 -34t22.5 -20.5t21.5 -12t18 -6t14 -2h8q55 6 94 81.5t39 190.5q0 121 -42 196.5t-97 75.5q-51 0 -92 -62.5t-41 -209.5zM113 1139q0 164 84 280.5t202 116.5q109 0 196 -109.5 t87 -289.5q0 -166 -83 -282t-200 -116q-113 0 -199.5 113t-86.5 287zM266 1139q0 -45 4 -84t12.5 -65.5t17.5 -48t21.5 -34t22.5 -20.5t21.5 -12.5t18.5 -6.5t13 -2h9q55 6 94 82t39 191q0 121 -42 196.5t-98 75.5q-51 0 -92 -62.5t-41 -209.5z" />
<glyph unicode="&#x26;" horiz-adv-x="1552" d="M84 307q0 57 13.5 103.5t50 93.5t62.5 72.5t91 83.5l96 88q-68 195 -67 360q0 182 78.5 299t205.5 117q115 0 190 -98.5t75 -229.5q0 -84 -63.5 -190.5t-248.5 -272.5q33 -68 77 -139.5t85 -127.5l75 -99l60 -76q27 -33 29 -35q240 207 340 573l131 -32 q-100 -377 -373 -631q47 -31 69.5 -44t60.5 -24.5t81 -11.5q55 0 109.5 9t88.5 18.5t36 9.5v-137q-135 -31 -234 -31q-180 0 -330 121h-2q-184 -121 -411 -121q-154 0 -264.5 101t-110.5 251zM244 324q0 -94 58 -166t161 -72q154 0 307 84q-219 252 -319 455l-57 -50 q-44 -39 -53 -49l-38 -41q-29 -31 -36 -49t-15 -48.5t-8 -63.5zM463 1180q0 -145 55 -320q219 197 219 338q0 72 -28.5 136.5t-96.5 64.5q-55 0 -102 -53t-47 -166z" />
<glyph unicode="'" horiz-adv-x="569" d="M203 1479h159l-12 -527l-4 -209v-2h-125l-2 2z" />
<glyph unicode="(" horiz-adv-x="796" d="M164 512q0 674 391 1024h127q-115 -123 -166 -209q-193 -324 -192 -815q0 -176 25.5 -331.5t61 -257t83 -188.5t84 -131t69.5 -78t35 -38h-127q-391 354 -391 1024z" />
<glyph unicode=")" horiz-adv-x="796" d="M113 -512q111 117 163 207q195 322 195 817q0 176 -25.5 331.5t-61.5 257t-83 188.5t-84 131t-69.5 78t-34.5 38h125q393 -352 393 -1022q0 -674 -393 -1026h-125z" />
<glyph unicode="*" d="M131 891q0 45 57 72l220 116v2l-109 58q-117 61 -142.5 79.5t-25.5 51.5q0 29 21.5 50t50.5 21q6 0 13 -2t17.5 -7t21.5 -12t30.5 -21.5t41.5 -28.5l57 -40l73 -50q-16 246 -17 280q0 39 23.5 57.5t48.5 18.5q23 0 46.5 -16.5t23.5 -53.5q0 -2 -17 -286q223 154 238 159 q6 2 14 2q33 0 53.5 -21.5t20.5 -49.5q0 -39 -55 -72l-222 -117v-2l109 -57q117 -61 142.5 -79.5t25.5 -51.5q0 -29 -21.5 -50.5t-50.5 -21.5q-10 0 -19 3t-28.5 15.5l-39.5 26.5l-67 49l-100 70q16 -252 17 -281q0 -41 -22.5 -58t-47.5 -17q-29 0 -50.5 20.5t-21.5 46.5 q0 6 1 27.5t6.5 95.5t9.5 166q-221 -156 -234 -160q-8 -4 -18 -4q-31 0 -52.5 22.5t-21.5 49.5z" />
<glyph unicode="+" horiz-adv-x="1593" d="M113 512q2 25 16 40t29 19q16 4 51 4h524v527q0 92 62 92q63 0 63 -92v-527h524q92 0 95 -63q-2 -61 -82 -61h-537v-529q0 -55 -24 -78q-16 -14 -37 -14q-45 0 -62 47q-2 8 -2 45v529h-528h-6q-6 -2 -11 -2q-71 0 -75 63z" />
<glyph unicode="," horiz-adv-x="569" d="M197 0v172h172v-143l-2 -29l-84 -256h-86l53 256h-53z" />
<glyph unicode="-" horiz-adv-x="681" d="M20 395v121h545v-121h-545z" />
<glyph unicode="." horiz-adv-x="569" d="M197 0v172h172v-172h-172z" />
<glyph unicode="/" d="M115 -449l18 68l647 1856q16 59 66 59q25 0 43 -16.5t18 -44.5q0 -14 -14 -58l-651 -1866q-8 -23 -18.5 -36t-17.5 -17t-16.5 -5t-11.5 -3h-2q-25 0 -43 18t-18 45z" />
<glyph unicode="0" d="M84 635v39q0 580 297 690q63 25 129 25q168 0 278 -127q150 -168 150 -596q0 -305 -75 -469t-224 -220q-55 -23 -129 -22q-57 0 -109.5 14.5t-113 58.5t-103.5 115.5t-71.5 198.5t-28.5 293zM244 631q0 -168 25.5 -285t69.5 -171t85 -74.5t88 -20.5t88 21.5t84 75.5 t68.5 171t25.5 285v125q0 504 -268 504q-47 0 -88 -18.5t-84 -68t-68.5 -157t-25.5 -260.5v-127z" />
<glyph unicode="1" d="M184 1135v118q246 0 391 136h39v-1268h256v-121h-675v121h256v1061q-120 -47 -267 -47z" />
<glyph unicode="2" d="M84 1053q100 336 397 336q197 0 318 -129.5t121 -309.5q0 -72 -19.5 -131t-76 -125.5t-99.5 -107.5t-147 -133q-55 -49 -330 -310l672 2v-145h-820v133l267 264q16 16 70 66l73 66l62 62q44 44 61 67l46 64q30 40 40 70.5t20.5 70.5t10.5 81q0 131 -83 221t-212 90 q-70 0 -124.5 -31.5t-82 -77.5t-45 -92t-23.5 -79l-8 -35z" />
<glyph unicode="3" d="M84 166l22 125q66 -88 155 -139.5t141.5 -60.5t97.5 -9q113 0 182.5 82t69.5 209q0 123 -69 206t-194 83h-149v126q119 8 147 13q98 18 161 98t63 176q0 86 -57.5 138.5t-149.5 52.5q-86 0 -162 -41t-123 -113q-12 -18 -33 -59l-73 112q141 223 395 224q147 0 259 -89.5 t112 -224.5q0 -221 -228 -350q141 -49 213 -146.5t72 -209.5q0 -160 -121 -287t-313 -127q-252 0 -418 211z" />
<glyph unicode="4" d="M55 350v99q0 27 23 63l495 829h189v-866h203v-125h-203v-350h-164v350h-543zM215 475h395v791q-18 -115 -96 -265.5t-299 -525.5z" />
<glyph unicode="5" d="M78 156l69 114q113 -188 320 -188q102 0 185 79t83 259q0 176 -64.5 253t-144.5 77q-72 0 -128 -41t-76 -82l-21 -41h-139v755h690v-131h-541v-419q111 84 219 83q158 0 274 -132t116 -324.5t-131.5 -327.5t-319.5 -135q-117 0 -221 54.5t-170 146.5z" />
<glyph unicode="6" d="M86 662q0 307 155.5 517t391.5 210q100 0 219 -41v-123q-129 43 -219 43q-117 0 -204 -81t-126 -187.5t-45 -221.5q63 80 155.5 124t190.5 44q131 0 223 -125q109 -156 109 -362q0 -227 -141 -377q-119 -127 -279 -127q-57 0 -111.5 16.5t-114 63.5t-103.5 122.5 t-72.5 206t-28.5 298.5zM262 506q0 -37 2 -55q39 -369 250 -369q104 0 163.5 69.5t80.5 157.5q10 55 10 137q0 176 -57 269q-68 106 -187 106q-115 0 -188.5 -92t-73.5 -223z" />
<glyph unicode="7" d="M84 1198v145l852 -2v-133q-215 -248 -334 -570.5t-119 -660.5h-174q0 324 119 639.5t369 581.5h-713z" />
<glyph unicode="8" d="M84 369q0 113 70.5 209t214.5 147q-117 35 -186.5 119t-69.5 184q0 145 114.5 253t282.5 108q162 0 279.5 -105.5t117.5 -253.5q0 -98 -63.5 -179t-192.5 -126q115 -35 200 -128t85 -230q0 -164 -124 -288t-302 -124t-302 123t-124 291zM250 371q0 -131 71.5 -210 t188.5 -79q104 0 182 72.5t78 218.5q0 129 -72.5 209t-189.5 80q-98 0 -178 -72t-80 -219zM256 1028q0 -109 70.5 -174.5t181.5 -65.5q115 0 185.5 67t70.5 173q0 109 -70.5 174.5t-183.5 65.5q-115 0 -184.5 -67t-69.5 -173z" />
<glyph unicode="9" d="M86 891q0 221 147 375q123 123 283 123q55 0 108.5 -15.5t112 -63.5t101.5 -123t70.5 -205t27.5 -300q0 -313 -150.5 -520t-365.5 -207q-147 0 -273 94l64 111q2 -2 17.5 -12.5t20.5 -14.5t19.5 -12t23.5 -12.5t25.5 -10.5t32 -9t34.5 -5t40 -2q133 0 228.5 129 t111.5 354q-143 -170 -346 -170q-133 0 -221 125q-111 154 -111 371zM254 891q0 -94 12.5 -154.5t52.5 -120.5q66 -94 179 -94q115 0 188.5 92.5t73.5 225.5q0 61 -10.5 125.5t-34 136.5t-74.5 118t-123 46q-106 0 -168.5 -71t-83.5 -157q-12 -49 -12 -147z" />
<glyph unicode=":" horiz-adv-x="569" d="M197 0v172h172v-172h-172zM197 739v172h172v-172h-172z" />
<glyph unicode=";" horiz-adv-x="569" d="M197 739v172h172v-172h-172zM197 0v172h172v-143l-2 -29l-84 -256h-86l53 256h-53z" />
<glyph unicode="&#x3c;" horiz-adv-x="1593" d="M170 512q4 27 15.5 39t54.5 35l1077 544q25 12 41 13q27 0 44 -18.5t17 -43.5q0 -20 -14 -36.5t-22.5 -21.5t-32.5 -17l-977 -494l977 -494l10 -6l10 -5l10 -5q8 -4 10.5 -6l8.5 -7t9 -9.5t6 -10.5t4 -12t1 -14q0 -25 -17.5 -43.5t-43.5 -18.5q-14 0 -80 33l-1038 524 q-29 14 -44.5 26.5t-18.5 18.5t-5 16.5t-2 12.5z" />
<glyph unicode="=" horiz-adv-x="1593" d="M115 307q0 25 17.5 44.5t55.5 19.5q4 0 10.5 -1t10.5 -1h1190q78 0 78 -62q0 -63 -84 -63h-1198q-80 0 -80 63zM115 717q0 63 82 63h1198q82 0 82 -63q0 -61 -76 -62h-1211q-75 1 -75 62z" />
<glyph unicode="&#x3e;" horiz-adv-x="1593" d="M170 -57q0 20 15.5 37.5t22.5 20.5t34 17l977 494l-977 494q-2 0 -11.5 5t-12.5 6t-11 6l-12.5 8t-9.5 9.5t-8 12.5t-5 13t-2 15q0 25 18.5 43.5t44.5 18.5q14 0 80 -33l1039 -524q29 -14 44 -26.5t18 -18.5t4 -16.5t1 -12.5q-4 -27 -14 -39t-53 -35l-1076 -542 q-25 -14 -43 -15q-27 0 -45 18.5t-18 43.5z" />
<glyph unicode="?" horiz-adv-x="966" d="M113 1386q158 115 344 115q115 0 197.5 -31.5t122.5 -85t57.5 -105.5t17.5 -110q0 -43 -8 -80.5t-20.5 -63.5t-31 -51.5t-30.5 -37.5t-29.5 -27.5t-21.5 -19.5q-188 -182 -189 -449v-82h-137v66q0 119 21.5 218t58.5 164.5t68.5 107.5t70.5 79t47 47q41 51 41 131 q0 205 -231 205q-162 0 -301 -119zM369 0v172h172v-172h-172z" />
<glyph unicode="@" horiz-adv-x="1366" d="M113 741q0 319 203.5 539.5t471.5 220.5q94 0 168 -30.5t121 -76.5t82 -118t51.5 -133.5t26.5 -145.5t11 -131t1 -112q0 -229 -115.5 -362.5t-263.5 -133.5q-156 0 -267 140.5t-111 341t110.5 342t267.5 141.5q27 0 51.5 -4.5t44 -11.5t32 -13t27.5 -15.5t19 -11.5 q-76 209 -253 209q-203 0 -364 -180t-161 -457q0 -266 157 -450.5t378 -184.5q78 0 149.5 17.5t117.5 37t50 19.5q8 2 49 2h82q-88 -98 -207.5 -150.5t-246.5 -52.5q-276 0 -479 220t-203 544zM645 741.5q0 -153.5 66.5 -256t158.5 -102.5q84 0 155 98.5t71 256t-69 258 t-159 100.5q-88 0 -155.5 -100.5t-67.5 -254z" />
<glyph unicode="A" horiz-adv-x="1366" d="M55 0l535 1421h182l533 -1421h-189l-158 418h-593l-156 -418h-154zM408 532h507q-244 682 -253 746q-14 -66 -71 -230l-117 -330q-60 -166 -66 -186z" />
<glyph unicode="B" horiz-adv-x="1366" d="M197 0v1421h454q141 0 251 -34.5t170.5 -90t90 -115t29.5 -116.5q0 -102 -88 -190.5t-256 -131.5q166 -27 283.5 -124t117.5 -234q0 -150 -130 -256t-310 -125q-35 -4 -104 -4h-508zM369 115h290q197 0 309.5 80.5t112.5 191.5q0 98 -98 183t-264 104q-35 2 -105 2h-243 l-2 -76v-485zM369 803h245q193 0 304.5 80t111.5 180q0 90 -105.5 167t-320.5 77h-233l-2 -72v-432z" />
<glyph unicode="C" horiz-adv-x="1308" d="M135 711q0 307 190.5 531t485.5 224q180 0 371 -69l-31 -170q-94 57 -168 82.5t-180 25.5q-211 0 -347.5 -186t-136.5 -438q0 -256 137.5 -440.5t352.5 -184.5q98 0 175 21.5t104.5 38t103.5 65.5l12 -143q-111 -66 -191.5 -89.5t-205.5 -23.5q-293 0 -482.5 225.5 t-189.5 530.5z" />
<glyph unicode="D" horiz-adv-x="1478" d="M195 0v1421h503q207 0 353 -96q147 -98 230 -267t83 -358q0 -270 -161 -469.5t-402 -226.5q-33 -4 -99 -4h-507zM373 115h293q258 0 399 188q121 158 121 395q0 207 -72 333t-160 190q-119 86 -288 86h-293v-1192z" />
<glyph unicode="E" horiz-adv-x="1222" d="M193 0v1415h915v-135l-731 4v-485h676v-125h-676v-531l760 4v-147h-944z" />
<glyph unicode="F" horiz-adv-x="1165" d="M193 0v1415h886v-135l-702 4v-514h616v-125h-616v-645h-184z" />
<glyph unicode="G" horiz-adv-x="1366" d="M135 711q0 199 84 370.5t237.5 278t344.5 106.5q213 0 409 -98l-30 -170q-96 72 -176 104.5t-199 32.5q-211 0 -348.5 -185t-137.5 -437q0 -264 140.5 -445.5t343.5 -181.5q51 0 102 6t81 14l54 16q25 7 27 7v356h-272v127h432v-559q-213 -98 -426 -98 q-281 0 -473.5 221.5t-192.5 534.5z" />
<glyph unicode="H" horiz-adv-x="1449" d="M193 0v1421h184v-618h696v618h184v-1421h-184v676h-696v-676h-184z" />
<glyph unicode="I" horiz-adv-x="569" d="M193 0v1421h184v-1421h-184z" />
<glyph unicode="J" horiz-adv-x="966" d="M84 41l27 154l14 -13l28 -23q13 -11 37.5 -25.5t50 -26t61.5 -18.5t73 -7q242 0 241 240v1099h179v-1104q0 -104 -32 -179t-87 -112.5t-114.5 -54t-127.5 -16.5q-180 0 -350 86z" />
<glyph unicode="K" horiz-adv-x="1421" d="M195 0v1421h176v-759l743 759h191l-549 -561v-2l577 -858h-192l-498 743l-272 -276v-467h-176z" />
<glyph unicode="L" horiz-adv-x="1110" d="M193 0v1421h184v-1288l645 2v-135h-829z" />
<glyph unicode="M" horiz-adv-x="1792" d="M205 0v1421h233l316 -821q133 -365 141 -412h2q6 41 71.5 223.5t67.5 186.5l316 823h235v-1421h-160v1212l-2 66q-6 -37 -20 -76l-123 -336l-315 -821h-148l-307 797q-135 379 -147 436v-1278h-160z" />
<glyph unicode="N" horiz-adv-x="1449" d="M195 0v1421h256l561 -1114l80 -164v1278h159v-1421h-256l-561 1114l-80 164v-1278h-159z" />
<glyph unicode="O" horiz-adv-x="1507" d="M113 707q0 317 189.5 538t451.5 221q258 0 447.5 -221t189.5 -538q0 -311 -185.5 -531.5t-453.5 -220.5q-256 0 -447.5 216.5t-191.5 535.5zM297 735q0 -266 128 -456.5t327 -190.5q195 0 325.5 187.5t130.5 459.5q0 268 -135 434t-321 166q-193 0 -324 -170t-131 -430z " />
<glyph unicode="P" horiz-adv-x="1308" d="M195 0v1421h483q193 0 315 -80q94 -57 146.5 -144t52.5 -187q0 -154 -129 -287t-377 -133q-10 0 -32.5 1t-35.5 1h-239v-592h-184zM373 711h272q205 0 293 92t88 207q0 49 -17.5 96t-57.5 95t-118.5 77t-187.5 29h-272v-596z" />
<glyph unicode="Q" horiz-adv-x="1507" d="M113 707q0 266 143 480t379 267q57 12 117 12q262 0 451.5 -221t189.5 -538q0 -403 -301 -639l243 -324h-215l-172 246q-117 -35 -196 -35q-262 0 -450.5 218.5t-188.5 533.5zM291 705q0 -264 133 -441.5t330 -177.5q25 0 47 3t42.5 9t24.5 6l-206 295h182l160 -215h2 q209 188 208 521q0 272 -134 451t-330 179h-2q-188 -4 -322.5 -179t-134.5 -451z" />
<glyph unicode="R" horiz-adv-x="1323" d="M195 0v1421h462q147 0 259 -37.5t172.5 -98t89 -123t28.5 -122.5q0 -117 -89 -220t-261 -152l408 -668h-185l-383 647h-323v-647h-178zM373 774h233q164 0 240 27q98 33 146 97.5t48 139.5q0 45 -18 88t-59 86t-122 69t-192 26h-276v-533z" />
<glyph unicode="S" horiz-adv-x="1136" d="M90 96l31 170q209 -170 438 -170q129 0 214 81t85 190q0 80 -48 147.5t-128 97.5q-39 16 -119 35t-140.5 35t-132 62.5t-118.5 117.5q-57 90 -59 201q0 158 128 280.5t334 122.5q193 0 375 -98l-28 -170q-86 68 -161 99.5t-188 31.5q-133 0 -215 -72.5t-82 -169.5 q0 -74 46.5 -132t117.5 -87q25 -10 147 -39.5t161 -46.5q111 -45 192.5 -149.5t81.5 -245.5q0 -174 -130 -303t-333 -129q-246 0 -469 141z" />
<glyph unicode="T" horiz-adv-x="1392" d="M72 1276v135h1245v-135l-531 2v-1278h-182v1278z" />
<glyph unicode="U" horiz-adv-x="1406" d="M193 526v895h184v-850q0 -141 4 -168q14 -135 100 -234t228 -99q129 0 230 93t114 271v987h161v-876q0 -2 1 -22q1 -10 1 -18t-1 -16q-1 -14 -2 -41.5t-5 -50t-11 -53.5t-19.5 -59.5l-27.5 -60t-37.5 -62.5t-51.5 -60q-147 -147 -352 -147q-197 0 -341.5 129t-170.5 317 q-4 43 -4 125z" />
<glyph unicode="V" horiz-adv-x="1366" d="M29 1421h190l313 -807q145 -389 166 -471q8 51 84 255t76 206l318 817h159l-559 -1421h-188z" />
<glyph unicode="W" horiz-adv-x="1933" d="M29 1421h178l237 -833q90 -324 105 -445q8 96 106 451l236 827h168q135 -446 241 -841l60 -222q18 -70 47 -215q6 61 109 449l239 829h148l-416 -1421h-178l-219 756q-86 317 -96.5 361t-32.5 161q-10 -98 -121 -483l-230 -795h-164z" />
<glyph unicode="X" horiz-adv-x="1366" d="M29 0l549 748v2l-521 671h215l396 -534l385 534h196l-493 -671v-2l579 -748h-215l-452 625l-443 -625h-196z" />
<glyph unicode="Y" horiz-adv-x="1366" d="M4 1421h215l301 -436q164 -246 178 -272l44 70l75 114l91 135l96 140l85 123l62 89l25 37h180l-586 -852v-569h-178v569z" />
<glyph unicode="Z" horiz-adv-x="1251" d="M113 0v51q0 29 3 39t23 39l762 1165l-760 -2v129h996v-49v-11q0 -5 -1 -10t-1 -7.5t-1 -6.5t-2.5 -6t-4.5 -7t-4 -7t-6 -9.5t-7 -11.5l-762 -1163l799 2v-135h-1034z" />
<glyph unicode="[" horiz-adv-x="591" d="M205 -512v2048h340v-125h-187v-1798h187v-125h-340z" />
<glyph unicode="\" d="M115 1473q0 27 18.5 44t42.5 17q47 0 72 -78l649 -1859q10 -35 10 -46q0 -23 -17.5 -43t-43.5 -20q-12 0 -23.5 5t-17.5 11.5t-13.5 18.5t-9.5 18l-7 21q-5 14 -5 16l-653 1874q-2 7 -2 21z" />
<glyph unicode="]" horiz-adv-x="591" d="M43 -387h184v1798h-184v125h340v-2048h-340v125z" />
<glyph unicode="^" horiz-adv-x="1251" d="M272 911l289 379h127l289 -379h-125l-227 279l-228 -279h-125z" />
<glyph unicode="_" horiz-adv-x="1593" d="M172 -467q0 41 70 41h1110q68 0 67.5 -41t-57.5 -41h-1120q-70 0 -70 41z" />
<glyph unicode="`" d="M199 1311h159l273 -267h-125z" />
<glyph unicode="a" horiz-adv-x="983" d="M90 231q0 76 57.5 132.5t150.5 84t182 41t179 13.5v69q-4 127 -53 189q-51 61 -129 61q-154 0 -307 -104l-12 137q158 90 325 90q139 0 232.5 -94t103.5 -225v-625h-155v72q-135 -94 -340 -95q-117 0 -175.5 83t-58.5 171zM240 233q0 -57 54 -93t136 -36q90 0 159.5 37 t69.5 125v129q-66 0 -130 -8t-133.5 -24.5t-112.5 -50.5t-43 -79z" />
<glyph unicode="b" horiz-adv-x="1058" d="M166 0v1479h153v-666q152 119 328 119q147 0 241.5 -141.5t94.5 -331.5q0 -201 -110.5 -341.5t-272.5 -140.5q-141 0 -274 117v-94h-160zM326 272q0 -16 1 -25t4 -18.5t5 -12.5t11 -14.5t13 -17.5q66 -82 168 -82q109 0 201 86t92 269q0 96 -26.5 168.5t-70.5 109.5 t-89 54.5t-90 17.5q-80 0 -149.5 -48t-69.5 -104v-383z" />
<glyph unicode="c" horiz-adv-x="909" d="M72 457q0 190 122.5 338.5t327.5 148.5q96 0 159.5 -18.5t158.5 -71.5l-25 -135q-6 4 -28 17l-29 19q-8 5 -27.5 15t-32.5 14l-33 12q-22 7 -41.5 10t-47 5t-56.5 2q-139 0 -214 -105.5t-75 -250.5q0 -152 80 -250t207 -98q160 0 322 110l10 -137q-158 -104 -334 -105 q-188 0 -316 140.5t-128 339.5z" />
<glyph unicode="d" horiz-adv-x="1058" d="M72 453q0 203 105.5 342t258.5 139q156 0 297 -113v658h156v-1479h-162v106q-137 -129 -303 -129q-150 0 -251 139.5t-101 336.5zM231 455q0 -182 86 -266.5t191 -84.5q86 0 152.5 57.5t66.5 112.5v392q0 27 -7 41t-36 38q-63 61 -152 62h-4q-49 0 -97 -18.5t-95 -56.5 t-76 -109.5t-29 -167.5z" />
<glyph unicode="e" horiz-adv-x="909" d="M70 463q0 195 119.5 338t293.5 143q61 0 116.5 -19.5t112 -64.5t93.5 -135t43 -215v-59h-635q6 -147 91 -247t212 -100q158 0 311 113l13 -135q-156 -104 -324 -105q-195 0 -320.5 144.5t-125.5 341.5zM223 563h508q-12 80 -43 135.5t-72 79t-72.5 31.5t-60.5 8 q-104 0 -172 -80t-88 -174z" />
<glyph unicode="f" horiz-adv-x="624" d="M55 791v120h152v150q0 8 -1 24.5t-1 24.5q0 182 99 286.5t245 104.5q76 0 162 -22v-138q-88 35 -166 35q-74 0 -132.5 -43t-58.5 -143v-279h232v-120h-226v-791h-153v791h-152z" />
<glyph unicode="g" d="M55 -145q0 133 131 211q-51 74 -51 155q0 92 60 172v2q-68 90 -68 203q0 133 92 233.5t234 100.5q100 0 200 -68l-4 4q152 63 322 64l22 -129q-61 6 -121 6q-14 0 -153 -8l-19 16q80 -104 80 -219q0 -133 -94 -233.5t-233 -100.5q-33 0 -63 6t-51.5 15.5t-36.5 17.5 t-26 16l-10 7q-23 -45 -22 -76q0 -45 26.5 -77t87.5 -32h154q72 0 122 -5t123.5 -22.5t125 -63.5t71.5 -118q10 -41 11 -75q0 -119 -133.5 -199t-321.5 -80q-190 0 -322.5 80t-132.5 197zM199 -145q0 -53 55 -91t122.5 -53.5t129.5 -15.5q129 0 222 44t93 114 q0 141 -305 141h-129l-59 -2q-59 -4 -94 -47t-35 -90zM270 598q0 -100 50.5 -157.5t134.5 -57.5q70 0 126 50t56 167q0 98 -50 156.5t-134 58.5q-70 0 -126.5 -50t-56.5 -167z" />
<glyph unicode="h" horiz-adv-x="1058" d="M164 0v1479h153v-693q127 145 295 146q78 0 133.5 -24.5t83 -58.5t43 -86t18.5 -88t3 -85v-590h-160v575q0 111 -40 171.5t-161 60.5q-109 0 -158.5 -92t-49.5 -223v-492h-160z" />
<glyph unicode="i" horiz-adv-x="489" d="M166 0v911h153v-911h-153zM152 1208v183h184v-183h-184z" />
<glyph unicode="j" horiz-adv-x="546" d="M-125 -350l31 125q80 -63 160 -64q59 0 101 30t54 73q4 16 4 53v1044h154v-1013q0 -168 -80 -243t-178 -75q-125 0 -246 70zM197 1208v183h184v-183h-184z" />
<glyph unicode="k" horiz-adv-x="1001" d="M170 0v1479h147v-996l418 428h185l-345 -352l390 -559h-168l-320 459l-164 -168v-291h-143z" />
<glyph unicode="l" horiz-adv-x="489" d="M166 0v1479h153v-1479h-153z" />
<glyph unicode="m" horiz-adv-x="1626" d="M164 0v922h149v-144q119 154 299 154q199 0 260 -166q125 166 310 166q78 0 133 -25.5t82.5 -58.5t43 -86t18.5 -88t3 -84v-590h-162v575q0 111 -38.5 171.5t-159.5 60.5q-109 0 -159 -92t-50 -223v-492h-160v575q0 111 -40 171.5t-161 60.5q-109 0 -158.5 -92 t-49.5 -223v-492h-160z" />
<glyph unicode="n" horiz-adv-x="1058" d="M164 0v922h149v-144q119 154 299 154q76 0 130.5 -22.5t83 -55.5t44 -83t19.5 -89t4 -92v-590h-160v575q0 111 -40 171.5t-161 60.5q-109 0 -158.5 -92t-49.5 -223v-492h-160z" />
<glyph unicode="o" d="M61 453q0 188 126 339.5t323 151.5q184 0 317.5 -144.5t133.5 -348.5q0 -203 -135.5 -338.5t-315.5 -135.5t-314.5 135.5t-134.5 340.5zM221 473q0 -168 83 -266t206 -98q115 0 202 93t87 271q0 158 -82 251t-207 93q-113 0 -201 -86t-88 -258z" />
<glyph unicode="p" horiz-adv-x="1058" d="M166 -399v1310h153v-100q152 121 340 121q139 0 231.5 -141.5t92.5 -331.5q0 -195 -107.5 -338.5t-273.5 -143.5q-147 0 -276 117v-493h-160zM326 258q0 -45 58 -100.5t140 -55.5q115 0 206 99.5t91 253.5q0 139 -77.5 242.5t-200.5 103.5q-29 0 -56.5 -6.5t-49 -16.5 t-40 -23.5t-31 -25.5t-21.5 -22.5t-13 -16.5l-6 -6v-426z" />
<glyph unicode="q" horiz-adv-x="1058" d="M72 453q0 201 110.5 340t270 139t280.5 -137v137h156v-1331h-162v501q-135 -125 -309 -125q-147 0 -246.5 138.5t-99.5 337.5zM231 453q0 -143 81 -246t198 -103q82 0 152.5 56.5t70.5 122.5v301q0 63 -53 141t-152 78q-106 0 -201.5 -95t-95.5 -255z" />
<glyph unicode="r" horiz-adv-x="700" d="M166 0v922h143v-185q137 193 359 195v-137q-51 -2 -105.5 -19.5t-112 -56.5t-94.5 -116t-37 -181v-422h-153z" />
<glyph unicode="s" horiz-adv-x="784" d="M55 70l25 139q63 -37 92 -52.5t93.5 -33t135.5 -17.5q102 0 146.5 43.5t44.5 96.5t-36 86t-79 45q-20 6 -91 20.5t-105 24.5q-82 25 -147.5 89t-65.5 163q0 47 14 89t48 86t104.5 69.5t168.5 25.5q150 0 299 -63l-22 -136q-2 2 -23.5 11.5t-24.5 11.5t-22.5 10t-27 10.5 t-25.5 9.5t-28.5 8t-30 6t-34.5 6t-35.5 2t-43.5 1q-94 0 -133 -38t-39 -87q0 -68 56.5 -98.5t154.5 -48t135 -33.5q74 -35 126 -99.5t52 -156.5q0 -109 -75.5 -196t-258.5 -87q-180 1 -348 93z" />
<glyph unicode="t" horiz-adv-x="739" d="M37 791v120h176v258h143v-258h289v-120h-289v-504q0 -178 111 -178q33 0 65.5 9t51 19t40 23.5t23.5 15.5l33 -121q-145 -78 -303 -78q-166 0 -168 263v551h-172z" />
<glyph unicode="u" horiz-adv-x="1058" d="M164 250v661h160v-686q2 -72 33.5 -102.5t129.5 -30.5q106 0 171 56.5t73 130.5q2 20 2 59v573h160v-911h-156v98q-137 -121 -358 -121q-61 0 -104.5 19.5t-65 44.5t-32.5 69t-12 69.5t-1 70.5z" />
<glyph unicode="v" horiz-adv-x="944" d="M29 911h157l191 -499q88 -250 98 -310q8 59 73 240l136 366q72 185 78 203h151l-352 -911h-180z" />
<glyph unicode="w" horiz-adv-x="1398" d="M29 911h153l89 -290l60 -201q22 -72 37 -137l19 -84q4 -18 10 -56.5t6 -40.5q2 68 54.5 259.5t108 369.5t55.5 180h145l149 -499q70 -242 78 -310q6 59 58.5 244.5l111 374t58.5 190.5h149l-283 -911h-178l-94 317l-59 199q-23 74 -34 124t-15.5 65.5t-9.5 49t-7 52.5 q-4 -72 -55 -260.5t-105.5 -362.5t-56.5 -184h-162z" />
<glyph unicode="x" horiz-adv-x="944" d="M0 0l397 467v4l-385 440h170l283 -338h2l272 338h170l-377 -440v-2l410 -469h-170l-307 385l-295 -385h-170z" />
<glyph unicode="y" horiz-adv-x="944" d="M29 911h161l147 -342q58 -139 86 -220t38 -114.5t17 -76.5l9 -56q2 82 66.5 272.5t134.5 362.5l72 174h153l-444 -1095q-59 -137 -110.5 -186.5t-125.5 -49.5q-84 0 -149 17l-10 133q104 -35 149 -35q55 0 90 51t101 223q8 18 8 33q0 8 -10 35z" />
<glyph unicode="z" horiz-adv-x="890" d="M55 0v84l545 707l-516 -3v123h731v-82l-543 -702l549 2v-129h-766z" />
<glyph unicode="{" d="M106 449v126q119 0 215.5 57.5t108.5 164.5v471q4 80 21 112q76 156 354 156h108v-125h-49q-94 0 -153.5 -11t-84 -34t-30.5 -42t-6 -52v-432q0 -92 -36 -160t-93.5 -100.5t-105.5 -48t-95 -19.5q47 -4 96.5 -19.5t105.5 -48t92 -100.5t36 -160v-440q0 -66 55 -98.5 t219 -32.5h49v-125h-92q-152 0 -243 43q-47 20 -79 48t-44.5 57.5t-17.5 49t-7 44.5v26v424q0 68 -14 107q-35 78 -121.5 120t-188.5 42z" />
<glyph unicode="|" horiz-adv-x="569" d="M242 -451v1926q0 59 41 59t41 -59v-1926q0 -59 -41 -59t-41 59z" />
<glyph unicode="}" d="M106 -387q188 4 248 25q61 23 74 69q2 10 2 55v422q0 92 36 160t92 100.5t105.5 48t96.5 19.5q-47 4 -96.5 19.5t-105.5 48t-92 100.5t-36 160v436q0 80 -64.5 106.5t-259.5 28.5v125h109q98 0 173 -21.5t112 -50t59.5 -67.5t27.5 -64.5t5 -50.5l-2 -14v-424 q4 -76 16 -107q35 -78 119 -120t188 -42v-126q-119 0 -215 -57.5t-106 -164.5l-2 -47v-424q0 -72 -19 -112q-39 -78 -134 -117t-222 -39h-109v125z" />
<glyph unicode="~" horiz-adv-x="1251" d="M170 1141q4 111 80 177t180 66q70 0 197 -58t190 -58q55 0 93 30.5t44 85.5h125q-4 -111 -79.5 -177t-180.5 -66q-70 0 -196.5 59.5t-190.5 59.5q-55 0 -93 -31t-44 -88h-125z" />
<glyph unicode="&#xa1;" horiz-adv-x="653" d="M240 -399l16 1122h137l17 -1016l2 -106h-172zM240 909v172h172v-172h-172z" />
<glyph unicode="&#xa2;" d="M72 455q0 176 117.5 317t316.5 168v180h121v-178q96 -2 159.5 -20.5t165.5 -67.5l-22 -135q-6 2 -35 17.5t-34 18.5t-29.5 13t-34 13l-33 10.5t-40.5 9.5l-43 5q-26 3 -54 5v-700q164 14 325 108l13 -137q-160 -90 -338 -102v-179h-121v181q-182 23 -308 156t-126 317z M231 457q0 -133 76 -226.5t199 -115.5v692q-137 -25 -206 -125t-69 -225z" />
<glyph unicode="&#xa3;" horiz-adv-x="1308" d="M113 119q0 78 75.5 128t186.5 50q51 0 104 -14q8 74 8 114v283h-147v119h147v282q0 240 115 361t248 121q96 0 168 -51.5t106.5 -127t51 -142t16.5 -118.5q0 -86 -72 -86q-31 0 -48 17.5t-19 34.5l-4 18h-17q-2 184 -56 257t-124 73q-80 0 -142.5 -78t-62.5 -268v-293 h205v-119h-205v-285q0 -86 -22 -166l53 -25l96 -44q47 -20 107.5 -39t101.5 -19q61 0 84 45.5t23 149.5h159q-4 -143 -99 -231.5t-222 -88.5q-74 0 -142.5 25t-234.5 102q-111 -127 -264 -127q-72 0 -123 40.5t-51 101.5zM266 125q0 -20 29 -20.5t58.5 13t43.5 25.5l17 13 q-57 14 -92 14q-56 0 -56 -45z" />
<glyph unicode="&#xa4;" horiz-adv-x="1550" d="M94 -59q0 2 1 6t1 8q2 6 5 11t11.5 14.5t17.5 18.5l28 28l38 38l53 52l68 67v2q-152 170 -151 400q0 231 151 399v2q-201 199 -211 211q-12 18 -12 31q0 12 11.5 24.5t27.5 12.5h6q12 0 129 -117l107 -105q168 150 399 150q229 0 400 -150h2l195 195q28 27 44 27 q41 0 41 -45q0 -10 -14.5 -26.5t-104.5 -104.5l-104 -105q150 -172 149 -399q0 -219 -149 -402q209 -207 217 -219q4 -8 4 -22q0 -6 -1 -10.5t-3 -7.5t-4 -5t-2 -4q-23 -12 -25 -12t-6 1t-8 1q-4 2 -8 5t-10.5 7t-12.5 10l-16 17l-21 20l-27 28l-35 35l-45 45l-54 54h-2 q-168 -150 -400 -150q-221 0 -399 150q-207 -207 -219 -215q-10 -6 -24.5 -6t-26 12.5t-11.5 22.5zM248 586q0 -215 152.5 -371t373.5 -156q215 0 370.5 151.5t155.5 375.5q0 215 -152.5 370.5t-371.5 155.5q-217 0 -372.5 -152.5t-155.5 -373.5z" />
<glyph unicode="&#xa5;" horiz-adv-x="1366" d="M-55 387q0 63 82 64h567v118l-113 164h-448q-88 0 -88 62q0 63 84 63h16q10 0 14 2h336l-389 561h217l383 -561h189l385 561h180l-387 -561h364q84 0 84 -65q0 -61 -86 -62h-448l-115 -164v-118h559q29 0 43 -5q47 -14 47 -59q0 -49 -45 -59q-14 -4 -43 -4h-561v-324 h-178v324h-561q-29 0 -41 4q-47 10 -47 59zM690 733l10 -20l13 20h-23z" />
<glyph unicode="&#xa6;" horiz-adv-x="342" d="M129 289q0 57 41 57t41 -55v-744q0 -57 -41 -57t-41 55v744zM129 733v744q0 57 41 57t41 -55v-742q0 -59 -41 -59t-41 55z" />
<glyph unicode="&#xa7;" horiz-adv-x="909" d="M90 -272l25 139q74 -80 125 -111q90 -51 204 -51q86 0 123 70.5t37 150.5q0 29 -5 53.5t-15.5 45t-21.5 38t-27 31.5l-29 25q-12 10 -30.5 19t-27 14.5t-22.5 11.5t-16 6q-268 150 -269 385q0 176 131 283l19 12q-150 141 -150 303q0 135 87 241.5t231 106.5 q98 0 165.5 -29.5t135.5 -89.5l-12 -75l-13 -60q-78 84 -157 111q-53 18 -115 18q-84 0 -122 -71.5t-38 -149.5q0 -29 5 -53.5t15.5 -45t21.5 -38t28 -31.5l28 -24q12 -10 31 -19.5t27 -14.5t22.5 -11.5t16.5 -6.5q268 -150 268 -385q0 -176 -131 -284l-19 -13 q150 -137 150 -301q0 -139 -87 -243.5t-235 -104.5q-198 1 -354 148zM303 557q0 -51 18.5 -94t45 -68.5t56.5 -45t49.5 -27t25.5 -7.5q35 0 70.5 62.5t35.5 146.5q0 51 -18.5 94.5t-45 69t-56 44t-49 25.5t-25.5 7q-35 0 -71 -61.5t-36 -145.5z" />
<glyph unicode="&#xa8;" d="M618 1169v183h185v-183h-185zM219 1169v183h184v-183h-184z" />
<glyph unicode="&#xa9;" horiz-adv-x="2275" d="M590 498q0 223 197.5 382.5t496.5 159.5q145 0 295 -49l-29 -170q-100 63 -159 78q-49 10 -111 10q-209 0 -358.5 -119.5t-149.5 -291.5q0 -160 142.5 -286t371.5 -126q76 0 133.5 13.5t81 25.5t88.5 51l13 -141q-88 -47 -147.5 -63.5t-172.5 -16.5q-295 0 -493.5 161 t-198.5 382zM113 512q0 215 79.5 412.5t217 341t327 229.5t400.5 86q201 0 388 -82t326.5 -222t223.5 -341t84 -424q0 -283 -132.5 -527.5t-369 -393t-522.5 -148.5q-270 0 -505 139t-376 386t-141 544zM195 512q0 -406 274 -696.5t664 -290.5q254 0 471 130t345 357.5 t128 499.5q0 266 -125 493.5t-341 360.5t-472 133q-389 0 -666.5 -287.5t-277.5 -699.5z" />
<glyph unicode="&#xaa;" horiz-adv-x="909" d="M51 623q0 63 82 63h641q84 0 84 -63q0 -61 -80 -62h-624q-4 0 -12.5 -1t-12.5 -1q-31 0 -49.5 13.5t-23.5 26t-5 24.5zM90 952q0 59 57.5 100.5t146.5 56.5t146.5 20.5t104.5 5.5v73q0 240 -131 240q-121 0 -244 -105l-12 140q123 86 264 86q106 0 195.5 -86t89.5 -279 v-436h-156v68q-131 -90 -285 -91q-92 0 -134 69.5t-42 137.5zM242 967q-4 -45 33.5 -70t93.5 -25q63 0 113 34t61 91l2 33q-66 -2 -116 -7t-78.5 -9t-50 -10.5t-29 -10.5t-15.5 -10l-8 -6z" />
<glyph unicode="&#xab;" horiz-adv-x="1366" d="M225 451l459 448h133l-442 -450l442 -449h-133zM565 451l459 448h133l-440 -450l440 -449h-133z" />
<glyph unicode="&#xac;" horiz-adv-x="1366" d="M115 680q0 12 5 21.5t14 12.5t16.5 5t19.5 2h14h1010q55 0 55 -59v-517q0 -57 -41 -57t-41 62v489h-987q-65 0 -65 41z" />
<glyph unicode="&#xad;" horiz-adv-x="342" d="M20 395v121h545v-121h-545z" />
<glyph unicode="&#xae;" horiz-adv-x="2275" d="M707 0v995h458q221 0 361 -65q178 -84 178 -209q0 -96 -95.5 -167t-234.5 -101l387 -453h-184l-360 434h-334v-434h-176zM883 561h252q197 0 284 35q35 12 59.5 28.5t35 32t15.5 27.5t7 25l2 10q-8 74 -93 118t-312 44h-248l-2 -117v-203zM113 512q0 215 79.5 412.5 t217 341t327 229.5t400.5 86q201 0 388 -82t326.5 -222t223.5 -341t84 -424q0 -283 -132.5 -527.5t-369 -393t-522.5 -148.5q-270 0 -505 139t-376 386t-141 544zM195 512q0 -406 274 -696.5t664 -290.5q254 0 471 130t345 357.5t128 499.5q0 266 -125 493.5t-341 360.5 t-472 133q-389 0 -666.5 -287.5t-277.5 -699.5z" />
<glyph unicode="&#xaf;" d="M141 1266v131h738v-131h-738z" />
<glyph unicode="&#xb0;" horiz-adv-x="681" d="M113 1194q0 94 66.5 160.5t160.5 66.5q96 0 161.5 -67.5t65.5 -159.5q0 -94 -66.5 -160.5t-160.5 -66.5q-96 0 -161.5 67.5t-65.5 159.5zM195 1194q0 -57 40.5 -100t104.5 -43q59 0 101 41t42 102q0 57 -41 101t-102 44q-59 0 -102 -42t-43 -103z" />
<glyph unicode="&#xb1;" horiz-adv-x="1593" d="M115 39q0 43 55 43h584v559h-578q-61 0 -61 41t59 41h580v577q0 61 41 61.5t41 -58.5v-580h577q63 0 63.5 -41t-61.5 -41h-579v-559h587q51 -2 52 -41q0 -41 -58 -41h-1245q-57 0 -57 39z" />
<glyph unicode="&#xb2;" horiz-adv-x="909" d="M84 1415q72 88 150.5 127t189.5 39q168 0 274.5 -85t106.5 -218q0 -57 -35 -101t-70.5 -63.5t-115.5 -52.5t-109 -47q-12 -6 -237 -131h305l51 2h211v-146h-705v144l230 135q25 12 78 35.5t84.5 40t69.5 43t55.5 60.5t17.5 77q0 78 -66.5 127t-171.5 49q-68 0 -118 -26.5 t-70.5 -53.5t-44.5 -74z" />
<glyph unicode="&#xb3;" horiz-adv-x="909" d="M84 774l18 125q190 -55 340 -55q106 0 151.5 40t45.5 87q0 59 -64 96q-49 29 -151 29h-84v127q10 2 40 4t42 3t34.5 5t37 9t32 15.5t31.5 22.5q39 39 39 84q0 35 -34 64.5t-113 29.5q-137 0 -269 -106l-67 114q154 113 336 113q133 0 225 -62.5t92 -152.5 q0 -41 -14.5 -76t-36 -58.5t-42 -39.5t-36.5 -25l-16 -10q74 -23 137 -69t63 -119q0 -92 -100 -172t-275 -80q-176 0 -362 57z" />
<glyph unicode="&#xb4;" d="M389 1044l273 267h159l-305 -267h-127z" />
<glyph unicode="&#xb5;" horiz-adv-x="1058" d="M164 -399v1310h160v-686q2 -72 33.5 -102.5t129.5 -30.5q106 0 171 56.5t73 130.5q2 20 2 59v573h160v-911h-156v98q-139 -121 -356 -121q-20 0 -57 5v-381h-160z" />
<glyph unicode="&#xb6;" horiz-adv-x="1251" d="M113 991q0 182 129 323.5t325 162.5q29 2 84 2h477q63 0 64 -41q0 -39 -53 -41h-117v-1735q0 -59 -41 -59t-41 59v1735h-141v-1727q0 -68 -41 -67.5t-41 59.5v838q-147 8 -278.5 58t-228.5 163.5t-97 269.5z" />
<glyph unicode="&#xb7;" horiz-adv-x="483" d="M150 358v183h184v-183h-184z" />
<glyph unicode="&#xb8;" horiz-adv-x="909" d="M240 -393l151 346h125l-133 -346h-143z" />
<glyph unicode="&#xb9;" horiz-adv-x="909" d="M141 1309v118q231 2 377 154h39v-721h209v-121h-596v121h223v502q-117 -53 -252 -53z" />
<glyph unicode="&#xba;" horiz-adv-x="909" d="M51 623q0 63 82 63h641q84 0 84 -63q0 -61 -80 -62h-624q-4 0 -12.5 -1t-12.5 -1q-31 0 -49.5 13.5t-23.5 26t-5 24.5zM61 1149q0 166 112 293t282 127q168 0 280.5 -127t112.5 -293q0 -164 -113.5 -284t-279.5 -120q-160 0 -277 116t-117 288zM223 1167 q0 -133 63.5 -211.5t170.5 -78.5q86 0 157.5 68.5t71.5 221.5q0 129 -65.5 203t-165.5 74q-88 0 -160 -67t-72 -210z" />
<glyph unicode="&#xbb;" horiz-adv-x="1366" d="M205 0l440 451l-440 448h133l459 -450l-459 -449h-133zM545 0l442 451l-442 448h133l459 -450l-459 -449h-133z" />
<glyph unicode="&#xbc;" horiz-adv-x="909" d="M16 573q10 37 56 37h755q51 0 62 -30q2 -25 -9.5 -38.5t-45.5 -13.5h-760q-18 0 -30.5 3.5t-18 10.5t-7.5 11t-2 12v8zM55 -96l396 542h198v-542h203v-127h-203v-176h-164v176h-430v127zM141 1376v121q244 0 375 84h41v-770h209v-119h-598v119h225v594q-92 -27 -252 -29z M225 -96h271v465q-14 -76 -58.5 -151.5t-212.5 -313.5z" />
<glyph unicode="&#xbd;" horiz-adv-x="909" d="M16 573q10 37 56 37h755q51 0 62 -30q2 -25 -9.5 -38.5t-45.5 -13.5h-760q-18 0 -30.5 3.5t-18 10.5t-7.5 11t-2 12v8zM84 344q76 80 153.5 114t186.5 34h2q168 0 273.5 -78t105.5 -205q0 -49 -17.5 -87t-55.5 -71t-69.5 -53.5t-92.5 -53.5l-91 -53l-227 -157h553v-133 h-705v120l232 170q190 121 235 164q68 66 68 150q0 86 -73 126t-165 40q-94 0 -144 -39t-89 -107zM141 1376v121q244 0 375 84h41v-770h209v-119h-598v119h225v594q-92 -27 -252 -29z" />
<glyph unicode="&#xbe;" horiz-adv-x="909" d="M16 573q10 37 56 37h755q51 0 62 -30q2 -25 -9.5 -38.5t-45.5 -13.5h-760q-18 0 -30.5 3.5t-18 10.5t-7.5 11t-2 12v8zM55 -96l396 542h198v-542h203v-127h-203v-176h-164v176h-430v127zM84 696l18 127q205 -51 336 -51q111 0 156 46t45 100q0 47 -23.5 79.5t-61.5 46 t-65.5 17.5t-54.5 4h-94v125q6 0 28.5 2t33 2t31 3t33.5 7t30.5 12.5t31.5 18.5q68 49 68 117q0 41 -34 74.5t-113 33.5q-141 0 -269 -100l-67 115q156 106 336 106q133 0 225 -66.5t92 -162.5q0 -66 -39 -122t-76 -79l-39 -25q209 -78 209 -211q0 -92 -95 -181t-286 -89 q-163 0 -356 51zM225 -96h271v465q-14 -76 -58.5 -151.5t-212.5 -313.5z" />
<glyph unicode="&#xbf;" horiz-adv-x="966" d="M113 -88q0 43 6 80t14 60.5t24.5 49t25.5 35.5l29 31q19 20 24 27q150 176 149 440v88h137v-61q0 -143 -30.5 -263t-62.5 -175.5t-77 -116t-49 -68.5q-31 -51 -31 -135q0 -199 185 -199q180 0 348 119l47 -131q-184 -113 -395 -113q-186 0 -265 98.5t-79 233.5zM369 909 v172h172v-172h-172z" />
<glyph unicode="&#xc0;" horiz-adv-x="1366" d="M389 1741h203q14 0 35.5 -8.5t54.5 -26.5l64 -37l89 -52l103 -61h-160q-25 0 -164 70zM55 0l535 1421h182l533 -1421h-189l-158 418h-593l-156 -418h-154zM408 532h507q-244 682 -253 746q-14 -66 -71 -230l-117 -330q-60 -166 -66 -186z" />
<glyph unicode="&#xc1;" horiz-adv-x="1366" d="M424 1556q305 176 317 181q10 4 29 4h201l-324 -162l-45 -20l-31 -3h-147zM55 0l535 1421h182l533 -1421h-189l-158 418h-593l-156 -418h-154zM408 532h507q-244 682 -253 746q-14 -66 -71 -230l-117 -330q-60 -166 -66 -186z" />
<glyph unicode="&#xc2;" horiz-adv-x="1366" d="M348 1489l254 354h156l227 -354h-127l-192 250l-191 -250h-127zM55 0l535 1421h182l533 -1421h-189l-158 418h-593l-156 -418h-154zM408 532h507q-244 682 -253 746q-14 -66 -71 -230l-117 -330q-60 -166 -66 -186z" />
<glyph unicode="&#xc3;" horiz-adv-x="1366" d="M340 1489q2 150 55.5 241t141.5 91q47 0 83.5 -32t59 -70t58.5 -69.5t79 -31.5q16 0 27 2q18 12 26.5 21.5t16.5 54.5t8 125h127q-2 -174 -62.5 -253t-136.5 -79q-45 0 -83 31.5t-61.5 70.5t-59 71t-76.5 32q-47 0 -62.5 -53.5t-15.5 -151.5h-125zM55 0l535 1421h182 l533 -1421h-189l-158 418h-593l-156 -418h-154zM408 532h507q-244 682 -253 746q-14 -66 -71 -230l-117 -330q-60 -166 -66 -186z" />
<glyph unicode="&#xc4;" horiz-adv-x="1366" d="M389 1556v183h184v-183h-184zM788 1556v183h185v-183h-185zM55 0l535 1421h182l533 -1421h-189l-158 418h-593l-156 -418h-154zM408 532h507q-244 682 -253 746q-14 -66 -71 -230l-117 -330q-60 -166 -66 -186z" />
<glyph unicode="&#xc5;" horiz-adv-x="1366" d="M55 0l500 1329q-117 94 -117 230q0 104 65.5 182t162.5 78q98 0 162.5 -78t64.5 -185q0 -39 -9.5 -74.5t-22.5 -59t-27.5 -41t-22.5 -25.5l-10 -10l504 -1346h-189l-158 418h-593l-156 -418h-154zM408 532h507q-244 682 -253 746q-14 -66 -71 -230l-117 -330 q-60 -166 -66 -186zM553 1559q0 -76 34 -107t79 -31t79.5 31t34.5 104q0 76 -34.5 107t-79.5 31q-43 0 -78 -30.5t-35 -104.5z" />
<glyph unicode="&#xc6;" horiz-adv-x="1763" d="M55 0l582 1421h1010v-135h-97l-47 2h-420l-45 2v-487h553v-127h-553v-533h133l50 2h331l43 2h80v-147h-819v455h-461l-186 -455h-154zM444 569h412v721h-119z" />
<glyph unicode="&#xc7;" horiz-adv-x="1308" d="M135 711q0 139 46 273t130 242.5t215 175t289 66.5q174 0 367 -71l-31 -170q-92 57 -166 82.5t-182 25.5q-205 0 -344.5 -182t-139.5 -442q0 -256 137.5 -440.5t352.5 -184.5q98 0 175 21.5t104.5 38t103.5 65.5l12 -143q-111 -66 -191.5 -89.5t-205.5 -23.5 q-293 0 -482.5 225.5t-189.5 530.5zM582 -393l151 346h125l-133 -346h-143z" />
<glyph unicode="&#xc8;" horiz-adv-x="1222" d="M291 1743h201q14 0 34.5 -8.5t55 -26.5t65.5 -37l89 -53l104 -62h-158q-23 0 -154 66zM193 0v1415h915v-135l-731 4v-485h676v-125h-676v-531l760 4v-147h-944z" />
<glyph unicode="&#xc9;" horiz-adv-x="1222" d="M410 1556l86 50l69 41l53 31l42 24q15 8 28.5 16t22 11.5t14.5 6.5t12 4t9 1h12h200l-323 -162l-45 -20l-31 -3h-149zM193 0v1415h915v-135l-731 4v-485h676v-125h-676v-531l760 4v-147h-944z" />
<glyph unicode="&#xca;" horiz-adv-x="1222" d="M264 1489l256 354h125l256 -354h-125l-194 250l-193 -250h-125zM193 0v1415h915v-135l-731 4v-485h676v-125h-676v-531l760 4v-147h-944z" />
<glyph unicode="&#xcb;" horiz-adv-x="1222" d="M690 1556v183h184v-183h-184zM293 1556v183h184v-183h-184zM193 0v1415h915v-135l-731 4v-485h676v-125h-676v-531l760 4v-147h-944z" />
<glyph unicode="&#xcc;" horiz-adv-x="569" d="M-33 1741h201q14 0 34.5 -8.5t54.5 -25.5t65 -37l88 -53l104 -61h-149h-7l-4 -2q-6 0 -13 2.5t-21.5 8.5t-30.5 14l-48 24l-65 32l-91 46zM195 0v1421h184v-1421h-184z" />
<glyph unicode="&#xcd;" horiz-adv-x="569" d="M111 1556q305 176 317 181q10 4 29 4h202l-323 -162l-45 -20l-31 -3h-149zM193 0v1421h184v-1421h-184z" />
<glyph unicode="&#xce;" horiz-adv-x="569" d="M-33 1489l256 354h125l256 -354h-125l-194 250l-191 -250h-127zM195 0v1421h184v-1421h-184z" />
<glyph unicode="&#xcf;" horiz-adv-x="569" d="M391 1556v183h184v-183h-184zM193 0v1421h184v-1421h-184zM-6 1556v183h184v-183h-184z" />
<glyph unicode="&#xd0;" horiz-adv-x="1478" d="M0 637v121h195v663h503q74 0 111 -4q231 -31 393 -233.5t162 -483.5q0 -213 -98.5 -379.5t-255.5 -252.5q-131 -68 -305 -68h-510v637h-195zM373 115h295q258 0 399 188q121 158 121 395q0 178 -63.5 312.5t-170.5 210.5q-117 86 -288 86h-291l-2 -76v-473h366v-121h-366 v-522z" />
<glyph unicode="&#xd1;" horiz-adv-x="1449" d="M381 1489q2 150 55 240t144 90q45 0 82.5 -32t59 -69t57.5 -68.5t79 -31.5q18 0 29 2q18 12 26.5 21.5t16.5 54.5t8 125h127q-2 -152 -56.5 -242t-142.5 -90q-45 0 -81.5 29.5t-59.5 66.5t-57.5 70t-71.5 37q-14 4 -37 -4l-14 -11q-14 -16 -20.5 -26.5t-11.5 -50 t-5 -111.5h-127zM195 0v1421h256l561 -1114l80 -164v1278h159v-1421h-256l-561 1114l-80 164v-1278h-159z" />
<glyph unicode="&#xd2;" horiz-adv-x="1507" d="M461 1743h201q14 0 34.5 -8.5t55 -26.5t65.5 -37l89 -53l104 -62h-158q-23 0 -154 66zM113 707q0 317 189.5 538t451.5 221q258 0 447.5 -221t189.5 -538q0 -311 -185.5 -531.5t-453.5 -220.5q-256 0 -447.5 216.5t-191.5 535.5zM297 735q0 -266 128 -456.5t327 -190.5 q195 0 325.5 187.5t130.5 459.5q0 268 -135 434t-321 166q-193 0 -324 -170t-131 -430z" />
<glyph unicode="&#xd3;" horiz-adv-x="1507" d="M496 1556q305 176 317 181q10 4 29 4h202l-325 -162l-45 -20l-29 -3h-149zM113 707q0 317 189.5 538t451.5 221q258 0 447.5 -221t189.5 -538q0 -311 -185.5 -531.5t-453.5 -220.5q-256 0 -447.5 216.5t-191.5 535.5zM297 735q0 -266 128 -456.5t327 -190.5 q195 0 325.5 187.5t130.5 459.5q0 268 -135 434t-321 166q-193 0 -324 -170t-131 -430z" />
<glyph unicode="&#xd4;" horiz-adv-x="1507" d="M434 1489l254 354h127l256 -354h-125l-194 250l-193 -250h-125zM113 707q0 317 189.5 538t451.5 221q258 0 447.5 -221t189.5 -538q0 -311 -185.5 -531.5t-453.5 -220.5q-256 0 -447.5 216.5t-191.5 535.5zM297 735q0 -266 128 -456.5t327 -190.5q195 0 325.5 187.5 t130.5 459.5q0 268 -135 434t-321 166q-193 0 -324 -170t-131 -430z" />
<glyph unicode="&#xd5;" horiz-adv-x="1507" d="M410 1489q12 219 102 293q39 39 94.5 39t106.5 -52q4 -4 38.5 -51t67.5 -75.5t68 -28.5q23 0 28 6q33 23 42.5 57.5t11.5 120.5v23h125q-8 -217 -101 -295q-41 -37 -96 -37t-104 49q-6 6 -43 55t-68 75t-64 26q-10 0 -14 -2l-16 -4l-15 -9q-23 -27 -28.5 -57.5 t-7.5 -132.5h-127zM113 707q0 317 189.5 538t451.5 221q258 0 447.5 -221t189.5 -538q0 -311 -185.5 -531.5t-453.5 -220.5q-256 0 -447.5 216.5t-191.5 535.5zM297 735q0 -266 128 -456.5t327 -190.5q195 0 325.5 187.5t130.5 459.5q0 268 -135 434t-321 166 q-193 0 -324 -170t-131 -430z" />
<glyph unicode="&#xd6;" horiz-adv-x="1507" d="M860 1556v183h184v-183h-184zM461 1556v183h184v-183h-184zM113 707q0 317 189.5 538t451.5 221q258 0 447.5 -221t189.5 -538q0 -311 -185.5 -531.5t-453.5 -220.5q-256 0 -447.5 216.5t-191.5 535.5zM297 735q0 -266 128 -456.5t327 -190.5q195 0 325.5 187.5 t130.5 459.5q0 268 -135 434t-321 166q-193 0 -324 -170t-131 -430z" />
<glyph unicode="&#xd7;" horiz-adv-x="1593" d="M303 57q0 10 6 20.5t12 15.5l17 18l14 14l385 387l-387 387q-29 31 -47 57v13q0 12 11.5 23.5t27.5 11.5q20 0 61 -41l394 -394l393 396q4 4 14 13l14.5 13t13.5 8.5t17 4.5q20 0 29.5 -13.5t9.5 -23.5q0 -2 -1 -5.5t-1 -7.5q-8 -18 -45 -55l-387 -387l387 -387 q20 -20 27.5 -28.5t9.5 -10.5t3 -7t5 -11l2 -13q0 -14 -11 -24.5t-28 -10.5q-23 0 -59 41l-395 394l-410 -412q-31 -25 -45 -25q-12 0 -24.5 12.5t-12.5 26.5z" />
<glyph unicode="&#xd8;" horiz-adv-x="1593" d="M113 707q0 311 198.5 535t483.5 224q160 0 313 -84l98 172h2l113 -65l-107 -184q117 -98 190 -256t73 -342q0 -307 -198 -529.5t-484 -222.5q-160 0 -314 84l-98 -172l-113 65l105 183q-129 111 -195.5 267.5t-66.5 324.5zM289 705q0 -287 157 -465l594 1028 q-121 74 -245 73q-205 0 -355.5 -170.5t-150.5 -465.5zM549 154q133 -74 248 -74q88 0 174 38t161.5 110.5t121.5 197.5t46 283q0 279 -157 471h-2z" />
<glyph unicode="&#xd9;" horiz-adv-x="1406" d="M412 1743h200q14 0 35 -8.5t55.5 -26.5t65.5 -37l89 -53l104 -62h-158q-23 0 -154 66zM193 526v895h184v-850q0 -141 4 -168q14 -135 100 -234t228 -99q129 0 230 93t114 271v987h161v-876q0 -2 1.5 -21.5t0 -34t-2.5 -42t-5 -50t-11 -53.5t-19.5 -59.5l-27.5 -60 t-37.5 -62.5t-51.5 -60q-147 -147 -352 -147q-197 0 -341.5 129t-170.5 317q-4 43 -4 125z" />
<glyph unicode="&#xda;" horiz-adv-x="1406" d="M530 1556l86 50l70 41l53 31l42 24q15 8 28.5 16t22 11.5t14.5 6.5t12 4t9 1h12h200l-323 -162l-45 -20l-31 -3h-150zM193 526v895h184v-850q0 -141 4 -168q14 -135 100 -234t228 -99q129 0 230 93t114 271v987h161v-876q0 -2 1.5 -21.5t0 -34t-2.5 -42t-5 -50t-11 -53.5 t-19.5 -59.5l-27.5 -60t-37.5 -62.5t-51.5 -60q-147 -147 -352 -147q-197 0 -341.5 129t-170.5 317q-4 43 -4 125z" />
<glyph unicode="&#xdb;" horiz-adv-x="1406" d="M389 1489l256 354h117l266 -354h-127l-192 250l-193 -250h-127zM193 526v895h184v-850q0 -141 4 -168q14 -135 100 -234t228 -99q129 0 230 93t114 271v987h161v-876q0 -2 1.5 -21.5t0 -34t-2.5 -42t-5 -50t-11 -53.5t-19.5 -59.5l-27.5 -60t-37.5 -62.5t-51.5 -60 q-147 -147 -352 -147q-197 0 -341.5 129t-170.5 317q-4 43 -4 125z" />
<glyph unicode="&#xdc;" horiz-adv-x="1406" d="M412 1556v183h184v-183h-184zM811 1556v183h184v-183h-184zM193 526v895h184v-850q0 -141 4 -168q14 -135 100 -234t228 -99q129 0 230 93t114 271v987h161v-876q0 -2 1.5 -21.5t0 -34t-2.5 -42t-5 -50t-11 -53.5t-19.5 -59.5l-27.5 -60t-37.5 -62.5t-51.5 -60 q-147 -147 -352 -147q-197 0 -341.5 129t-170.5 317q-4 43 -4 125z" />
<glyph unicode="&#xdd;" horiz-adv-x="1366" d="M508 1556l86 50l70 41l53 31l42 24q15 8 28.5 16t21.5 11.5t14 6.5t12.5 4t9.5 1h11h201l-324 -162l-45 -20l-31 -3h-149zM4 1421h215l301 -436q164 -246 178 -272l44 70l75 114l91 135l96 140l85 123l62 89l25 37h180l-586 -852v-569h-178v569z" />
<glyph unicode="&#xde;" horiz-adv-x="1193" d="M197 0v1421h172v-260h249q121 0 214.5 -39t144.5 -100t75.5 -127t24.5 -129q0 -150 -115.5 -273.5t-330.5 -123.5h-262v-369h-172zM369 483h209q166 0 249.5 89.5t83.5 191.5q0 104 -90 193.5t-284 89.5h-166l-2 -78v-486z" />
<glyph unicode="&#xdf;" horiz-adv-x="983" d="M166 0v1155q0 98 29.5 170t82 107.5t109.5 52t127 16.5q150 0 252 -76.5t102 -259.5q0 -35 -3 -68.5t-16 -82.5t-34.5 -87t-64.5 -68t-101 -36q-39 -4 -54 -29.5t-15 -107.5q0 -57 9 -84t20.5 -33t51 -13t72.5 -17q68 -25 124 -95.5t56 -183.5q0 -129 -68.5 -206 t-191.5 -77t-219 93l25 139q86 -102 190 -103q66 0 92.5 43.5t26.5 96.5q0 100 -74 135q-10 4 -72.5 19.5t-101.5 50.5q-86 80 -86 227q0 111 47 181.5t140 82.5q4 0 11 1t11 1t10 1t9.5 3l8.5 5t8 7.5t7 11.5t6 15q16 53 17 168q0 106 -41 163.5t-150 57.5q-57 0 -98 -18.5 t-59.5 -41t-28.5 -61t-11.5 -56t-1.5 -50.5v-1149h-153z" />
<glyph unicode="&#xe0;" horiz-adv-x="983" d="M313 1311h160l272 -267h-124zM90 231q0 76 57.5 132.5t150.5 84t182 41t179 13.5v69q-4 127 -53 189q-51 61 -129 61q-154 0 -307 -104l-12 137q158 90 325 90q139 0 232.5 -94t103.5 -225v-625h-155v72q-135 -94 -340 -95q-117 0 -175.5 83t-58.5 171zM240 233 q0 -57 54 -93t136 -36q90 0 159.5 37t69.5 125v129q-66 0 -130 -8t-133.5 -24.5t-112.5 -50.5t-43 -79z" />
<glyph unicode="&#xe1;" horiz-adv-x="983" d="M279 1044l272 267h160l-305 -267h-127zM90 231q0 76 57.5 132.5t150.5 84t182 41t179 13.5v69q-4 127 -53 189q-51 61 -129 61q-154 0 -307 -104l-12 137q158 90 325 90q139 0 232.5 -94t103.5 -225v-625h-155v72q-135 -94 -340 -95q-117 0 -175.5 83t-58.5 171zM240 233 q0 -57 54 -93t136 -36q90 0 159.5 37t69.5 125v129q-66 0 -130 -8t-133.5 -24.5t-112.5 -50.5t-43 -79z" />
<glyph unicode="&#xe2;" horiz-adv-x="983" d="M170 1042l256 289h172l209 -289h-125l-193 203l-194 -203h-125zM90 231q0 76 57.5 132.5t150.5 84t182 41t179 13.5v69q-4 127 -53 189q-51 61 -129 61q-154 0 -307 -104l-12 137q158 90 325 90q139 0 232.5 -94t103.5 -225v-625h-155v72q-135 -94 -340 -95 q-117 0 -175.5 83t-58.5 171zM240 233q0 -57 54 -93t136 -36q90 0 159.5 37t69.5 125v129q-66 0 -130 -8t-133.5 -24.5t-112.5 -50.5t-43 -79z" />
<glyph unicode="&#xe3;" horiz-adv-x="983" d="M178 1128q2 100 61.5 162t139.5 62q55 0 143 -49.5t129 -49.5q39 0 60.5 29t23.5 72h125q-2 -98 -61.5 -162t-139.5 -64q-53 0 -141 49.5t-131 49.5q-74 0 -84 -99h-125zM90 231q0 76 57.5 132.5t150.5 84t182 41t179 13.5v69q-4 127 -53 189q-51 61 -129 61 q-154 0 -307 -104l-12 137q158 90 325 90q139 0 232.5 -94t103.5 -225v-625h-155v72q-135 -94 -340 -95q-117 0 -175.5 83t-58.5 171zM240 233q0 -57 54 -93t136 -36q90 0 159.5 37t69.5 125v129q-66 0 -130 -8t-133.5 -24.5t-112.5 -50.5t-43 -79z" />
<glyph unicode="&#xe4;" horiz-adv-x="983" d="M621 1169v183h184v-183h-184zM221 1169v183h185v-183h-185zM90 231q0 76 57.5 132.5t150.5 84t182 41t179 13.5v69q-4 127 -53 189q-51 61 -129 61q-154 0 -307 -104l-12 137q158 90 325 90q139 0 232.5 -94t103.5 -225v-625h-155v72q-135 -94 -340 -95q-117 0 -175.5 83 t-58.5 171zM240 233q0 -57 54 -93t136 -36q90 0 159.5 37t69.5 125v129q-66 0 -130 -8t-133.5 -24.5t-112.5 -50.5t-43 -79z" />
<glyph unicode="&#xe5;" horiz-adv-x="983" d="M260 1143q0 70 67.5 118t161.5 48q90 0 159 -48.5t69 -119.5q0 -70 -66.5 -118t-163.5 -48q-90 0 -158.5 48t-68.5 120zM375 1141q0 -37 25.5 -68t87 -31t88 31t26.5 70q0 37 -25.5 67.5t-87.5 30.5q-53 0 -83.5 -26.5t-30.5 -73.5zM90 231q0 76 57.5 132.5t150.5 84 t182 41t179 13.5v69q-4 127 -53 189q-51 61 -129 61q-154 0 -307 -104l-12 137q158 90 325 90q139 0 232.5 -94t103.5 -225v-625h-155v72q-135 -94 -340 -95q-117 0 -175.5 83t-58.5 171zM240 233q0 -57 54 -93t136 -36q90 0 159.5 37t69.5 125v129q-66 0 -130 -8 t-133.5 -24.5t-112.5 -50.5t-43 -79z" />
<glyph unicode="&#xe6;" horiz-adv-x="1478" d="M94 233q0 88 79 150.5t203 90.5t281 32v65l-2 54q-6 84 -55 140t-123 56q-72 0 -135 -18.5t-95 -35.5t-79 -50l-12 137q162 90 323 90q57 0 107.5 -16.5t82 -40t54 -46t35.5 -38.5l10 -19q125 160 311 160q57 0 110.5 -20.5t109 -69.5t88 -152.5t32.5 -250.5h-602 q0 -2 1 -15.5t2 -23t4 -27.5t7 -32l11 -34q6 -20 14 -36.5t20.5 -37t27 -36.5t32.5 -33.5t41 -32.5q68 -39 137 -39q147 0 283 113l12 -135q-143 -104 -297 -105q-195 0 -336 158q-109 -158 -450 -158q-121 0 -176.5 85t-55.5 171zM244 236q0 -49 47 -90.5t141 -41.5 q92 0 164 36t72 118q0 84 -9 133q-55 0 -116.5 -6t-134 -21.5t-118.5 -49t-46 -78.5zM829 563h469q-41 254 -217 254q-82 0 -154.5 -67.5t-97.5 -186.5z" />
<glyph unicode="&#xe7;" horiz-adv-x="909" d="M297 -393l152 346h124l-133 -346h-143zM72 457q0 190 122.5 338.5t327.5 148.5q96 0 159.5 -18.5t158.5 -71.5l-25 -135q-6 4 -28 17l-29 19q-8 5 -27.5 15t-32.5 14l-33 12q-22 7 -41.5 10t-47 5t-56.5 2q-139 0 -214 -105.5t-75 -250.5q0 -152 80 -250t207 -98 q160 0 322 110l10 -137q-158 -104 -334 -105q-188 0 -316 140.5t-128 339.5z" />
<glyph unicode="&#xe8;" horiz-adv-x="909" d="M311 1311h160l272 -267h-125zM70 463q0 195 119.5 338t293.5 143q61 0 116.5 -19.5t112 -64.5t93.5 -135t43 -215v-59h-635q6 -147 91 -247t212 -100q158 0 311 113l13 -135q-156 -104 -324 -105q-195 0 -320.5 144.5t-125.5 341.5zM223 563h508q-12 80 -43 135.5t-72 79 t-72.5 31.5t-60.5 8q-104 0 -172 -80t-88 -174z" />
<glyph unicode="&#xe9;" horiz-adv-x="909" d="M221 1044l273 267h159l-305 -267h-127zM70 463q0 195 119.5 338t293.5 143q61 0 116.5 -19.5t112 -64.5t93.5 -135t43 -215v-59h-635q6 -147 91 -247t212 -100q158 0 311 113l13 -135q-156 -104 -324 -105q-195 0 -320.5 144.5t-125.5 341.5zM223 563h508 q-12 80 -43 135.5t-72 79t-72.5 31.5t-60.5 8q-104 0 -172 -80t-88 -174z" />
<glyph unicode="&#xea;" horiz-adv-x="909" d="M135 1042l254 289h129l254 -289h-125l-194 203l-193 -203h-125zM70 463q0 195 119.5 338t293.5 143q61 0 116.5 -19.5t112 -64.5t93.5 -135t43 -215v-59h-635q6 -147 91 -247t212 -100q158 0 311 113l13 -135q-156 -104 -324 -105q-195 0 -320.5 144.5t-125.5 341.5z M223 563h508q-12 80 -43 135.5t-72 79t-72.5 31.5t-60.5 8q-104 0 -172 -80t-88 -174z" />
<glyph unicode="&#xeb;" horiz-adv-x="909" d="M561 1169v183h184v-183h-184zM162 1169v183h184v-183h-184zM70 463q0 195 119.5 338t293.5 143q61 0 116.5 -19.5t112 -64.5t93.5 -135t43 -215v-59h-635q6 -147 91 -247t212 -100q158 0 311 113l13 -135q-156 -104 -324 -105q-195 0 -320.5 144.5t-125.5 341.5zM223 563 h508q-12 80 -43 135.5t-72 79t-72.5 31.5t-60.5 8q-104 0 -172 -80t-88 -174z" />
<glyph unicode="&#xf0;" d="M61 451q0 197 129 345t320 148q96 0 207 -55q-51 102 -99.5 164.5t-130.5 142.5h-2l-194 -113l-70 125l141 82q-125 68 -221 96l109 93q139 -41 242 -115l200 115l72 -123l-150 -86q145 -129 246 -323.5t101 -436.5v-27q0 -176 -76 -297q-63 -98 -162.5 -153.5 t-212.5 -55.5q-180 0 -314.5 135.5t-134.5 338.5zM221 473q0 -164 81 -264t208 -100q129 0 209 100t80 253.5t-80 254t-209 100.5q-113 0 -201 -86t-88 -258z" />
<glyph unicode="&#xf1;" horiz-adv-x="1058" d="M186 1128q2 100 61.5 162t139.5 62q55 0 143 -49.5t129 -49.5q39 0 60.5 29t23.5 72h125q-2 -98 -61 -162t-139 -64q-53 0 -141.5 49.5t-131.5 49.5q-74 0 -84 -99h-125zM164 0v922h149v-144q119 154 299 154q76 0 130.5 -22.5t83 -55.5t44 -83t19.5 -89t4 -92v-590h-160 v575q0 111 -40 171.5t-161 60.5q-109 0 -158.5 -92t-49.5 -223v-492h-160z" />
<glyph unicode="&#xf2;" d="M311 1311h160l272 -267h-125zM61 453q0 188 126 339.5t323 151.5q184 0 317.5 -144.5t133.5 -348.5q0 -203 -135.5 -338.5t-315.5 -135.5t-314.5 135.5t-134.5 340.5zM221 473q0 -168 83 -266t206 -98q115 0 202 93t87 271q0 158 -82 251t-207 93q-113 0 -201 -86 t-88 -258z" />
<glyph unicode="&#xf3;" d="M391 1044l273 267h159l-305 -267h-127zM61 453q0 188 126 339.5t323 151.5q184 0 317.5 -144.5t133.5 -348.5q0 -203 -135.5 -338.5t-315.5 -135.5t-314.5 135.5t-134.5 340.5zM221 473q0 -168 83 -266t206 -98q115 0 202 93t87 271q0 158 -82 251t-207 93 q-113 0 -201 -86t-88 -258z" />
<glyph unicode="&#xf4;" d="M193 1042l256 289h124l256 -289h-124l-195 203l-193 -203h-124zM61 453q0 188 126 339.5t323 151.5q184 0 317.5 -144.5t133.5 -348.5q0 -203 -135.5 -338.5t-315.5 -135.5t-314.5 135.5t-134.5 340.5zM221 473q0 -168 83 -266t206 -98q115 0 202 93t87 271 q0 158 -82 251t-207 93q-113 0 -201 -86t-88 -258z" />
<glyph unicode="&#xf5;" d="M170 1128q2 100 61.5 162t139.5 62q55 0 143 -49.5t129 -49.5q39 0 60.5 29t23.5 72h125q-2 -98 -61.5 -162t-139.5 -64q-53 0 -141 49.5t-131 49.5q-74 0 -84 -99h-125zM61 453q0 188 126 339.5t323 151.5q184 0 317.5 -144.5t133.5 -348.5q0 -203 -135.5 -338.5 t-315.5 -135.5t-314.5 135.5t-134.5 340.5zM221 473q0 -168 83 -266t206 -98q115 0 202 93t87 271q0 158 -82 251t-207 93q-113 0 -201 -86t-88 -258z" />
<glyph unicode="&#xf6;" d="M219 1167v183h184v-183h-184zM618 1169v183h185v-183h-185zM61 453q0 188 126 339.5t323 151.5q184 0 317.5 -144.5t133.5 -348.5q0 -203 -135.5 -338.5t-315.5 -135.5t-314.5 135.5t-134.5 340.5zM221 473q0 -168 83 -266t206 -98q115 0 202 93t87 271q0 158 -82 251 t-207 93q-113 0 -201 -86t-88 -258z" />
<glyph unicode="&#xf7;" horiz-adv-x="1593" d="M115 514q0 39 59 39h1227h25q7 0 21.5 -4t21 -13.5t6.5 -23.5q0 -41 -58 -41h-1247q-55 0 -55 43zM668 -12v137q0 57 55 57h133q43 0 54.5 -14t11.5 -47v-101q-2 -68 -14.5 -79t-45.5 -11h-133q-37 0 -49 15.5t-12 42.5zM668 899v137q0 57 55 58h133q23 0 34 -2 t21.5 -15.5t10.5 -40.5v-104q-2 -68 -14.5 -78t-43.5 -12h-135q-31 0 -46 10t-15 47z" />
<glyph unicode="&#xf8;" d="M63 453q0 197 129.5 344t317.5 147q82 0 180 -43l133 238h2l109 -62l-139 -248q162 -162 161 -376q0 -197 -130 -336.5t-316 -139.5q-82 0 -176 39l-137 -245l-111 61l141 252q-164 142 -164 369zM217 451q0 -37 5 -71t10.5 -55.5t15.5 -44t17 -32.5l18 -26 q10 -15 12 -19l332 588q-61 27 -117 26q-115 0 -204 -93t-89 -273zM397 127q55 -23 113 -23q119 0 206 88.5t87 256.5q0 152 -76 260h-2z" />
<glyph unicode="&#xf9;" horiz-adv-x="1058" d="M301 1311h160l272 -267h-125zM164 250v661h160v-686q2 -72 33.5 -102.5t129.5 -30.5q106 0 171 56.5t73 130.5q2 20 2 59v573h160v-911h-156v98q-137 -121 -358 -121q-61 0 -104.5 19.5t-65 44.5t-32.5 69t-12 69.5t-1 70.5z" />
<glyph unicode="&#xfa;" horiz-adv-x="1058" d="M295 1044l272 267h160l-305 -267h-127zM164 250v661h160v-686q2 -72 33.5 -102.5t129.5 -30.5q106 0 171 56.5t73 130.5q2 20 2 59v573h160v-911h-156v98q-137 -121 -358 -121q-61 0 -104.5 19.5t-65 44.5t-32.5 69t-12 69.5t-1 70.5z" />
<glyph unicode="&#xfb;" horiz-adv-x="1058" d="M211 1042l256 289h125l256 -289h-125l-195 203l-192 -203h-125zM164 250v661h160v-686q2 -72 33.5 -102.5t129.5 -30.5q106 0 171 56.5t73 130.5q2 20 2 59v573h160v-911h-156v98q-137 -121 -358 -121q-61 0 -104.5 19.5t-65 44.5t-32.5 69t-12 69.5t-1 70.5z" />
<glyph unicode="&#xfc;" horiz-adv-x="1058" d="M637 1169v183h184v-183h-184zM238 1169v183h184v-183h-184zM164 250v661h160v-686q2 -72 33.5 -102.5t129.5 -30.5q106 0 171 56.5t73 130.5q2 20 2 59v573h160v-911h-156v98q-137 -121 -358 -121q-61 0 -104.5 19.5t-65 44.5t-32.5 69t-12 69.5t-1 70.5z" />
<glyph unicode="&#xfd;" horiz-adv-x="944" d="M350 1044l273 267h159l-305 -267h-127zM29 911h161l147 -342q58 -139 86 -220t38 -114.5t17 -76.5l9 -56q2 82 66.5 272.5t134.5 362.5l72 174h153l-444 -1095q-59 -137 -110.5 -186.5t-125.5 -49.5q-84 0 -149 17l-10 133q104 -35 149 -35q55 0 90 51t101 223q8 18 8 33 q0 8 -10 35z" />
<glyph unicode="&#xfe;" horiz-adv-x="1058" d="M166 -399v1878h153v-668q152 121 340 121q139 0 231.5 -141.5t92.5 -331.5q0 -195 -107.5 -338.5t-273.5 -143.5q-147 0 -276 117v-493h-160zM326 258q0 -45 58 -100.5t140 -55.5q115 0 206 99.5t91 253.5q0 139 -77.5 242.5t-200.5 103.5q-29 0 -56.5 -6.5t-49 -16.5 t-40 -23.5t-31 -25.5t-21.5 -22.5t-13 -16.5l-6 -6v-426z" />
<glyph unicode="&#xff;" horiz-adv-x="944" d="M580 1169v183h184v-183h-184zM180 1169v183h185v-183h-185zM29 911h161l147 -342q58 -139 86 -220t38 -114.5t17 -76.5l9 -56q2 82 66.5 272.5t134.5 362.5l72 174h153l-444 -1095q-59 -137 -110.5 -186.5t-125.5 -49.5q-84 0 -149 17l-10 133q104 -35 149 -35 q55 0 90 51t101 223q8 18 8 33q0 8 -10 35z" />
<glyph unicode="&#x100;" horiz-adv-x="1366" d="M57 1610q0 41 70 41h1110q68 0 68 -41t-58 -41h-1120q-70 0 -70 41zM55 0l535 1421h182l533 -1421h-189l-158 418h-593l-156 -418h-154zM408 532h507q-244 682 -253 746q-14 -66 -71 -230l-117 -330q-60 -166 -66 -186z" />
<glyph unicode="&#x101;" horiz-adv-x="983" d="M152 1128v132h737v-132h-737zM90 231q0 76 57.5 132.5t150.5 84t182 41t179 13.5v69q-4 127 -53 189q-51 61 -129 61q-154 0 -307 -104l-12 137q158 90 325 90q139 0 232.5 -94t103.5 -225v-625h-155v72q-135 -94 -340 -95q-117 0 -175.5 83t-58.5 171zM240 233 q0 -57 54 -93t136 -36q90 0 159.5 37t69.5 125v129q-66 0 -130 -8t-133.5 -24.5t-112.5 -50.5t-43 -79z" />
<glyph unicode="&#x102;" horiz-adv-x="1366" d="M319 1821h125q6 -94 73 -144.5t149 -50.5q88 0 152.5 52.5t68.5 142.5h127q-4 -147 -107.5 -239.5t-240.5 -92.5q-139 0 -242 92.5t-105 239.5zM55 0l535 1421h182l533 -1421h-189l-158 418h-593l-156 -418h-154zM408 532h507q-244 682 -253 746q-14 -66 -71 -230 l-117 -330q-60 -166 -66 -186z" />
<glyph unicode="&#x103;" horiz-adv-x="983" d="M166 1309h125q4 -47 30.5 -80t65.5 -47.5t69.5 -19.5t57.5 -5q39 0 80 8.5t88 45t51 98.5h127q-6 -135 -109.5 -212t-238.5 -77t-238.5 78t-107.5 211zM90 231q0 76 57.5 132.5t150.5 84t182 41t179 13.5v69q-4 127 -53 189q-51 61 -129 61q-154 0 -307 -104l-12 137 q158 90 325 90q139 0 232.5 -94t103.5 -225v-625h-155v72q-135 -94 -340 -95q-117 0 -175.5 83t-58.5 171zM240 233q0 -57 54 -93t136 -36q90 0 159.5 37t69.5 125v129q-66 0 -130 -8t-133.5 -24.5t-112.5 -50.5t-43 -79z" />
<glyph unicode="&#x105;" horiz-adv-x="983" d="M90 231q0 76 57.5 132.5t150.5 84t182 41t179 13.5v69q-4 127 -53 189q-51 61 -129 61q-72 0 -136.5 -19.5t-93 -35.5t-77.5 -49l-12 137q158 90 325 90q139 0 232.5 -94t103.5 -225v-625h-10q-55 0 -130 -73.5t-75 -139.5q0 -33 25.5 -60.5t85.5 -27.5q35 0 139 29 l33 -121q-113 -51 -201 -51t-142.5 50t-54.5 132q0 154 175 262v72q-135 -94 -340 -95q-115 0 -174.5 82t-59.5 172zM240 233q0 -57 54 -93t136 -36q90 0 159.5 37t69.5 125v129q-66 0 -130 -8t-133.5 -24.5t-112.5 -50.5t-43 -79z" />
<glyph unicode="&#x106;" horiz-adv-x="1308" d="M481 1556q305 176 318 181q10 4 28 4h201l-323 -162l-46 -20l-30 -3h-148zM135 711q0 307 190.5 531t485.5 224q180 0 371 -69l-31 -170q-94 57 -168 82.5t-180 25.5q-211 0 -347.5 -186t-136.5 -438q0 -256 137.5 -440.5t352.5 -184.5q98 0 175 21.5t104.5 38 t103.5 65.5l12 -143q-111 -66 -191.5 -89.5t-205.5 -23.5q-293 0 -482.5 225.5t-189.5 530.5z" />
<glyph unicode="&#x107;" horiz-adv-x="909" d="M305 1044l273 267h159l-305 -267h-127zM72 457q0 190 122.5 338.5t327.5 148.5q96 0 159.5 -18.5t158.5 -71.5l-25 -135q-6 4 -28 17l-29 19q-8 5 -27.5 15t-32.5 14l-33 12q-22 7 -41.5 10t-47 5t-56.5 2q-139 0 -214 -105.5t-75 -250.5q0 -152 80 -250t207 -98 q160 0 322 110l10 -137q-158 -104 -334 -105q-188 0 -316 140.5t-128 339.5z" />
<glyph unicode="&#x108;" horiz-adv-x="1308" d="M457 1569l256 289h125l256 -289h-125l-195 203l-192 -203h-125zM135 711q0 307 190.5 531t485.5 224q180 0 371 -69l-31 -170q-94 57 -168 82.5t-180 25.5q-211 0 -347.5 -186t-136.5 -438q0 -256 137.5 -440.5t352.5 -184.5q98 0 175 21.5t104.5 38t103.5 65.5l12 -143 q-111 -66 -191.5 -89.5t-205.5 -23.5q-293 0 -482.5 225.5t-189.5 530.5z" />
<glyph unicode="&#x109;" horiz-adv-x="909" d="M203 1047l256 288h125l256 -288h-125l-195 202l-192 -202h-125zM72 457q0 190 122.5 338.5t327.5 148.5q96 0 159.5 -18.5t158.5 -71.5l-25 -135q-6 4 -28 17l-29 19q-8 5 -27.5 15t-32.5 14l-33 12q-22 7 -41.5 10t-47 5t-56.5 2q-139 0 -214 -105.5t-75 -250.5 q0 -152 80 -250t207 -98q160 0 322 110l10 -137q-158 -104 -334 -105q-188 0 -316 140.5t-128 339.5z" />
<glyph unicode="&#x10a;" horiz-adv-x="1308" d="M684 1569v182h184v-182h-184zM135 711q0 307 190.5 531t485.5 224q180 0 371 -69l-31 -170q-94 57 -168 82.5t-180 25.5q-211 0 -347.5 -186t-136.5 -438q0 -256 137.5 -440.5t352.5 -184.5q98 0 175 21.5t104.5 38t103.5 65.5l12 -143q-111 -66 -191.5 -89.5 t-205.5 -23.5q-293 0 -482.5 225.5t-189.5 530.5z" />
<glyph unicode="&#x10b;" horiz-adv-x="909" d="M430 1047v182h184v-182h-184zM72 457q0 190 122.5 338.5t327.5 148.5q96 0 159.5 -18.5t158.5 -71.5l-25 -135q-6 4 -28 17l-29 19q-8 5 -27.5 15t-32.5 14l-33 12q-22 7 -41.5 10t-47 5t-56.5 2q-139 0 -214 -105.5t-75 -250.5q0 -152 80 -250t207 -98q160 0 322 110 l10 -137q-158 -104 -334 -105q-188 0 -316 140.5t-128 339.5z" />
<glyph unicode="&#x10c;" horiz-adv-x="1308" d="M471 1821h125l199 -228l198 228h125l-250 -332h-147zM135 711q0 307 190.5 531t485.5 224q180 0 371 -69l-31 -170q-94 57 -168 82.5t-180 25.5q-211 0 -347.5 -186t-136.5 -438q0 -256 137.5 -440.5t352.5 -184.5q98 0 175 21.5t104.5 38t103.5 65.5l12 -143 q-111 -66 -191.5 -89.5t-205.5 -23.5q-293 0 -482.5 225.5t-189.5 530.5z" />
<glyph unicode="&#x10d;" horiz-adv-x="909" d="M178 1309h127l205 -140l203 140h71l56 -2q-252 -180 -267 -187q-10 -4 -26 -4h-74q-8 0 -17.5 3t-24.5 10.5t-27.5 15.5t-37.5 26l-48 35l-63 46zM72 457q0 190 122.5 338.5t327.5 148.5q96 0 159.5 -18.5t158.5 -71.5l-25 -135q-6 4 -28 17l-29 19q-8 5 -27.5 15 t-32.5 14l-33 12q-22 7 -41.5 10t-47 5t-56.5 2q-139 0 -214 -105.5t-75 -250.5q0 -152 80 -250t207 -98q160 0 322 110l10 -137q-158 -104 -334 -105q-188 0 -316 140.5t-128 339.5z" />
<glyph unicode="&#x10e;" horiz-adv-x="1478" d="M260 1821h125l199 -228l198 228h127l-252 -332h-145zM195 0v1421h503q207 0 353 -96q147 -98 230 -267t83 -358q0 -270 -161 -469.5t-402 -226.5q-33 -4 -99 -4h-507zM373 115h293q258 0 399 188q121 158 121 395q0 207 -72 333t-160 190q-119 86 -288 86h-293v-1192z " />
<glyph unicode="&#x10f;" horiz-adv-x="1296" d="M72 453q0 203 105.5 342t258.5 139q156 0 297 -113v658h156v-1479h-162v106q-137 -129 -303 -129q-150 0 -251 139.5t-101 336.5zM231 455q0 -182 86 -266.5t191 -84.5q80 0 149.5 53.5t69.5 129.5v379q0 27 -7 41t-36 38q-63 61 -152 62h-4q-49 0 -97 -18.5t-95 -56.5 t-76 -109.5t-29 -167.5zM1001 1223l54 170h-54v172h173v-142q-2 -20 -7.5 -36.5t-11.5 -30t-27 -51.5l-41 -82h-86z" />
<glyph unicode="&#x110;" horiz-adv-x="1478" d="M0 637v121h195v663h503q74 0 111 -4q231 -31 393 -233.5t162 -483.5q0 -213 -98.5 -379.5t-255.5 -252.5q-131 -68 -305 -68h-510v637h-195zM373 115h295q258 0 399 188q121 158 121 395q0 178 -63.5 312.5t-170.5 210.5q-117 86 -288 86h-291l-2 -76v-473h366v-121h-366 v-522z" />
<glyph unicode="&#x111;" horiz-adv-x="1058" d="M72 453q0 203 105.5 342t258.5 139q156 0 297 -113v307h-391v121h391v230h156v-230h207v-121h-207v-1128h-162v106q-137 -129 -303 -129q-150 0 -251 139.5t-101 336.5zM231 455q0 -182 86 -266.5t191 -84.5q86 0 152.5 57.5t66.5 112.5v392q0 27 -7 41t-36 38 q-63 61 -152 62h-4q-49 0 -97 -18.5t-95 -56.5t-76 -109.5t-29 -167.5z" />
<glyph unicode="&#x112;" horiz-adv-x="1222" d="M41 1610q0 41 70 41h1110q68 0 67.5 -41t-57.5 -41h-1120q-70 0 -70 41zM193 0v1415h915v-135l-731 4v-485h676v-125h-676v-531l760 4v-147h-944z" />
<glyph unicode="&#x113;" horiz-adv-x="909" d="M111 1128v132h737v-132h-737zM70 463q0 195 119.5 338t293.5 143q61 0 116.5 -19.5t112 -64.5t93.5 -135t43 -215v-59h-635q6 -147 91 -247t212 -100q158 0 311 113l13 -135q-156 -104 -324 -105q-195 0 -320.5 144.5t-125.5 341.5zM223 563h508q-12 80 -43 135.5t-72 79 t-72.5 31.5t-60.5 8q-104 0 -172 -80t-88 -174z" />
<glyph unicode="&#x114;" horiz-adv-x="1222" d="M317 1858h125q4 -47 31 -80t66 -47.5t69.5 -19.5t57.5 -5q39 0 79.5 8t88 45t51.5 99h127q-6 -135 -109.5 -212t-239 -77t-239 78t-107.5 211zM193 0v1415h915v-135l-731 4v-485h676v-125h-676v-531l760 4v-147h-944z" />
<glyph unicode="&#x115;" horiz-adv-x="909" d="M133 1335h125q4 -47 30.5 -79.5t65.5 -47t70 -19.5t57 -5q39 0 80 8t88 45t51 98h127q-6 -135 -109.5 -211.5t-238.5 -76.5t-238.5 77.5t-107.5 210.5zM70 463q0 195 119.5 338t293.5 143q61 0 116.5 -19.5t112 -64.5t93.5 -135t43 -215v-59h-635q6 -147 91 -247 t212 -100q158 0 311 113l13 -135q-156 -104 -324 -105q-195 0 -320.5 144.5t-125.5 341.5zM223 563h508q-12 80 -43 135.5t-72 79t-72.5 31.5t-60.5 8q-104 0 -172 -80t-88 -174z" />
<glyph unicode="&#x116;" horiz-adv-x="1222" d="M573 1569v182h185v-182h-185zM193 0v1415h915v-135l-731 4v-485h676v-125h-676v-531l760 4v-147h-944z" />
<glyph unicode="&#x117;" horiz-adv-x="909" d="M387 1047v182h184v-182h-184zM70 463q0 195 119.5 338t293.5 143q61 0 116.5 -19.5t112 -64.5t93.5 -135t43 -215v-59h-635q6 -147 91 -247t212 -100q158 0 311 113l13 -135q-156 -104 -324 -105q-195 0 -320.5 144.5t-125.5 341.5zM223 563h508q-12 80 -43 135.5t-72 79 t-72.5 31.5t-60.5 8q-104 0 -172 -80t-88 -174z" />
<glyph unicode="&#x118;" horiz-adv-x="1222" d="M193 0v1415h915v-135h-117l-51 2h-491l-72 2v-485h676v-125h-676v-531h174l49 2h397l45 2h95v-147h-99q-59 0 -138 -76t-79 -141q0 -84 105 -84q25 0 139 29l31 -121q-109 -51 -199 -51q-88 0 -143.5 50t-55.5 132q0 147 174 262h-679z" />
<glyph unicode="&#x119;" horiz-adv-x="909" d="M70 463q0 195 119.5 338t293.5 143q61 0 118.5 -20.5t117 -70.5t94.5 -153.5t35 -248.5h-635q6 -150 92 -249.5t211 -99.5q162 0 311 115l13 -135l-87 -51l-77 -44q-27 -15 -59.5 -42t-57.5 -60q-41 -55 -41 -102q0 -43 30 -63.5t75 -20.5q25 0 60.5 7t57.5 15l25 7 l31 -121q-109 -51 -199 -51q-88 0 -143.5 50t-55.5 132q0 127 142 242q-8 -2 -29 -3q-182 0 -312 140.5t-130 345.5zM223 563h508q-12 80 -43 135.5t-72 79t-72.5 31.5t-60.5 8q-104 0 -172 -80t-88 -174z" />
<glyph unicode="&#x11a;" horiz-adv-x="1222" d="M287 1821h125l200 -228l197 228h127l-252 -332h-145zM193 0v1415h915v-135l-731 4v-485h676v-125h-676v-531l760 4v-147h-944z" />
<glyph unicode="&#x11b;" horiz-adv-x="909" d="M152 1309h127l204 -140l203 140h72l55 -2q-252 -180 -266 -187q-10 -4 -27 -4h-74q-8 0 -17 3t-24.5 10.5t-27.5 15.5l-38 26l-47 35l-64 46zM70 463q0 195 119.5 338t293.5 143q61 0 116.5 -19.5t112 -64.5t93.5 -135t43 -215v-59h-635q6 -147 91 -247t212 -100 q158 0 311 113l13 -135q-156 -104 -324 -105q-195 0 -320.5 144.5t-125.5 341.5zM223 563h508q-12 80 -43 135.5t-72 79t-72.5 31.5t-60.5 8q-104 0 -172 -80t-88 -174z" />
<glyph unicode="&#x11c;" horiz-adv-x="1366" d="M481 1569l256 289h125l256 -289h-125l-194 203l-193 -203h-125zM135 711q0 199 84 370.5t237.5 278t344.5 106.5q213 0 409 -98l-30 -170q-96 72 -176 104.5t-199 32.5q-211 0 -348.5 -185t-137.5 -437q0 -264 140.5 -445.5t343.5 -181.5q51 0 102 6t81 14l54 16 q25 7 27 7v356h-272v127h432v-559q-213 -98 -426 -98q-281 0 -473.5 221.5t-192.5 534.5z" />
<glyph unicode="&#x11d;" d="M205 1047l256 288h125l256 -288h-125l-195 202l-192 -202h-125zM55 -145q0 133 131 211q-51 74 -51 155q0 92 60 172v2q-68 90 -68 203q0 133 92 233.5t234 100.5q100 0 200 -68l-4 4q152 63 322 64l22 -129q-61 6 -121 6q-14 0 -153 -8l-19 16q80 -104 80 -219 q0 -133 -94 -233.5t-233 -100.5q-33 0 -63 6t-51.5 15.5t-36.5 17.5t-26 16l-10 7q-23 -45 -22 -76q0 -45 26.5 -77t87.5 -32h154q72 0 122 -5t123.5 -22.5t125 -63.5t71.5 -118q10 -41 11 -75q0 -119 -133.5 -199t-321.5 -80q-190 0 -322.5 80t-132.5 197zM199 -145 q0 -53 55 -91t122.5 -53.5t129.5 -15.5q129 0 222 44t93 114q0 141 -305 141h-129l-59 -2q-59 -4 -94 -47t-35 -90zM270 598q0 -100 50.5 -157.5t134.5 -57.5q70 0 126 50t56 167q0 98 -50 156.5t-134 58.5q-70 0 -126.5 -50t-56.5 -167z" />
<glyph unicode="&#x11e;" horiz-adv-x="1366" d="M449 1821h124q6 -94 73 -144.5t149 -50.5q88 0 152.5 52.5t68.5 142.5h127q-4 -147 -107.5 -239.5t-240.5 -92.5q-139 0 -241.5 92.5t-104.5 239.5zM135 711q0 199 84 370.5t237.5 278t344.5 106.5q213 0 409 -98l-30 -170q-96 72 -176 104.5t-199 32.5 q-211 0 -348.5 -185t-137.5 -437q0 -264 140.5 -445.5t343.5 -181.5q51 0 102 6t81 14l54 16q25 7 27 7v356h-272v127h432v-559q-213 -98 -426 -98q-281 0 -473.5 221.5t-192.5 534.5z" />
<glyph unicode="&#x11f;" d="M164 1309h125q4 -47 30.5 -80t65.5 -47.5t69.5 -19.5t57.5 -5q39 0 80 8.5t88 45t51 98.5h127q-6 -135 -109.5 -212t-238.5 -77t-238.5 78t-107.5 211zM55 -145q0 133 131 211q-51 74 -51 155q0 92 60 172v2q-68 90 -68 203q0 133 92 233.5t234 100.5q100 0 200 -68l-4 4 q152 63 322 64l22 -129q-61 6 -121 6q-14 0 -153 -8l-19 16q80 -104 80 -219q0 -133 -94 -233.5t-233 -100.5q-33 0 -63 6t-51.5 15.5t-36.5 17.5t-26 16l-10 7q-23 -45 -22 -76q0 -45 26.5 -77t87.5 -32h154q72 0 122 -5t123.5 -22.5t125 -63.5t71.5 -118q10 -41 11 -75 q0 -119 -133.5 -199t-321.5 -80q-190 0 -322.5 80t-132.5 197zM199 -145q0 -53 55 -91t122.5 -53.5t129.5 -15.5q129 0 222 44t93 114q0 141 -305 141h-129l-59 -2q-59 -4 -94 -47t-35 -90zM270 598q0 -100 50.5 -157.5t134.5 -57.5q70 0 126 50t56 167q0 98 -50 156.5 t-134 58.5q-70 0 -126.5 -50t-56.5 -167z" />
<glyph unicode="&#x120;" horiz-adv-x="1366" d="M709 1569v182h184v-182h-184zM135 711q0 199 84 370.5t237.5 278t344.5 106.5q213 0 409 -98l-30 -170q-96 72 -176 104.5t-199 32.5q-211 0 -348.5 -185t-137.5 -437q0 -264 140.5 -445.5t343.5 -181.5q51 0 102 6t81 14l54 16q25 7 27 7v356h-272v127h432v-559 q-213 -98 -426 -98q-281 0 -473.5 221.5t-192.5 534.5z" />
<glyph unicode="&#x121;" d="M432 1047v182h184v-182h-184zM55 -145q0 133 131 211q-51 74 -51 155q0 92 60 172v2q-68 90 -68 203q0 133 92 233.5t234 100.5q100 0 200 -68l-4 4q152 63 322 64l22 -129q-61 6 -121 6q-14 0 -153 -8l-19 16q80 -104 80 -219q0 -133 -94 -233.5t-233 -100.5 q-33 0 -63 6t-51.5 15.5t-36.5 17.5t-26 16l-10 7q-23 -45 -22 -76q0 -45 26.5 -77t87.5 -32h154q72 0 122 -5t123.5 -22.5t125 -63.5t71.5 -118q10 -41 11 -75q0 -119 -133.5 -199t-321.5 -80q-190 0 -322.5 80t-132.5 197zM199 -145q0 -53 55 -91t122.5 -53.5t129.5 -15.5 q129 0 222 44t93 114q0 141 -305 141h-129l-59 -2q-59 -4 -94 -47t-35 -90zM270 598q0 -100 50.5 -157.5t134.5 -57.5q70 0 126 50t56 167q0 98 -50 156.5t-134 58.5q-70 0 -126.5 -50t-56.5 -167z" />
<glyph unicode="&#x124;" horiz-adv-x="1449" d="M406 1569l256 289h124l256 -289h-124l-195 203l-193 -203h-124zM193 0v1421h184v-618h696v618h184v-1421h-184v676h-696v-676h-184z" />
<glyph unicode="&#x125;" horiz-adv-x="1058" d="M209 1581l256 289h125l256 -289h-125l-195 203l-192 -203h-125zM164 0v1479h153v-693q127 145 295 146q78 0 133.5 -24.5t83 -58.5t43 -86t18.5 -88t3 -85v-590h-160v575q0 111 -40 171.5t-161 60.5q-109 0 -158.5 -92t-49.5 -223v-492h-160z" />
<glyph unicode="&#x127;" horiz-adv-x="1155" d="M33 1047v120h227v256h154v-256h291v-120h-291v-261q123 145 295 146q78 0 134 -26.5t83.5 -59.5t43 -87t17.5 -87t2 -82v-590h-160v575q0 49 -5 81t-23.5 71t-61.5 59.5t-110 20.5q-109 0 -159 -92t-50 -223v-492h-160v1047h-227z" />
<glyph unicode="&#x128;" horiz-adv-x="569" d="M-55 1649q2 109 62.5 172t137.5 63q55 0 142.5 -54t132.5 -54q76 0 82 108h125q-4 -109 -63.5 -171t-137.5 -62q-55 0 -142 54t-130 54q-78 0 -84 -110h-125zM195 0v1421h184v-1421h-184z" />
<glyph unicode="&#x129;" horiz-adv-x="489" d="M-96 1137q2 109 62.5 172t137.5 63q55 0 142.5 -54t132.5 -54q76 0 82 108h125q-4 -109 -63.5 -171t-137.5 -62q-55 0 -142 54t-130 54q-78 0 -84 -110h-125zM168 0v911h154v-911h-154z" />
<glyph unicode="&#x12a;" horiz-adv-x="569" d="M-84 1569v131h737v-131h-737zM193 0v1421h184v-1421h-184z" />
<glyph unicode="&#x12c;" horiz-adv-x="569" d="M-63 1858h124q4 -47 31 -80t66 -47.5t69.5 -19.5t57.5 -5q39 0 80 8t88 45t51 99h127q-6 -135 -109.5 -212t-239 -77t-238.5 78t-107 211zM193 0v1421h184v-1421h-184z" />
<glyph unicode="&#x130;" horiz-adv-x="569" d="M193 1593v183h184v-183h-184zM193 0v1421h184v-1421h-184z" />
<glyph unicode="&#x131;" horiz-adv-x="489" d="M166 0v911h153v-911h-153z" />
<glyph unicode="&#x134;" horiz-adv-x="966" d="M387 1569l256 289h125l256 -289h-125l-194 203l-193 -203h-125zM84 41l27 154l14 -13l28 -23q13 -11 37.5 -25.5t50 -26t61.5 -18.5t73 -7q242 0 241 240v1099h179v-1104q0 -104 -32 -179t-87 -112.5t-114.5 -54t-127.5 -16.5q-180 0 -350 86z" />
<glyph unicode="&#x139;" horiz-adv-x="1110" d="M18 1556q305 176 318 181q10 4 29 4h202l-323 -162l-45 -20l-31 -3h-150zM193 0v1421h184v-1288l645 2v-135h-829z" />
<glyph unicode="&#x13a;" horiz-adv-x="489" d="M70 1556q305 176 317 181q10 4 29 4h202l-323 -162l-45 -20l-31 -3h-149zM166 0v1479h153v-1479h-153z" />
<glyph unicode="&#x13d;" horiz-adv-x="1110" d="M684 1251l53 170h-53v172h172v-141q-2 -20 -7 -36.5t-11.5 -30l-26.5 -52.5l-41 -82h-86zM193 0v1421h184v-1288l645 2v-135h-829z" />
<glyph unicode="&#x13e;" horiz-adv-x="727" d="M434 1223l51 170h-51v172h172v-142q-2 -20 -7 -36.5t-11 -30t-27 -52.5l-41 -81h-86zM166 0v1479h153v-1479h-153z" />
<glyph unicode="&#x141;" horiz-adv-x="1280" d="M158 569l204 174v678h185v-520l258 219l82 -96l-340 -289v-602h399l246 2v-135h-830v578l-122 -105z" />
<glyph unicode="&#x142;" horiz-adv-x="663" d="M55 586l195 166v727h156v-596l145 125l78 -93l-223 -188v-727h-156v594l-117 -100z" />
<glyph unicode="&#x143;" horiz-adv-x="1449" d="M465 1556l86 50l70 41l53 31l42 24q15 8 28.5 16t21.5 11.5t14 6.5t12.5 4t9.5 1h11h201l-324 -162l-45 -20l-31 -3h-149zM195 0v1421h256l561 -1114l80 -164v1278h159v-1421h-256l-561 1114l-80 164v-1278h-159z" />
<glyph unicode="&#x144;" horiz-adv-x="1058" d="M352 1044l273 267h159l-305 -267h-127zM164 0v922h149v-144q119 154 299 154q76 0 130.5 -22.5t83 -55.5t44 -83t19.5 -89t4 -92v-590h-160v575q0 111 -40 171.5t-161 60.5q-109 0 -158.5 -92t-49.5 -223v-492h-160z" />
<glyph unicode="&#x147;" horiz-adv-x="1449" d="M399 1821h125l199 -228l199 228h125l-250 -332h-148zM195 0v1421h256l561 -1114l80 -164v1278h159v-1421h-256l-561 1114l-80 164v-1278h-159z" />
<glyph unicode="&#x148;" horiz-adv-x="1058" d="M162 0v922h149v-144q125 154 299 154q76 0 130.5 -22.5t83 -55.5t44 -83t19.5 -89t4 -92v-590h-160v575q0 111 -40 171.5t-161 60.5q-109 0 -158.5 -92t-49.5 -223v-492h-160zM133 1309h127l205 -140l203 140h71l56 -2q-252 -180 -267 -187q-10 -4 -26 -4h-74 q-8 0 -17.5 3t-24.5 10.5t-27.5 15.5t-37.5 26l-48 35l-63 46z" />
<glyph unicode="&#x14a;" horiz-adv-x="1536" d="M193 0v1421h184v-55q184 180 436 180q154 0 289 -68.5t227 -214t92 -339.5v-619q0 -63 -14 -120.5t-46 -112t-94.5 -86t-148.5 -31.5q-158 0 -293 86l27 154q90 -113 205 -113q131 0 170 129q10 39 10 119v590q0 117 -31 190q-45 113 -151.5 194.5t-253.5 81.5 q-172 0 -298 -117.5t-126 -264.5v-1004h-184z" />
<glyph unicode="&#x14b;" horiz-adv-x="1058" d="M164 0v922h149v-144q119 154 299 154q76 0 131.5 -23.5t83 -57.5t44 -85t19.5 -88t3 -88v-590h-2q-2 -174 -75 -297t-187 -123q-123 0 -242 70l55 125q66 -63 136 -64q61 0 109 53.5t48 180.5v55h-2v575q0 111 -40 171.5t-161 60.5q-109 0 -158.5 -92t-49.5 -223v-492 h-160z" />
<glyph unicode="&#x14c;" horiz-adv-x="1507" d="M129 1610q0 41 70 41h1110q68 0 67.5 -41t-57.5 -41h-1120q-70 0 -70 41zM113 707q0 317 189.5 538t451.5 221q258 0 447.5 -221t189.5 -538q0 -311 -185.5 -531.5t-453.5 -220.5q-256 0 -447.5 216.5t-191.5 535.5zM297 735q0 -266 128 -456.5t327 -190.5 q195 0 325.5 187.5t130.5 459.5q0 268 -135 434t-321 166q-193 0 -324 -170t-131 -430z" />
<glyph unicode="&#x14d;" d="M141 1128v132h738v-132h-738zM61 453q0 188 126 339.5t323 151.5q184 0 317.5 -144.5t133.5 -348.5q0 -203 -135.5 -338.5t-315.5 -135.5t-314.5 135.5t-134.5 340.5zM221 473q0 -168 83 -266t206 -98q115 0 202 93t87 271q0 158 -82 251t-207 93q-113 0 -201 -86 t-88 -258z" />
<glyph unicode="&#x14e;" horiz-adv-x="1507" d="M406 1858h124q4 -47 31 -80t66 -47.5t69.5 -19.5t57.5 -5q39 0 79.5 8t88 45t51.5 99h127q-6 -135 -109.5 -212t-239 -77t-238.5 78t-107 211zM113 707q0 317 189.5 538t451.5 221q258 0 447.5 -221t189.5 -538q0 -311 -185.5 -531.5t-453.5 -220.5q-256 0 -447.5 216.5 t-191.5 535.5zM297 735q0 -266 128 -456.5t327 -190.5q195 0 325.5 187.5t130.5 459.5q0 268 -135 434t-321 166q-193 0 -324 -170t-131 -430z" />
<glyph unicode="&#x14f;" d="M164 1335h125q4 -47 30.5 -79.5t65.5 -47t69.5 -19.5t57.5 -5q39 0 80 8t88 45t51 98h127q-6 -135 -109.5 -211.5t-238.5 -76.5t-238.5 77.5t-107.5 210.5zM61 453q0 188 126 339.5t323 151.5q184 0 317.5 -144.5t133.5 -348.5q0 -203 -135.5 -338.5t-315.5 -135.5 t-314.5 135.5t-134.5 340.5zM221 473q0 -168 83 -266t206 -98q115 0 202 93t87 271q0 158 -82 251t-207 93q-113 0 -201 -86t-88 -258z" />
<glyph unicode="&#x150;" horiz-adv-x="1507" d="M410 1556q305 176 317 181q10 4 29 4h202l-323 -162l-47 -20l-29 -3h-149zM750 1556l86 51l69 41l53 30l42 25l29 17q13 8 21.5 11.5t14.5 6.5t12 4t9 1h12h139l61 -2l-323 -162l-45 -20l-31 -3h-149zM113 707q0 317 189.5 538t451.5 221q258 0 447.5 -221t189.5 -538 q0 -311 -185.5 -531.5t-453.5 -220.5q-256 0 -447.5 216.5t-191.5 535.5zM297 735q0 -266 128 -456.5t327 -190.5q195 0 325.5 187.5t130.5 459.5q0 268 -135 434t-321 166q-193 0 -324 -170t-131 -430z" />
<glyph unicode="&#x151;" d="M221 1044l273 267h159l-305 -267h-127zM561 1044l273 267h159l-305 -267h-127zM61 453q0 188 126 339.5t323 151.5q184 0 317.5 -144.5t133.5 -348.5q0 -203 -135.5 -338.5t-315.5 -135.5t-314.5 135.5t-134.5 340.5zM221 473q0 -168 83 -266t206 -98q115 0 202 93 t87 271q0 158 -82 251t-207 93q-113 0 -201 -86t-88 -258z" />
<glyph unicode="&#x152;" horiz-adv-x="1990" d="M55 707q0 311 200 535t480 224q57 0 161.5 -22.5t182.5 -22.5h795v-135h-117l-49 2h-489l-76 2v-487h674v-127h-674v-533h176l49 2h395l45 2h95v-147h-869q-45 -2 -144 -23.5t-159 -21.5q-268 0 -472 216.5t-204 535.5zM233 733q0 -164 60.5 -311.5t180.5 -244.5t269 -97 q139 0 180.5 74.5t41.5 314.5v496q0 229 -40 300.5t-167 75.5h-39q-190 -10 -338 -177t-148 -431z" />
<glyph unicode="&#x153;" horiz-adv-x="1593" d="M61 461q0 197 126 340t307 143q219 0 356 -203q55 90 148.5 146.5t193.5 56.5q59 0 112.5 -20.5t108.5 -69.5t88 -152.5t33 -250.5h-602q0 -2 1 -15.5t2 -23t4 -27.5t7 -32l10 -34q6 -20 14.5 -36.5t21 -37t26.5 -36.5t32.5 -33.5t41.5 -32.5q61 -39 135 -39 q150 0 284 113l13 -135q-139 -104 -299 -105q-229 0 -373 207q-59 -96 -155.5 -151.5t-202.5 -55.5q-174 0 -303.5 139.5t-129.5 344.5zM211 473q0 -166 79 -267.5t204 -101.5q109 0 193.5 92.5t84.5 276.5q0 162 -80 253t-198 91q-109 0 -196 -86t-87 -258zM942 563h471 q-41 254 -217 254q-82 0 -154.5 -67.5t-99.5 -186.5z" />
<glyph unicode="&#x154;" horiz-adv-x="1323" d="M375 1556q305 176 317 181q10 4 29 4h201l-324 -162l-45 -20l-31 -3h-147zM195 0v1421h462q147 0 259 -37.5t172.5 -98t89 -123t28.5 -122.5q0 -117 -89 -220t-261 -152l408 -668h-185l-383 647h-323v-647h-178zM373 774h233q164 0 240 27q98 33 146 97.5t48 139.5 q0 45 -18 88t-59 86t-122 69t-192 26h-276v-533z" />
<glyph unicode="&#x155;" horiz-adv-x="700" d="M180 1044l273 267h159l-305 -267h-127zM166 0v922h143v-185q137 193 359 195v-137q-51 -2 -105.5 -19.5t-112 -56.5t-94.5 -116t-37 -181v-422h-153z" />
<glyph unicode="&#x158;" horiz-adv-x="1323" d="M303 1821h125l199 -228l198 228h127l-252 -332h-147zM195 0v1421h462q147 0 259 -37.5t172.5 -98t89 -123t28.5 -122.5q0 -117 -89 -220t-261 -152l408 -668h-185l-383 647h-323v-647h-178zM373 774h233q164 0 240 27q98 33 146 97.5t48 139.5q0 45 -18 88t-59 86 t-122 69t-192 26h-276v-533z" />
<glyph unicode="&#x159;" horiz-adv-x="700" d="M123 1309h127l205 -140l202 140h72l55 -2q-252 -180 -266 -187q-10 -4 -26 -4h-74q-8 0 -17.5 3t-25 10.5t-27.5 15.5l-38 26l-47 35l-63 46zM166 0v922h143v-185q137 193 359 195v-137q-51 -2 -105.5 -19.5t-112 -56.5t-94.5 -116t-37 -181v-422h-153z" />
<glyph unicode="&#x15a;" horiz-adv-x="1136" d="M283 1556q305 176 317 181q10 4 29 4h200l-323 -162l-45 -20l-31 -3h-147zM90 96l31 170q209 -170 438 -170q129 0 214 81t85 190q0 80 -48 147.5t-128 97.5q-39 16 -119 35t-140.5 35t-132 62.5t-118.5 117.5q-57 90 -59 201q0 158 128 280.5t334 122.5q193 0 375 -98 l-28 -170q-86 68 -161 99.5t-188 31.5q-133 0 -215 -72.5t-82 -169.5q0 -74 46.5 -132t117.5 -87q25 -10 147 -39.5t161 -46.5q111 -45 192.5 -149.5t81.5 -245.5q0 -174 -130 -303t-333 -129q-246 0 -469 141z" />
<glyph unicode="&#x15b;" horiz-adv-x="784" d="M55 70l25 139q55 -33 89 -50.5t99.5 -35t134.5 -17.5q188 0 189 138q0 47 -32 80.5t-79 50.5q-18 6 -103 20.5t-152.5 46t-112.5 95.5q-45 59 -45 139q0 268 333 268q150 0 301 -63l-22 -136q-63 31 -86 40.5t-83 22.5t-130 13q-168 0 -168 -123q0 -68 56.5 -99.5 t154.5 -50t133 -32.5q68 -29 124 -92.5t56 -165.5q0 -281 -338 -281q-180 1 -344 93zM225 1044l273 267h159l-305 -267h-127z" />
<glyph unicode="&#x15c;" horiz-adv-x="1136" d="M238 1569l256 289h124l256 -289h-124l-195 203l-193 -203h-124zM90 96l31 170q209 -170 438 -170q129 0 214 81t85 190q0 80 -48 147.5t-128 97.5q-39 16 -119 35t-140.5 35t-132 62.5t-118.5 117.5q-57 90 -59 201q0 158 128 280.5t334 122.5q193 0 375 -98l-28 -170 q-86 68 -161 99.5t-188 31.5q-133 0 -215 -72.5t-82 -169.5q0 -74 46.5 -132t117.5 -87q25 -10 147 -39.5t161 -46.5q111 -45 192.5 -149.5t81.5 -245.5q0 -174 -130 -303t-333 -129q-246 0 -469 141z" />
<glyph unicode="&#x15d;" horiz-adv-x="784" d="M78 1047l256 288h125l256 -288h-125l-195 202l-192 -202h-125zM55 70l25 139q63 -37 92 -52.5t93.5 -33t135.5 -17.5q102 0 146.5 43.5t44.5 96.5t-36 86t-79 45q-20 6 -91 20.5t-105 24.5q-82 25 -147.5 89t-65.5 163q0 47 14 89t48 86t104.5 69.5t168.5 25.5 q150 0 299 -63l-22 -136q-2 2 -23.5 11.5t-24.5 11.5t-22.5 10t-27 10.5t-25.5 9.5t-28.5 8t-30 6t-34.5 6t-35.5 2t-43.5 1q-94 0 -133 -38t-39 -87q0 -68 56.5 -98.5t154.5 -48t135 -33.5q74 -35 126 -99.5t52 -156.5q0 -109 -75.5 -196t-258.5 -87q-180 1 -348 93z" />
<glyph unicode="&#x15e;" horiz-adv-x="1136" d="M90 96l31 170q211 -170 438 -170q129 0 214 81t85 190q0 80 -48 147.5t-128 97.5q-39 16 -119 35t-140.5 35t-132 62.5t-118.5 117.5q-57 90 -59 201q0 158 127 280.5t335 122.5q197 0 375 -98l-28 -170q-86 68 -161 99.5t-188 31.5q-127 0 -212 -70.5t-85 -173.5 q0 -72 46.5 -130t117.5 -87q25 -10 147 -39.5t161 -46.5q109 -45 191.5 -148.5t82.5 -246.5q0 -172 -128 -302t-335 -130q-246 0 -469 141zM354 -393l152 346h125l-133 -346h-144z" />
<glyph unicode="&#x15f;" horiz-adv-x="784" d="M55 70l25 139q55 -33 89 -50.5t99.5 -35t134.5 -17.5q188 0 189 138q0 47 -32 80.5t-79 50.5q-18 6 -103 20.5t-152.5 46t-112.5 95.5q-45 59 -45 139q0 268 333 268q150 0 301 -63l-22 -136q-6 2 -25 12l-24 12q-6 3 -23.5 10l-26 10.5t-25.5 8.5t-29.5 8t-31 6t-35 5 t-37 3t-42.5 1q-168 0 -168 -123q0 -68 56.5 -99.5t155.5 -49t134 -33.5q178 -86 178 -258q0 -281 -338 -281q-180 1 -344 93zM188 -393l152 346h125l-133 -346h-144z" />
<glyph unicode="&#x160;" horiz-adv-x="1136" d="M244 1821h125l198 -228l199 228h125l-250 -332h-147zM90 96l31 170q209 -170 438 -170q129 0 214 81t85 190q0 80 -48 147.5t-128 97.5q-39 16 -119 35t-140.5 35t-132 62.5t-118.5 117.5q-57 90 -59 201q0 158 128 280.5t334 122.5q193 0 375 -98l-28 -170 q-86 68 -161 99.5t-188 31.5q-133 0 -215 -72.5t-82 -169.5q0 -74 46.5 -132t117.5 -87q25 -10 147 -39.5t161 -46.5q111 -45 192.5 -149.5t81.5 -245.5q0 -174 -130 -303t-333 -129q-246 0 -469 141z" />
<glyph unicode="&#x161;" horiz-adv-x="784" d="M55 70l25 139q170 -102 326 -103q186 0 186 140q0 51 -36 85t-77 45t-107.5 24.5t-92.5 21.5q-78 25 -144.5 89t-66.5 165q0 268 333 268q150 0 304 -63l-25 -136q-61 29 -85 39.5t-84 23.5t-130 13q-168 0 -168 -123q0 -68 53 -98.5t151.5 -47.5t133.5 -32 q78 -35 132 -100.5t54 -161.5q0 -281 -336 -281q-180 1 -346 93zM55 1309h127l205 -140l203 140h72l55 -2q-252 -180 -266 -187q-10 -4 -27 -4h-74q-8 0 -17 3t-24.5 10.5t-28 15.5t-37.5 26l-47 35l-64 46z" />
<glyph unicode="&#x162;" horiz-adv-x="1392" d="M481 -393l152 346h125l-133 -346h-144zM72 1276v135h1245v-135l-531 2v-1278h-182v1278z" />
<glyph unicode="&#x163;" horiz-adv-x="739" d="M37 791v120h176v258h143v-258h289v-120h-289v-517q2 -86 28 -125.5t81 -39.5q47 0 87 15t66 34l29 18l33 -121q-145 -78 -305 -78q-98 0 -132 74t-34 199v541h-172zM240 -393l151 346h125l-133 -346h-143z" />
<glyph unicode="&#x164;" horiz-adv-x="1392" d="M371 1821h125l200 -228l197 228h127l-252 -332h-145zM72 1276v135h1245v-135l-531 2v-1278h-182v1278z" />
<glyph unicode="&#x165;" horiz-adv-x="739" d="M37 791v120h176v258h143v-258h289v-120h-289v-517q2 -86 28 -125.5t81 -39.5q47 0 87 15t66 34l29 18l33 -121q-145 -78 -305 -78q-96 0 -131 72t-35 201v541h-172zM559 999l53 170h-53v172h172v-141q-2 -20 -7 -36.5t-11 -30t-27 -52.5l-41 -82h-86z" />
<glyph unicode="&#x168;" horiz-adv-x="1406" d="M367 1649q4 109 63 172t137 63q57 0 144.5 -54t130.5 -54q76 0 82 108h127q-4 -109 -62.5 -171t-138.5 -62q-57 0 -144.5 54t-130.5 54q-76 0 -81 -110h-127zM193 526v895h184v-850q0 -141 4 -168q14 -135 100 -234t228 -99q129 0 230 93t114 271v987h161v-876 q0 -2 1.5 -21.5t0 -34t-2.5 -42t-5 -50t-11 -53.5t-19.5 -59.5l-27.5 -60t-37.5 -62.5t-51.5 -60q-147 -147 -352 -147q-197 0 -341.5 129t-170.5 317q-4 43 -4 125z" />
<glyph unicode="&#x169;" horiz-adv-x="1058" d="M158 1137q2 109 62.5 172t137.5 63q55 0 142.5 -54t132.5 -54q76 0 82 108h125q-4 -109 -63.5 -171t-137.5 -62q-55 0 -142 54t-130 54q-78 0 -84 -110h-125zM164 250v661h160v-686q2 -72 33.5 -102.5t129.5 -30.5q106 0 171 56.5t73 130.5q2 20 2 59v573h160v-911h-156 v98q-137 -121 -358 -121q-61 0 -104.5 19.5t-65 44.5t-32.5 69t-12 69.5t-1 70.5z" />
<glyph unicode="&#x16a;" horiz-adv-x="1406" d="M80 1610q0 41 70 41h1110q68 0 67.5 -41t-57.5 -41h-1120q-70 0 -70 41zM193 526v895h184v-850q0 -141 4 -168q14 -135 100 -234t228 -99q129 0 230 93t114 271v987h161v-876q0 -2 1.5 -21.5t0 -34t-2.5 -42t-5 -50t-11 -53.5t-19.5 -59.5l-27.5 -60t-37.5 -62.5 t-51.5 -60q-147 -147 -352 -147q-197 0 -341.5 129t-170.5 317q-4 43 -4 125z" />
<glyph unicode="&#x16b;" horiz-adv-x="1058" d="M160 1128v132h737v-132h-737zM164 250v661h160v-686q2 -72 33.5 -102.5t129.5 -30.5q106 0 171 56.5t73 130.5q2 20 2 59v573h160v-911h-156v98q-137 -121 -358 -121q-61 0 -104.5 19.5t-65 44.5t-32.5 69t-12 69.5t-1 70.5z" />
<glyph unicode="&#x16c;" horiz-adv-x="1406" d="M356 1858h125q4 -47 31 -80t65.5 -47.5t69.5 -19.5t58 -5q39 0 79.5 8t88 45t51.5 99h127q-6 -135 -109.5 -212t-239 -77t-239 78t-107.5 211zM193 526v895h184v-850q0 -141 4 -168q14 -135 100 -234t228 -99q129 0 230 93t114 271v987h161v-876q0 -2 1.5 -21.5t0 -34 t-2.5 -42t-5 -50t-11 -53.5t-19.5 -59.5l-27.5 -60t-37.5 -62.5t-51.5 -60q-147 -147 -352 -147q-197 0 -341.5 129t-170.5 317q-4 43 -4 125z" />
<glyph unicode="&#x16d;" horiz-adv-x="1058" d="M182 1333h125q4 -47 31 -79.5t65.5 -47t69.5 -19.5t57 -5q39 0 80 8t88 45t52 98h127q-6 -135 -109.5 -212t-239 -77t-239 78t-107.5 211zM164 250v661h160v-686q2 -72 33.5 -102.5t129.5 -30.5q106 0 171 56.5t73 130.5q2 20 2 59v573h160v-911h-156v98 q-137 -121 -358 -121q-61 0 -104.5 19.5t-65 44.5t-32.5 69t-12 69.5t-1 70.5z" />
<glyph unicode="&#x16e;" horiz-adv-x="1406" d="M481 1591q0 96 68.5 162t159.5 66q96 0 161.5 -68t65.5 -160q0 -90 -64.5 -158.5t-163 -68.5t-163 67.5t-64.5 159.5zM596 1591.5q0 -102.5 112.5 -102.5t112.5 102.5t-110 102.5q-115 0 -115 -102.5zM193 526v895h184v-850q0 -141 4 -168q14 -135 100 -234t228 -99 q129 0 230 93t114 271v987h161v-876q0 -2 1.5 -21.5t0 -34t-2.5 -42t-5 -50t-11 -53.5t-19.5 -59.5l-27.5 -60t-37.5 -62.5t-51.5 -60q-147 -147 -352 -147q-197 0 -341.5 129t-170.5 317q-4 43 -4 125z" />
<glyph unicode="&#x16f;" horiz-adv-x="1058" d="M301 1143q0 63 62.5 114.5t164.5 51.5q92 0 160 -48.5t68 -119.5q0 -63 -62.5 -114.5t-165.5 -51.5q-106 0 -166.5 53.5t-60.5 114.5zM416 1141q0 -37 25.5 -68t87 -31t87 31t25.5 70q0 37 -25.5 67.5t-87.5 30.5q-51 0 -81.5 -26.5t-30.5 -73.5zM164 250v661h160v-686 q2 -72 33.5 -102.5t129.5 -30.5q106 0 171 56.5t73 130.5q2 20 2 59v573h160v-911h-156v98q-137 -121 -358 -121q-61 0 -104.5 19.5t-65 44.5t-32.5 69t-12 69.5t-1 70.5z" />
<glyph unicode="&#x170;" horiz-adv-x="1406" d="M193 526v895h184v-850q0 -141 4 -168q14 -135 100 -234t228 -99q129 0 230 93t114 271v987h161v-876q0 -2 1.5 -21.5t0 -34t-2.5 -42t-5 -50t-11 -53.5t-19.5 -59.5l-27.5 -60t-37.5 -62.5t-51.5 -60q-147 -147 -352 -147q-197 0 -341.5 129t-170.5 317q-4 43 -4 125z M700 1556l86 51l70 41l53 30l42 25l29 17q13 8 21.5 11.5t14.5 6.5t12 4t9 1h12h139l61 -2l-323 -162l-45 -20l-31 -3h-150zM360 1556l86 51l70 41l53 30l42 25l29 17q13 8 21.5 11.5t14.5 6.5t12 4t9 1h12h139l61 -2l-323 -162l-45 -20l-31 -3h-150z" />
<glyph unicode="&#x171;" horiz-adv-x="1058" d="M580 1044l272 267h160l-305 -267h-127zM238 1044l272 267h160l-305 -267h-127zM164 250v661h160v-686q2 -72 33.5 -102.5t129.5 -30.5q106 0 171 56.5t73 130.5q2 20 2 59v573h160v-911h-156v98q-137 -121 -358 -121q-61 0 -104.5 19.5t-65 44.5t-32.5 69t-12 69.5 t-1 70.5z" />
<glyph unicode="&#x174;" horiz-adv-x="1933" d="M647 1569l256 289h125l256 -289h-125l-194 203l-193 -203h-125zM29 1421h178l237 -833q90 -324 105 -445q8 96 106 451l236 827h168q135 -446 241 -841l60 -222q18 -70 47 -215q6 61 109 449l239 829h148l-416 -1421h-178l-219 756q-86 317 -96.5 361t-32.5 161 q-10 -98 -121 -483l-230 -795h-164z" />
<glyph unicode="&#x175;" horiz-adv-x="1398" d="M381 1047l256 288h125l256 -288h-125l-195 202l-192 -202h-125zM29 911h153l89 -290l60 -201q22 -72 37 -137l19 -84q4 -18 10 -56.5t6 -40.5q2 68 54.5 259.5t108 369.5t55.5 180h145l149 -499q70 -242 78 -310q6 59 58.5 244.5l111 374t58.5 190.5h149l-283 -911h-178 l-94 317l-59 199q-23 74 -34 124t-15.5 65.5t-9.5 49t-7 52.5q-4 -72 -55 -260.5t-105.5 -362.5t-56.5 -184h-162z" />
<glyph unicode="&#x176;" horiz-adv-x="1366" d="M362 1569l256 289h125l256 -289h-125l-194 203l-193 -203h-125zM4 1421h215l301 -436q164 -246 178 -272l44 70l75 114l91 135l96 140l85 123l62 89l25 37h180l-586 -852v-569h-178v569z" />
<glyph unicode="&#x177;" horiz-adv-x="944" d="M152 1047l256 288h124l256 -288h-124l-195 202l-193 -202h-124zM29 911h161l147 -342q58 -139 86 -220t38 -114.5t17 -76.5l9 -56q2 82 66.5 272.5t134.5 362.5l72 174h153l-444 -1095q-59 -137 -110.5 -186.5t-125.5 -49.5q-84 0 -149 17l-10 133q104 -35 149 -35 q55 0 90 51t101 223q8 18 8 33q0 8 -10 35z" />
<glyph unicode="&#x178;" horiz-adv-x="1366" d="M389 1556v183h184v-183h-184zM788 1556v183h185v-183h-185zM4 1421h215l301 -436q164 -246 178 -272l44 70l75 114l91 135l96 140l85 123l62 89l25 37h180l-586 -852v-569h-178v569z" />
<glyph unicode="&#x179;" horiz-adv-x="1251" d="M395 1556l86 50l70 41l53 31l42 24q15 8 28.5 16t22 11.5t14.5 6.5t12 4t9 1h11h201l-323 -162l-48 -20l-28 -3h-150zM113 0v51q0 29 3 39t23 39l762 1165l-760 -2v129h996v-49v-11q0 -5 -1 -10t-1 -7.5t-1 -6.5t-2.5 -6t-4.5 -7t-4 -7t-6 -9.5t-7 -11.5l-762 -1163 l799 2v-135h-1034z" />
<glyph unicode="&#x17a;" horiz-adv-x="890" d="M276 1044l273 267h160l-306 -267h-127zM55 0v84l545 707l-516 -3v123h731v-82l-543 -702l549 2v-129h-766z" />
<glyph unicode="&#x17b;" horiz-adv-x="1251" d="M590 1593v183h184v-183h-184zM113 0v51q0 29 3 39t23 39l762 1165l-760 -2v129h996v-49v-11q0 -5 -1 -10t-1 -7.5t-1 -6.5t-2.5 -6t-4.5 -7t-4 -7t-6 -9.5t-7 -11.5l-762 -1163l799 2v-135h-1034z" />
<glyph unicode="&#x17c;" horiz-adv-x="890" d="M391 1208v183h184v-183h-184zM55 0v84l545 707l-516 -3v123h731v-82l-543 -702l549 2v-129h-766z" />
<glyph unicode="&#x17d;" horiz-adv-x="1251" d="M303 1821h125l199 -228l198 228h127l-252 -332h-147zM113 0v51q0 29 3 39t23 39l762 1165l-760 -2v129h996v-49v-11q0 -5 -1 -10t-1 -7.5t-1 -6.5t-2.5 -6t-4.5 -7t-4 -7t-6 -9.5t-7 -11.5l-762 -1163l799 2v-135h-1034z" />
<glyph unicode="&#x17e;" horiz-adv-x="890" d="M119 1309h127l205 -140l202 140h72l55 -2q-252 -180 -266 -187q-10 -4 -27 -4h-73q-8 0 -17.5 3t-25 10.5t-27.5 15.5l-38 26l-47 35l-63 46zM55 0v84l545 707l-516 -3v123h731v-82l-543 -702l549 2v-129h-766z" />
<glyph unicode="&#x17f;" horiz-adv-x="624" d="M207 0v1120q0 164 95 272.5t247 108.5q72 0 162 -22v-138q-90 35 -166 35q-74 0 -132.5 -43t-58.5 -143q0 -39 3 -199t3 -200v-791h-153z" />
<glyph unicode="&#x180;" horiz-adv-x="1058" d="M0 1047v120h164v256h155v-256h291v-120h-291v-234q150 119 328 119q147 0 240.5 -141.5t93.5 -331.5q0 -205 -111.5 -343.5t-265.5 -138.5q-156 0 -278 119v-96h-162v1047h-164zM326 274q0 -16 1 -25t4 -19.5t5 -13.5t11 -15.5t13 -18.5q63 -78 166 -78q111 0 203 85 t92 268q0 96 -26.5 168.5t-70.5 109.5t-89 54.5t-90 17.5q-25 0 -49.5 -4t-43 -12.5t-34 -16.5t-28.5 -19l-20 -18q-7 -6 -16 -16l-8 -8q-20 -27 -20 -56v-383z" />
<glyph unicode="&#x186;" horiz-adv-x="1308" d="M1204 711q0 -307 -190.5 -531.5t-485.5 -224.5q-180 0 -370 70l30 170q94 -57 168 -83t181 -26q211 0 347 186.5t136 438.5q0 256 -137.5 440t-352.5 184q-98 0 -174.5 -21.5t-104.5 -37.5t-104 -66l-12 144q111 66 192 89t205 23q293 0 482.5 -225t189.5 -530z" />
<glyph unicode="&#x188;" d="M72 457q0 193 123.5 340t326.5 147q113 0 193 -26v165q0 141 76.5 223.5t181.5 82.5q111 0 190 -95l-47 -127q-53 94 -141 95q-59 0 -93 -44t-40 -102l-2 -49v-213l-25 -135q-6 4 -28 17l-29 19q-8 5 -27.5 15t-32.5 14l-33 12q-22 7 -41.5 10t-47 5t-56.5 2 q-139 0 -214 -105.5t-75 -250.5q0 -152 80 -250t207 -98q160 0 322 110l10 -137q-158 -104 -334 -105q-190 0 -317 141.5t-127 338.5z" />
<glyph unicode="&#x18e;" horiz-adv-x="1222" d="M193 0v147h94l45 -2h397l49 -2h174v531h-676v125h676v485l-71 -2h-492l-51 -2h-117v135h916v-1415h-944z" />
<glyph unicode="&#x18f;" horiz-adv-x="1370" d="M55 682h1053q0 139 -30.5 252t-73.5 180.5t-99.5 116.5t-98.5 68.5t-79 27.5q-41 8 -92 8q-43 0 -80 -2t-62.5 -4t-56.5 -9l-44 -10q-13 -3 -46 -16.5t-42 -17.5l-51 -24q-42 -19 -54 -25l-31 170q119 35 204 50t129 17t169 2q250 -8 431 -224t181 -535q0 -344 -172 -548 t-457 -204q-80 0 -154.5 16.5t-158.5 65.5t-144.5 127t-100.5 211t-40 307zM219 555q2 -47 14.5 -99.5t43 -121t75.5 -121.5t124 -90t177 -37q182 0 299 130t146 339h-879z" />
<glyph unicode="&#x190;" horiz-adv-x="1136" d="M84 379q0 51 10 95t28.5 77t40 59.5t50.5 46l52.5 34t53 24.5t46 14t36.5 8l23 6q-125 25 -204 109t-79 221q0 100 31 175t77 116t114.5 64.5t128 30.5t135.5 7q197 0 383 -69l-29 -170q-2 0 -24.5 15t-34 20.5l-39 19.5t-51 21.5t-56.5 15.5t-71.5 12t-79.5 4 q-145 0 -234.5 -56t-89.5 -210q0 -70 22.5 -121t53.5 -78.5t73 -44t73.5 -20.5t62.5 -4q10 0 18 1t14 1h5h114v-127h-127q-61 0 -100 -3t-94.5 -24.5t-91.5 -60.5q-74 -76 -74 -205q0 -127 75.5 -212t258.5 -85q106 0 188 18.5t118 36.5l130 70l12 -143q-121 -63 -211 -88 t-246 -25q-119 0 -210 28.5t-143 71.5t-85 103.5t-43 113t-10 107.5z" />
<glyph unicode="&#x192;" horiz-adv-x="1269" d="M12 -350l70 125q63 -63 139 -64q141 0 182 131l7 31l196 918h-151l24 120h152q41 199 52 242t34 90q18 35 43.5 71t73 83t117 75.5t151.5 28.5q74 0 155 -22l-32 -138q-84 33 -156 35q-88 0 -140 -44t-73 -89q-10 -25 -78 -332h234l-25 -120h-225l-180 -846 q-27 -123 -50 -164q-29 -66 -103.5 -133.5t-182.5 -67.5q-128 0 -234 70z" />
<glyph unicode="&#x195;" horiz-adv-x="1490" d="M164 0v1423h153v-637q127 145 293 146q164 0 234 -105q47 -74 49 -241.5t22 -249.5q18 -74 49 -125t64 -71.5t56.5 -28t45.5 -7.5q55 0 90 40t48.5 111t17.5 123t4 122v24v64q0 78 -5 132t-12 72.5l-12.5 34t-5.5 25.5q0 37 26 58.5t56 21.5q63 0 88 -89t25 -261 q0 -104 -15.5 -202.5t-49 -193t-100 -152t-157.5 -57.5q-66 0 -126 24t-118.5 76t-98.5 154.5t-48 241.5q-2 35 -3 91.5t-3 83t-16.5 60t-40.5 56.5q-51 43 -142 43q-82 0 -145 -71.5t-63 -246.5v-489h-160z" />
<glyph unicode="&#x199;" horiz-adv-x="1001" d="M170 0v1094q0 172 133 273t313 101h5q174 -2 299 -122l-48 -127l-54 56q-17 17 -74.5 41.5t-127.5 24.5q-109 0 -197.5 -56t-99.5 -152q-2 -20 -2 -60v-590l418 428h185l-345 -352v-2l392 -557h-168l-322 459l-164 -168v-291h-143z" />
<glyph unicode="&#x19a;" horiz-adv-x="796" d="M92 686v121h227v616h154v-616h227v-121h-227v-686h-154v686h-227z" />
<glyph unicode="&#x19b;" horiz-adv-x="1081" d="M-51 1360q0 63 80 63q78 0 133 -13t88 -40t44 -41t28 -43l159 -307l246 127l68 -129l-244 -127l379 -727l43 -76q16 -29 23 -37l15 -16q7 -8 13 -17h-129q-70 0 -127 111l-231 440l-295 -505q-27 -47 -70 -48q-35 0 -58.5 25t-23.5 55q0 27 29 72l342 547l-51 100 l-246 -129l-68 131l244 127q-145 279 -162.5 309.5t-32.5 44.5q-31 29 -93 36t-66 10q-37 14 -37 57z" />
<glyph unicode="&#x19e;" horiz-adv-x="1001" d="M164 0v922h149v-144q119 154 299 154q78 0 134.5 -25.5t84 -59.5t43 -88t17.5 -89t2 -86v-983h-160v972q0 51 -6 86t-24.5 72t-61.5 56.5t-109 19.5q-68 0 -114.5 -38t-64 -97.5t-23.5 -100.5t-6 -77v-494h-160z" />
<glyph unicode="&#x1a0;" horiz-adv-x="1507" d="M113 707q0 311 186 535t455 224q166 0 319 -102l64 57h-52v172h172v-172l-129 -100q264 -238 265 -614q0 -311 -187.5 -531.5t-453.5 -220.5q-258 0 -448.5 216.5t-190.5 535.5zM297 735q0 -266 128 -456.5t327 -190.5q195 0 325.5 187.5t130.5 459.5q0 268 -135 434 t-321 166q-193 0 -324 -170t-131 -430z" />
<glyph unicode="&#x1a1;" d="M61 451q0 190 125 341.5t324 151.5q143 0 266 -96l68 61h-51v172h172v-172l-140 -106q135 -156 136 -350q0 -197 -130.5 -336.5t-320.5 -139.5q-182 0 -315.5 135.5t-133.5 338.5zM221 473q0 -168 83 -266t206 -98q115 0 202 93t87 271q0 158 -82 251t-207 93 q-113 0 -201 -86t-88 -258z" />
<glyph unicode="&#x1a5;" horiz-adv-x="1001" d="M109 -399v1480q0 39 2 57.5t15 68.5t53 94.5t104 84.5q131 82 311 82q106 0 179 -29.5t153 -92.5l-47 -127q-84 76 -136 96q-66 27 -151 26q-49 0 -100.5 -11t-105.5 -36.5t-89 -78t-35 -121.5v-281q152 119 328 119q147 0 241.5 -141.5t94.5 -331.5q0 -205 -112 -343.5 t-267 -138.5q-154 0 -279 119v-495h-159zM268 274q0 -16 1 -25t5.5 -19.5t5.5 -12.5t11 -15.5t14 -19.5q63 -78 164 -78q111 0 204 85t93 268q0 96 -27.5 168.5t-71.5 109.5t-89.5 54.5t-90.5 17.5q-29 0 -56.5 -6t-46.5 -15.5t-36.5 -21.5t-28 -21.5t-19.5 -18.5l-11 -11 q-20 -31 -21 -56v-383z" />
<glyph unicode="&#x1a7;" horiz-adv-x="1136" d="M90 387q0 133 76 238.5t199 156.5q39 16 160.5 46t146.5 40q86 37 125 98.5t39 120.5q0 92 -80 167t-217 75q-115 0 -189 -32.5t-160 -98.5l-30 170q180 98 377 98q203 0 332.5 -119.5t129.5 -283.5q-2 -147 -97 -247.5t-220 -135.5q-6 -2 -114.5 -28.5t-137.5 -39.5 q-70 -29 -123 -93t-53 -152q0 -106 83 -188.5t216 -82.5q229 0 438 170l31 -170q-223 -141 -469 -141q-205 0 -334 129t-129 303z" />
<glyph unicode="&#x1a8;" horiz-adv-x="784" d="M55 260q0 96 67.5 176t207.5 109q12 2 45 8t49 10t45 12.5t44 17.5t32.5 23.5t26 35t8.5 44.5q0 49 -39 87t-133 38q-70 0 -128.5 -13t-84 -23.5t-82.5 -39.5l-25 136q152 63 301 63q98 0 169 -25.5t104.5 -69.5t48 -86t14.5 -89q0 -100 -66.5 -164t-146.5 -88 q-23 -8 -88.5 -20.5t-107.5 -24.5t-78.5 -46t-36.5 -85q0 -53 43 -96.5t145 -43.5q35 0 66.5 3.5t61.5 11.5l50 14q20 6 47 20l37 18q10 5 37 20l25 16l24 -139q-166 -92 -348 -93q-96 0 -166.5 28t-104.5 73t-48.5 90t-14.5 92z" />
<glyph unicode="&#x1aa;" horiz-adv-x="733" d="M-10 1229q0 102 72.5 170.5t164.5 68.5q90 0 167 -82.5t77 -252.5v-1227q4 -111 25 -150q8 -18 20 -32q35 -41 86 -41q33 0 58.5 12t45 37.5t23.5 33.5l16 29l46 -127q-74 -113 -197 -112q-102 0 -172 67.5t-92 151.5q-14 47 -15 125q0 8 1 24.5t1 24.5v1063 q-49 -23 -88 -23q-94 0 -166.5 68t-72.5 172zM125 1229q0 -100 106 -115q43 8 60.5 40t17.5 63q0 41 -23.5 82.5t-58.5 41.5q-43 0 -72.5 -34.5t-29.5 -77.5z" />
<glyph unicode="&#x1ab;" horiz-adv-x="796" d="M37 791v120h176v258h143v-258h291v-120h-291v-504q0 -178 111 -178q35 0 67.5 9t51 19t40 24.5t23.5 14.5q33 -121 33 -139v-156q0 -98 -24.5 -167.5t-64.5 -101.5t-79 -44t-82 -12q-37 0 -66.5 7t-50.5 24l-30 27q-10 9 -25 32l-14 22l47 127q41 -113 135 -112 q66 0 98 59q27 47 27 141v119q-92 -25 -172 -25q-168 0 -172 252v562h-172z" />
<glyph unicode="&#x1ad;" horiz-adv-x="796" d="M37 791v120h176v82q0 106 37 176q88 156 268 156q117 0 219 -84l-47 -127l-6 8q-8 8 -12 11.5t-12.5 12.5t-15.5 13t-17.5 12.5t-21.5 12.5t-24.5 8t-29.5 6t-33 2q-76 0 -114.5 -51t-45.5 -105q-2 -16 -2 -53v-80h291v-120h-291v-504q0 -178 111 -178q35 0 67.5 9t51 19 t40 24.5t23.5 14.5l33 -121q-147 -78 -305 -78q-166 0 -168 265v549h-172z" />
<glyph unicode="&#x1af;" horiz-adv-x="1406" d="M193 500v921h184v-850q0 -12 -1 -35.5t-1 -35.5q0 -125 33.5 -215t88 -134.5t106.5 -62.5t106 -18q43 0 86 10t91 40t84 76t60.5 122.5t24.5 173.5q0 6 -1 18t-1 18v893h161v-67l82 67h-51v172h172v-172l-203 -149v-764q0 -168 -63 -285q-59 -113 -176 -190.5t-266 -77.5 q-195 0 -340.5 129t-171.5 319q-4 34 -4 97z" />
<glyph unicode="&#x1b0;" horiz-adv-x="1114" d="M164 250v661h160v-686q2 -72 33.5 -102.5t129.5 -30.5q106 0 171 56.5t73 130.5q2 20 2 59v573h160v-71l82 69h-49v172h170v-172l-203 -149v-760h-156v98q-137 -121 -358 -121q-61 0 -104.5 19.5t-65 44.5t-32.5 69t-12 69.5t-1 70.5z" />
<glyph unicode="&#x1b7;" horiz-adv-x="1118" d="M84 319l160 15q10 -80 45 -133.5t86 -76t91 -30.5t83 -8q139 0 228 80t89 209q0 94 -60.5 182t-195.5 109q-66 10 -139 10h-119v125l498 454v5l-766 -5v166h960v-166l-497 -454v-13q225 -2 363.5 -126.5t138.5 -286.5q0 -170 -143.5 -295t-358.5 -125q-199 0 -322 93 t-141 271z" />
<glyph unicode="&#x1b9;" horiz-adv-x="890" d="M84 -8q0 152 70.5 280.5t199.5 135.5l-248 389l-14 26l-2 37v51h731v-133h-522l324 -506h-166q-117 0 -165 -80.5t-48 -199.5q0 -154 70.5 -220.5t160.5 -66.5q197 0 322 176l24 -137q-143 -164 -348 -164q-158 0 -273.5 117t-115.5 295z" />
<glyph unicode="&#x1ba;" horiz-adv-x="890" d="M84 778v133h731v-51q0 -8 -1 -15l-2 -15q-1 -7 -7 -16t-11.5 -18.5t-17.5 -26.5l-23 -34q-11 -16 -33 -45l-43 -56l-54 -72l-66 -89q106 -20 185 -80.5t79 -159.5q0 -70 -68.5 -131t-150.5 -100t-150.5 -97.5t-68.5 -123.5q0 -20 2 -31l10 -14q37 -31 123 -31 q139 0 246 105h2l111 -113q-156 -117 -347 -117q-133 0 -217 73t-84 171q0 70 69 132t151.5 101t151.5 97.5t69 121.5q0 51 -82 68.5t-305 20.5l309 413h-508z" />
<glyph unicode="&#x1bf;" horiz-adv-x="944" d="M166 180v731h153v-65q25 8 65 23.5l52.5 20.5t37 13t34.5 10t25.5 4.5t29.5 2.5q121 0 213 -105.5t92 -271.5q0 -160 -80.5 -288t-214.5 -177q-14 -6 -249 -76v-381l-156 -41v547zM324 127q31 10 96 27.5t85.5 24.5t62.5 24.5t55.5 34t35 46t30.5 68.5t16 92q4 57 4 88 q0 129 -56.5 194t-120.5 65q-23 0 -206 -66v-520z" />
<glyph unicode="&#x1c0;" horiz-adv-x="569" d="M203 -399v1822h159v-1822h-159z" />
<glyph unicode="&#x1c1;" horiz-adv-x="909" d="M197 -399v1822h149v-1822h-149zM561 -399v1822h148v-1822h-148z" />
<glyph unicode="&#x1c2;" horiz-adv-x="1138" d="M113 264v131h374v168h-374v131h374v729h160v-729h375v-131h-375v-168h375v-131h-375v-663h-160v663h-374z" />
<glyph unicode="&#x1c3;" horiz-adv-x="653" d="M240 1423h172l-19 -1065h-137zM240 0v172h172v-172h-172z" />
<glyph unicode="&#x1c4;" horiz-adv-x="2729" d="M1782 1821h125l198 -228l199 228h127l-252 -332h-147zM1591 0v51q0 29 3 39t24 39l762 1165l-760 -2v129h995v-49v-11q0 -5 -1 -10t-1 -7.5t-1 -6.5t-2 -6t-4 -7t-4 -7t-6 -9.5t-7 -11.5l-762 -1163l799 2v-135h-1035zM195 0v1421h503q207 0 353 -96q147 -98 230 -267 t83 -358q0 -270 -161 -469.5t-402 -226.5q-33 -4 -99 -4h-507zM373 115h293q258 0 399 188q121 158 121 395q0 207 -72 333t-160 190q-119 86 -288 86h-293v-1192z" />
<glyph unicode="&#x1c5;" horiz-adv-x="2369" d="M1597 1309h127l205 -140l203 140h72l55 -2q-252 -180 -266 -187q-10 -4 -27 -4h-74q-8 0 -17 3t-24.5 10.5t-28 15.5t-37.5 26l-47 35l-64 46zM1534 0v84l545 707l-516 -3v123h731v-82l-543 -702l549 2v-129h-766zM195 0v1421h503q207 0 353 -96q147 -98 230 -267 t83 -358q0 -270 -161 -469.5t-402 -226.5q-33 -4 -99 -4h-507zM373 115h293q258 0 399 188q121 158 121 395q0 207 -72 333t-160 190q-119 86 -288 86h-293v-1192z" />
<glyph unicode="&#x1c6;" horiz-adv-x="1949" d="M1178 1309h127l204 -140l203 140h72l55 -2q-252 -180 -266 -187q-10 -4 -27 -4h-73q-8 0 -17.5 3t-25 10.5t-27.5 15.5l-38 26l-47 35l-64 46zM1114 0v84l545 707l-516 -3v123h731v-82l-543 -702l549 2v-129h-766zM72 453q0 203 105.5 342t258.5 139q156 0 297 -113v658 h156v-1479h-162v106q-137 -129 -303 -129q-150 0 -251 139.5t-101 336.5zM231 455q0 -182 86 -266.5t191 -84.5q86 0 152.5 57.5t66.5 112.5v392q0 27 -7 41t-36 38q-63 61 -152 62h-4q-49 0 -97 -18.5t-95 -56.5t-76 -109.5t-29 -167.5z" />
<glyph unicode="&#x1c7;" horiz-adv-x="2076" d="M1194 41l27 154l14 -13l28 -23q13 -11 37.5 -25.5t50 -26t61.5 -18.5t73 -7q242 0 241 240v1099h179v-1104q0 -104 -32 -179t-87 -112.5t-114.5 -54t-127.5 -16.5q-180 0 -350 86zM193 0v1421h184v-1288l645 2v-135h-829z" />
<glyph unicode="&#x1c8;" horiz-adv-x="1656" d="M985 -350l31 125q80 -63 160 -64q59 0 101 30t54 73q4 16 4 53v1044h154v-1013q0 -168 -80 -243t-178 -75q-125 0 -246 70zM1307 1208v183h184v-183h-184zM193 0v1421h184v-1288l645 2v-135h-829z" />
<glyph unicode="&#x1c9;" horiz-adv-x="1036" d="M365 -350l30 125q80 -63 160 -64q59 0 101 30t55 73q4 16 4 53v1044h153v-1013q0 -168 -79.5 -243t-178.5 -75q-124 0 -245 70zM686 1208v183h184v-183h-184zM166 0v1479h153v-1479h-153z" />
<glyph unicode="&#x1ca;" horiz-adv-x="2416" d="M1534 41l27 154l14 -13l28 -23q13 -11 37.5 -25.5t50 -26t61.5 -18.5t73 -7q242 0 241 240v1099h179v-1104q0 -104 -32 -179t-87 -112.5t-114.5 -54t-127.5 -16.5q-180 0 -350 86zM195 0v1421h256l561 -1114l80 -164v1278h159v-1421h-256l-561 1114l-80 164v-1278h-159z " />
<glyph unicode="&#x1cb;" horiz-adv-x="1996" d="M1325 -350l31 125q80 -63 160 -64q59 0 101 30t54 73q4 16 4 53v1044h154v-1013q0 -168 -80 -243t-178 -75q-125 0 -246 70zM1647 1208v183h184v-183h-184zM195 0v1421h256l561 -1114l80 -164v1278h159v-1421h-256l-561 1114l-80 164v-1278h-159z" />
<glyph unicode="&#x1cc;" horiz-adv-x="1605" d="M934 -350l31 125q80 -63 159 -64q59 0 101.5 30t54.5 73q4 16 4 53v1044h154v-1013q0 -168 -80 -243t-178 -75q-125 0 -246 70zM1255 1208v183h185v-183h-185zM164 0v922h149v-144q119 154 299 154q76 0 130.5 -22.5t83 -55.5t44 -83t19.5 -89t4 -92v-590h-160v575 q0 111 -40 171.5t-161 60.5q-109 0 -158.5 -92t-49.5 -223v-492h-160z" />
<glyph unicode="&#x1cd;" horiz-adv-x="1366" d="M350 1761h127l205 -139l203 139h71l56 -2q-252 -180 -267 -186q-10 -4 -26 -4h-74q-8 0 -17.5 3t-24.5 10t-27.5 15.5l-37.5 26.5l-48 35l-63 46zM55 0l535 1421h182l533 -1421h-189l-158 418h-593l-156 -418h-154zM408 532h507q-244 682 -253 746q-14 -66 -71 -230 l-117 -330q-60 -166 -66 -186z" />
<glyph unicode="&#x1ce;" horiz-adv-x="983" d="M123 1239h127l205 -139l202 139h72l55 -2q-252 -180 -266 -186q-10 -4 -26 -4h-74q-8 0 -17.5 3t-25 10t-27.5 15t-38 27l-47 35l-63 46zM90 231q0 76 57.5 132.5t150.5 84t182 41t179 13.5v69q-4 127 -53 189q-51 61 -129 61q-154 0 -307 -104l-12 137q158 90 325 90 q139 0 232.5 -94t103.5 -225v-625h-155v72q-135 -94 -340 -95q-117 0 -175.5 83t-58.5 171zM240 233q0 -57 54 -93t136 -36q90 0 159.5 37t69.5 125v129q-66 0 -130 -8t-133.5 -24.5t-112.5 -50.5t-43 -79z" />
<glyph unicode="&#x1cf;" horiz-adv-x="569" d="M-47 1761h127l205 -139l202 139h72l55 -2q-252 -180 -266 -186q-10 -4 -26 -4h-74q-8 0 -17.5 3t-25 10t-27.5 15.5l-38 26.5l-47 35l-63 46zM193 0v1421h184v-1421h-184z" />
<glyph unicode="&#x1d1;" horiz-adv-x="1507" d="M422 1761h127l205 -139l202 139h72l55 -2q-252 -180 -266 -186q-10 -4 -26 -4h-74q-8 0 -17.5 3t-25 10t-27.5 15.5l-38 26.5l-47 35l-63 46zM113 707q0 317 189.5 538t451.5 221q258 0 447.5 -221t189.5 -538q0 -311 -185.5 -531.5t-453.5 -220.5q-256 0 -447.5 216.5 t-191.5 535.5zM297 735q0 -266 128 -456.5t327 -190.5q195 0 325.5 187.5t130.5 459.5q0 268 -135 434t-321 166q-193 0 -324 -170t-131 -430z" />
<glyph unicode="&#x1d2;" d="M180 1239h127l205 -139l203 139h71l56 -2q-252 -180 -267 -186q-10 -4 -26 -4h-74q-8 0 -17 3t-24.5 10t-28 15t-37.5 27l-47 35l-64 46zM61 453q0 188 126 339.5t323 151.5q184 0 317.5 -144.5t133.5 -348.5q0 -203 -135.5 -338.5t-315.5 -135.5t-314.5 135.5 t-134.5 340.5zM221 473q0 -168 83 -266t206 -98q115 0 202 93t87 271q0 158 -82 251t-207 93q-113 0 -201 -86t-88 -258z" />
<glyph unicode="&#x1d3;" horiz-adv-x="1406" d="M373 1761h127l205 -139l202 139h72l55 -2q-252 -180 -266 -186q-10 -4 -27 -4h-73q-8 0 -17.5 3t-25 10t-27.5 15.5l-38 26.5l-47 35l-63 46zM193 526v895h184v-850q0 -141 4 -168q14 -135 100 -234t228 -99q129 0 230 93t114 271v987h161v-876q0 -2 1.5 -21.5t0 -34 t-2.5 -42t-5 -50t-11 -53.5t-19.5 -59.5l-27.5 -60t-37.5 -62.5t-51.5 -60q-147 -147 -352 -147q-197 0 -341.5 129t-170.5 317q-4 43 -4 125z" />
<glyph unicode="&#x1d4;" horiz-adv-x="1058" d="M197 1239h127l204 -139l203 139h72l55 -2q-252 -180 -266 -186q-10 -4 -27 -4h-73q-8 0 -17.5 3t-25 10t-27.5 15t-38 27l-47 35l-64 46zM164 250v661h160v-686q2 -72 33.5 -102.5t129.5 -30.5q106 0 171 56.5t73 130.5q2 20 2 59v573h160v-911h-156v98 q-137 -121 -358 -121q-61 0 -104.5 19.5t-65 44.5t-32.5 69t-12 69.5t-1 70.5z" />
<glyph unicode="&#x1dd;" horiz-adv-x="909" d="M59 471h635q-4 147 -90 246.5t-211 99.5q-162 0 -313 -112l-12 135q156 104 325 104q195 0 320 -144.5t125 -340.5q0 -193 -119 -337.5t-293 -144.5q-61 0 -116.5 19.5t-112 64.5t-93 135.5t-43.5 215.5zM178 358q8 -100 74.5 -177t171 -77t172.5 79t88 175h-506z" />
<glyph unicode="&#x1e2;" horiz-adv-x="1763" d="M518 1610q0 41 70 41h1110q68 0 67.5 -41t-57.5 -41h-1120q-70 0 -70 41zM55 0l582 1421h1010v-135h-97l-47 2h-420l-45 2v-487h553v-127h-553v-533h133l50 2h331l43 2h80v-147h-819v455h-461l-186 -455h-154zM444 569h412v721h-119z" />
<glyph unicode="&#x1e3;" horiz-adv-x="1478" d="M387 1128v132h737v-132h-737zM94 233q0 88 79 150.5t203 90.5t281 32v65l-2 54q-6 84 -55 140t-123 56q-72 0 -135 -18.5t-95 -35.5t-79 -50l-12 137q162 90 323 90q57 0 107.5 -16.5t82 -40t54 -46t35.5 -38.5l10 -19q125 160 311 160q57 0 110.5 -20.5t109 -69.5 t88 -152.5t32.5 -250.5h-602q0 -2 1 -15.5t2 -23t4 -27.5t7 -32l11 -34q6 -20 14 -36.5t20.5 -37t27 -36.5t32.5 -33.5t41 -32.5q68 -39 137 -39q147 0 283 113l12 -135q-143 -104 -297 -105q-195 0 -336 158q-109 -158 -450 -158q-121 0 -176.5 85t-55.5 171zM244 236 q0 -49 47 -90.5t141 -41.5q92 0 164 36t72 118q0 84 -9 133q-55 0 -116.5 -6t-134 -21.5t-118.5 -49t-46 -78.5zM829 563h469q-41 254 -217 254q-82 0 -154.5 -67.5t-97.5 -186.5z" />
<glyph unicode="&#x1e6;" horiz-adv-x="1366" d="M469 1761h127l205 -139l203 139h71l55 -2q-252 -180 -266 -186q-10 -4 -26 -4h-74q-8 0 -17.5 3t-24.5 10t-27.5 15.5l-38.5 26.5l-47 35l-63 46zM135 711q0 199 84 370.5t237.5 278t344.5 106.5q213 0 409 -98l-30 -170q-96 72 -176 104.5t-199 32.5q-211 0 -348.5 -185 t-137.5 -437q0 -264 140.5 -445.5t343.5 -181.5q51 0 102 6t81 14l54 16q25 7 27 7v356h-272v127h432v-559q-213 -98 -426 -98q-281 0 -473.5 221.5t-192.5 534.5z" />
<glyph unicode="&#x1e7;" d="M193 1239h126l205 -139l203 139h72l55 -2q-252 -180 -266 -186q-10 -4 -27 -4h-74q-8 0 -17 3t-24.5 10t-27.5 15t-38 27l-47 35l-64 46zM55 -145q0 133 131 211q-51 74 -51 155q0 92 60 172v2q-68 90 -68 203q0 133 92 233.5t234 100.5q100 0 200 -68l-4 4 q152 63 322 64l22 -129q-61 6 -121 6q-14 0 -153 -8l-19 16q80 -104 80 -219q0 -133 -94 -233.5t-233 -100.5q-33 0 -63 6t-51.5 15.5t-36.5 17.5t-26 16l-10 7q-23 -45 -22 -76q0 -45 26.5 -77t87.5 -32h154q72 0 122 -5t123.5 -22.5t125 -63.5t71.5 -118q10 -41 11 -75 q0 -119 -133.5 -199t-321.5 -80q-190 0 -322.5 80t-132.5 197zM199 -145q0 -53 55 -91t122.5 -53.5t129.5 -15.5q129 0 222 44t93 114q0 141 -305 141h-129l-59 -2q-59 -4 -94 -47t-35 -90zM270 598q0 -100 50.5 -157.5t134.5 -57.5q70 0 126 50t56 167q0 98 -50 156.5 t-134 58.5q-70 0 -126.5 -50t-56.5 -167z" />
<glyph unicode="&#x1e8;" horiz-adv-x="1421" d="M432 1761h127l205 -139l203 139h71l56 -2q-252 -180 -267 -186q-10 -4 -26 -4h-74q-8 0 -17.5 3t-24.5 10t-27.5 15.5l-37.5 26.5l-48 35l-63 46zM195 0v1421h176v-759l743 759h191l-549 -561v-2l577 -858h-192l-498 743l-272 -276v-467h-176z" />
<glyph unicode="&#x1e9;" horiz-adv-x="1001" d="M236 1774h126l205 -140l203 140h72l55 -2q-252 -180 -266 -187q-10 -4 -27 -4h-74q-8 0 -17 3t-24.5 10.5t-27.5 15.5l-38 26l-47 35l-64 46zM170 0v1479h147v-996l418 428h185l-345 -352l390 -559h-168l-320 459l-164 -168v-291h-143z" />
<glyph unicode="&#x1eb;" d="M61 451q0 203 131.5 348t319.5 145q184 0 316.5 -144.5t132.5 -348.5q0 -135 -67 -248t-175 -172q-229 -131 -230 -252q0 -35 26 -58.5t81 -23.5q27 0 60.5 7t56 14.5t24.5 7.5l31 -121q-109 -51 -199 -51q-92 0 -145 52t-53 130q0 125 141 241h-2q-182 0 -315.5 136.5 t-133.5 337.5zM221 471q0 -174 86 -268t203 -94q121 0 206 95t85 267q0 170 -86 259t-205 89q-115 0 -202 -88t-87 -260z" />
<glyph unicode="&#x1f1;" horiz-adv-x="2729" d="M1591 0v51q0 29 3 39t24 39l762 1165l-760 -2v129h995v-49v-11q0 -5 -1 -10t-1 -7.5t-1 -6.5t-2 -6t-4 -7t-4 -7t-6 -9.5t-7 -11.5l-762 -1163l799 2v-135h-1035zM195 0v1421h503q207 0 353 -96q147 -98 230 -267t83 -358q0 -270 -161 -469.5t-402 -226.5q-33 -4 -99 -4 h-507zM373 115h293q258 0 399 188q121 158 121 395q0 207 -72 333t-160 190q-119 86 -288 86h-293v-1192z" />
<glyph unicode="&#x1f2;" horiz-adv-x="2369" d="M1534 0v84l545 707l-516 -3v123h731v-82l-543 -702l549 2v-129h-766zM195 0v1421h503q207 0 353 -96q147 -98 230 -267t83 -358q0 -270 -161 -469.5t-402 -226.5q-33 -4 -99 -4h-507zM373 115h293q258 0 399 188q121 158 121 395q0 207 -72 333t-160 190q-119 86 -288 86 h-293v-1192z" />
<glyph unicode="&#x1f3;" horiz-adv-x="1949" d="M1114 0v84l545 707l-516 -3v123h731v-82l-543 -702l549 2v-129h-766zM72 453q0 203 105.5 342t258.5 139q156 0 297 -113v658h156v-1479h-162v106q-137 -129 -303 -129q-150 0 -251 139.5t-101 336.5zM231 455q0 -182 86 -266.5t191 -84.5q86 0 152.5 57.5t66.5 112.5 v392q0 27 -7 41t-36 38q-63 61 -152 62h-4q-49 0 -97 -18.5t-95 -56.5t-76 -109.5t-29 -167.5z" />
<glyph unicode="&#x1f4;" horiz-adv-x="1366" d="M406 1569l86 50l69 41l53 31l42 24l29 18q13 8 21.5 11t14.5 6t12 4t9 1h12h139l61 -2l-323 -162l-45 -20l-31 -2h-149zM135 711q0 199 84 370.5t237.5 278t344.5 106.5q213 0 409 -98l-30 -170q-96 72 -176 104.5t-199 32.5q-211 0 -348.5 -185t-137.5 -437 q0 -264 140.5 -445.5t343.5 -181.5q51 0 102 6t81 14l54 16q25 7 27 7v356h-272v127h432v-559q-213 -98 -426 -98q-281 0 -473.5 221.5t-192.5 534.5z" />
<glyph unicode="&#x1f5;" d="M307 1047l273 342h159l-307 -342h-125zM55 -145q0 133 131 211q-51 74 -51 155q0 92 60 172v2q-68 90 -68 203q0 133 92 233.5t234 100.5q100 0 200 -68l-4 4q152 63 322 64l22 -129q-61 6 -121 6q-14 0 -153 -8l-19 16q80 -104 80 -219q0 -133 -94 -233.5t-233 -100.5 q-33 0 -63 6t-51.5 15.5t-36.5 17.5t-26 16l-10 7q-23 -45 -22 -76q0 -45 26.5 -77t87.5 -32h154q72 0 122 -5t123.5 -22.5t125 -63.5t71.5 -118q10 -41 11 -75q0 -119 -133.5 -199t-321.5 -80q-190 0 -322.5 80t-132.5 197zM199 -145q0 -53 55 -91t122.5 -53.5t129.5 -15.5 q129 0 222 44t93 114q0 141 -305 141h-129l-59 -2q-59 -4 -94 -47t-35 -90zM270 598q0 -100 50.5 -157.5t134.5 -57.5q70 0 126 50t56 167q0 98 -50 156.5t-134 58.5q-70 0 -126.5 -50t-56.5 -167z" />
<glyph unicode="&#x1f8;" horiz-adv-x="1449" d="M449 1755h200q14 0 35 -8t55.5 -26.5t65.5 -37.5l89 -53l103 -61h-157q-23 0 -154 65zM195 0v1421h256l561 -1114l80 -164v1278h159v-1421h-256l-561 1114l-80 164v-1278h-159z" />
<glyph unicode="&#x1f9;" horiz-adv-x="1058" d="M311 1389h160l272 -342h-125zM164 0v922h149v-144q119 154 299 154q76 0 130.5 -22.5t83 -55.5t44 -83t19.5 -89t4 -92v-590h-160v575q0 111 -40 171.5t-161 60.5q-109 0 -158.5 -92t-49.5 -223v-492h-160z" />
<glyph unicode="&#x1fc;" horiz-adv-x="1763" d="M866 1569l86 50l70 41l53 31l42 24l29 18q13 8 21.5 11t14.5 6t12 4t9 1h11h140l61 -2l-323 -162l-45 -20l-31 -2h-150zM55 0l582 1421h1010v-135h-97l-47 2h-420l-45 2v-487h553v-127h-553v-533h133l50 2h331l43 2h80v-147h-819v455h-461l-186 -455h-154zM444 569h412 v721h-119z" />
<glyph unicode="&#x1fd;" horiz-adv-x="1478" d="M541 1047l272 342h160l-307 -342h-125zM94 233q0 88 79 150.5t203 90.5t281 32v65l-2 54q-6 84 -55 140t-123 56q-72 0 -135 -18.5t-95 -35.5t-79 -50l-12 137q162 90 323 90q57 0 107.5 -16.5t82 -40t54 -46t35.5 -38.5l10 -19q125 160 311 160q57 0 110.5 -20.5 t109 -69.5t88 -152.5t32.5 -250.5h-602q0 -2 1 -15.5t2 -23t4 -27.5t7 -32l11 -34q6 -20 14 -36.5t20.5 -37t27 -36.5t32.5 -33.5t41 -32.5q68 -39 137 -39q147 0 283 113l12 -135q-143 -104 -297 -105q-195 0 -336 158q-109 -158 -450 -158q-121 0 -176.5 85t-55.5 171z M244 236q0 -49 47 -90.5t141 -41.5q92 0 164 36t72 118q0 84 -9 133q-55 0 -116.5 -6t-134 -21.5t-118.5 -49t-46 -78.5zM829 563h469q-41 254 -217 254q-82 0 -154.5 -67.5t-97.5 -186.5z" />
<glyph unicode="&#x1fe;" horiz-adv-x="1593" d="M477 1657l86 50l70 41l53 31l42 24l29 18q13 8 21 11t14.5 6t12.5 4t9 1h11h140l61 -2l-324 -162l-45 -20l-30 -2h-150zM113 707q0 311 198.5 535t483.5 224q160 0 313 -84l98 172h2l113 -65l-107 -184q117 -98 190 -256t73 -342q0 -307 -198 -529.5t-484 -222.5 q-160 0 -314 84l-98 -172l-113 65l105 183q-129 111 -195.5 267.5t-66.5 324.5zM289 705q0 -287 157 -465l594 1028q-121 74 -245 73q-205 0 -355.5 -170.5t-150.5 -465.5zM549 154q133 -74 248 -74q88 0 174 38t161.5 110.5t121.5 197.5t46 283q0 279 -157 471h-2z" />
<glyph unicode="&#x1ff;" d="M295 1243l272 342h160l-307 -342h-125zM63 453q0 197 129.5 344t317.5 147q82 0 180 -43l133 238h2l109 -62l-139 -248q162 -162 161 -376q0 -197 -130 -336.5t-316 -139.5q-82 0 -176 39l-137 -245l-111 61l141 252q-164 142 -164 369zM217 451q0 -37 5 -71t10.5 -55.5 t15.5 -44t17 -32.5l18 -26q10 -15 12 -19l332 588q-61 27 -117 26q-115 0 -204 -93t-89 -273zM397 127q55 -23 113 -23q119 0 206 88.5t87 256.5q0 152 -76 260h-2z" />
<glyph unicode="&#x200;" horiz-adv-x="1366" d="M365 1911h159l131 -342h-127zM705 1911h161l129 -342h-125zM55 0l535 1421h182l533 -1421h-189l-158 418h-593l-156 -418h-154zM408 532h507q-244 682 -253 746q-14 -66 -71 -230l-117 -330q-60 -166 -66 -186z" />
<glyph unicode="&#x201;" horiz-adv-x="983" d="M139 1389h160l131 -342h-127zM479 1389h162l129 -342h-125zM90 231q0 76 57.5 132.5t150.5 84t182 41t179 13.5v69q-4 127 -53 189q-51 61 -129 61q-154 0 -307 -104l-12 137q158 90 325 90q139 0 232.5 -94t103.5 -225v-625h-155v72q-135 -94 -340 -95q-117 0 -175.5 83 t-58.5 171zM240 233q0 -57 54 -93t136 -36q90 0 159.5 37t69.5 125v129q-66 0 -130 -8t-133.5 -24.5t-112.5 -50.5t-43 -79z" />
<glyph unicode="&#x202;" horiz-adv-x="1366" d="M334 1571q4 133 108.5 210t237.5 77q135 0 238.5 -77t109.5 -210h-127q-4 61 -51 97t-88 44t-80 8q-41 0 -82 -8t-88 -44t-53 -97h-125zM55 0l535 1421h182l533 -1421h-189l-158 418h-593l-156 -418h-154zM408 532h507q-244 682 -253 746q-14 -66 -71 -230l-117 -330 q-60 -166 -66 -186z" />
<glyph unicode="&#x203;" horiz-adv-x="983" d="M109 1047q4 133 108.5 209.5t237.5 76.5q135 0 238.5 -76.5t109.5 -209.5h-127q-4 61 -51 97t-88 44t-80 8q-41 0 -82 -8t-88 -44t-54 -97h-124zM90 231q0 76 57.5 132.5t150.5 84t182 41t179 13.5v69q-4 127 -53 189q-51 61 -129 61q-154 0 -307 -104l-12 137 q158 90 325 90q139 0 232.5 -94t103.5 -225v-625h-155v72q-135 -94 -340 -95q-117 0 -175.5 83t-58.5 171zM240 233q0 -57 54 -93t136 -36q90 0 159.5 37t69.5 125v129q-66 0 -130 -8t-133.5 -24.5t-112.5 -50.5t-43 -79z" />
<glyph unicode="&#x204;" horiz-adv-x="1222" d="M348 1911h160l131 -342h-127zM688 1911h162l129 -342h-125zM193 0v1415h915v-135l-731 4v-485h676v-125h-676v-531l760 4v-147h-944z" />
<glyph unicode="&#x205;" horiz-adv-x="909" d="M143 1389h160l131 -342h-127zM483 1389h162l129 -342h-125zM70 463q0 195 119.5 338t293.5 143q61 0 116.5 -19.5t112 -64.5t93.5 -135t43 -215v-59h-635q6 -147 91 -247t212 -100q158 0 311 113l13 -135q-156 -104 -324 -105q-195 0 -320.5 144.5t-125.5 341.5zM223 563 h508q-12 80 -43 135.5t-72 79t-72.5 31.5t-60.5 8q-104 0 -172 -80t-88 -174z" />
<glyph unicode="&#x206;" horiz-adv-x="1222" d="M317 1571q4 133 108.5 210t238.5 77q135 0 238.5 -77t109.5 -210h-127q-4 61 -51.5 97t-88 44t-79.5 8q-41 0 -82 -8t-88 -44t-54 -97h-125zM193 0v1415h915v-135l-731 4v-485h676v-125h-676v-531l760 4v-147h-944z" />
<glyph unicode="&#x207;" horiz-adv-x="909" d="M113 1047q4 133 108.5 209.5t237.5 76.5q135 0 238.5 -76.5t109.5 -209.5h-127q-4 61 -51 97t-88 44t-80 8q-41 0 -82 -8t-88 -44t-53 -97h-125zM70 463q0 195 119.5 338t293.5 143q61 0 116.5 -19.5t112 -64.5t93.5 -135t43 -215v-59h-635q6 -147 91 -247t212 -100 q158 0 311 113l13 -135q-156 -104 -324 -105q-195 0 -320.5 144.5t-125.5 341.5zM223 563h508q-12 80 -43 135.5t-72 79t-72.5 31.5t-60.5 8q-104 0 -172 -80t-88 -174z" />
<glyph unicode="&#x208;" horiz-adv-x="569" d="M-31 1911h160l131 -342h-127zM309 1911h162l129 -342h-125zM193 0v1421h184v-1421h-184z" />
<glyph unicode="&#x209;" horiz-adv-x="489" d="M-72 1389h160l131 -342h-127zM268 1389h162l129 -342h-125zM166 0v911h153v-911h-153z" />
<glyph unicode="&#x20a;" horiz-adv-x="569" d="M-63 1571q4 133 108.5 210t237.5 77q135 0 238.5 -77t109.5 -210h-127q-4 61 -51 97t-88 44t-80 8q-41 0 -82 -8t-88 -44t-54 -97h-124zM193 0v1421h184v-1421h-184z" />
<glyph unicode="&#x20b;" horiz-adv-x="757" d="M166 1047q4 133 108.5 209.5t237.5 76.5q135 0 238.5 -76.5t109.5 -209.5h-127q-4 61 -51 97t-88 44t-80 8q-41 0 -82 -8t-88 -44t-53 -97h-125zM436 0v911h154v-911h-154z" />
<glyph unicode="&#x20c;" horiz-adv-x="1507" d="M436 1913h160l131 -342h-127zM776 1913h162l129 -342h-125zM113 707q0 317 189.5 538t451.5 221q258 0 447.5 -221t189.5 -538q0 -311 -185.5 -531.5t-453.5 -220.5q-256 0 -447.5 216.5t-191.5 535.5zM297 735q0 -266 128 -456.5t327 -190.5q195 0 325.5 187.5 t130.5 459.5q0 268 -135 434t-321 166q-193 0 -324 -170t-131 -430z" />
<glyph unicode="&#x20d;" d="M195 1389h159l131 -342h-127zM535 1389h161l129 -342h-125zM61 453q0 188 126 339.5t323 151.5q184 0 317.5 -144.5t133.5 -348.5q0 -203 -135.5 -338.5t-315.5 -135.5t-314.5 135.5t-134.5 340.5zM221 473q0 -168 83 -266t206 -98q115 0 202 93t87 271q0 158 -82 251 t-207 93q-113 0 -201 -86t-88 -258z" />
<glyph unicode="&#x20e;" horiz-adv-x="1507" d="M406 1571q4 133 108 210t238 77q135 0 238.5 -77t109.5 -210h-127q-4 61 -51.5 97t-88 44t-79.5 8q-41 0 -82 -8t-88 -44t-54 -97h-124zM113 707q0 317 189.5 538t451.5 221q258 0 447.5 -221t189.5 -538q0 -311 -185.5 -531.5t-453.5 -220.5q-256 0 -447.5 216.5 t-191.5 535.5zM297 735q0 -266 128 -456.5t327 -190.5q195 0 325.5 187.5t130.5 459.5q0 268 -135 434t-321 166q-193 0 -324 -170t-131 -430z" />
<glyph unicode="&#x20f;" d="M164 1047q4 133 108.5 209.5t237.5 76.5q135 0 238.5 -76.5t109.5 -209.5h-127q-4 61 -51 97t-88 44t-80 8q-41 0 -82 -8t-88 -44t-53 -97h-125zM61 453q0 188 126 339.5t323 151.5q184 0 317.5 -144.5t133.5 -348.5q0 -203 -135.5 -338.5t-315.5 -135.5t-314.5 135.5 t-134.5 340.5zM221 473q0 -168 83 -266t206 -98q115 0 202 93t87 271q0 158 -82 251t-207 93q-113 0 -201 -86t-88 -258z" />
<glyph unicode="&#x210;" horiz-adv-x="1323" d="M414 1911h159l132 -342h-127zM754 1911h161l129 -342h-124zM195 0v1421h462q147 0 259 -37.5t172.5 -98t89 -123t28.5 -122.5q0 -117 -89 -220t-261 -152l408 -668h-185l-383 647h-323v-647h-178zM373 774h233q164 0 240 27q98 33 146 97.5t48 139.5q0 45 -18 88t-59 86 t-122 69t-192 26h-276v-533z" />
<glyph unicode="&#x211;" horiz-adv-x="700" d="M102 1389h160l131 -342h-127zM442 1389h162l129 -342h-125zM166 0v922h143v-185q137 193 359 195v-137q-51 -2 -105.5 -19.5t-112 -56.5t-94.5 -116t-37 -181v-422h-153z" />
<glyph unicode="&#x212;" horiz-adv-x="1323" d="M383 1571q4 133 108.5 210t237.5 77q135 0 238.5 -77t109.5 -210h-127q-4 61 -51 97t-88 44t-80 8q-41 0 -82 -8t-88 -44t-53 -97h-125zM195 0v1421h462q147 0 259 -37.5t172.5 -98t89 -123t28.5 -122.5q0 -117 -89 -220t-261 -152l408 -668h-185l-383 647h-323v-647 h-178zM373 774h233q164 0 240 27q98 33 146 97.5t48 139.5q0 45 -18 88t-59 86t-122 69t-192 26h-276v-533z" />
<glyph unicode="&#x213;" horiz-adv-x="700" d="M70 1047q4 133 108.5 209.5t237.5 76.5q135 0 238.5 -76.5t109.5 -209.5h-127q-4 61 -51 97t-88 44t-80 8q-41 0 -82 -8t-88 -44t-53 -97h-125zM166 0v922h143v-185q137 193 359 195v-137q-51 -2 -105.5 -19.5t-112 -56.5t-94.5 -116t-37 -181v-422h-153z" />
<glyph unicode="&#x214;" horiz-adv-x="1406" d="M387 1911h160l131 -342h-127zM727 1911h162l129 -342h-125zM193 526v895h184v-850q0 -141 4 -168q14 -135 100 -234t228 -99q129 0 230 93t114 271v987h161v-876q0 -2 1.5 -21.5t0 -34t-2.5 -42t-5 -50t-11 -53.5t-19.5 -59.5l-27.5 -60t-37.5 -62.5t-51.5 -60 q-147 -147 -352 -147q-197 0 -341.5 129t-170.5 317q-4 43 -4 125z" />
<glyph unicode="&#x215;" horiz-adv-x="1058" d="M213 1389h160l131 -342h-127zM553 1389h162l129 -342h-125zM164 250v661h160v-686q2 -72 33.5 -102.5t129.5 -30.5q106 0 171 56.5t73 130.5q2 20 2 59v573h160v-911h-156v98q-137 -121 -358 -121q-61 0 -104.5 19.5t-65 44.5t-32.5 69t-12 69.5t-1 70.5z" />
<glyph unicode="&#x216;" horiz-adv-x="1406" d="M356 1571q4 133 108.5 210t237.5 77q135 0 238.5 -77t110.5 -210h-127q-4 61 -51.5 97t-88.5 44t-79 8q-41 0 -82 -8t-88.5 -44t-53.5 -97h-125zM193 526v895h184v-850q0 -141 4 -168q14 -135 100 -234t228 -99q129 0 230 93t114 271v987h161v-876q0 -2 1.5 -21.5t0 -34 t-2.5 -42t-5 -50t-11 -53.5t-19.5 -59.5l-27.5 -60t-37.5 -62.5t-51.5 -60q-147 -147 -352 -147q-197 0 -341.5 129t-170.5 317q-4 43 -4 125z" />
<glyph unicode="&#x217;" horiz-adv-x="1058" d="M182 1047q4 133 108.5 209.5t237.5 76.5q135 0 238.5 -76.5t110.5 -209.5h-127q-4 61 -51.5 97t-88.5 44t-80 8q-41 0 -81.5 -8t-88 -44t-53.5 -97h-125zM164 250v661h160v-686q2 -72 33.5 -102.5t129.5 -30.5q106 0 171 56.5t73 130.5q2 20 2 59v573h160v-911h-156v98 q-137 -121 -358 -121q-61 0 -104.5 19.5t-65 44.5t-32.5 69t-12 69.5t-1 70.5z" />
<glyph unicode="&#x218;" horiz-adv-x="1136" d="M496 -147h118v-101q-6 -45 -30.5 -113.5t-28.5 -84.5h-59l36 178h-36v121zM90 96l31 170q209 -170 438 -170q129 0 214 81t85 190q0 80 -48 147.5t-128 97.5q-39 16 -119 35t-140.5 35t-132 62.5t-118.5 117.5q-57 90 -59 201q0 158 128 280.5t334 122.5q193 0 375 -98 l-28 -170q-86 68 -161 99.5t-188 31.5q-133 0 -215 -72.5t-82 -169.5q0 -74 46.5 -132t117.5 -87q25 -10 147 -39.5t161 -46.5q111 -45 192.5 -149.5t81.5 -245.5q0 -174 -130 -303t-333 -129q-246 0 -469 141z" />
<glyph unicode="&#x219;" horiz-adv-x="784" d="M336 -125h119v-100q-6 -45 -31 -114t-29 -85h-59l37 178h-37v121zM55 70l25 139q63 -37 92 -52.5t93.5 -33t135.5 -17.5q102 0 146.5 43.5t44.5 96.5t-36 86t-79 45q-20 6 -91 20.5t-105 24.5q-82 25 -147.5 89t-65.5 163q0 47 14 89t48 86t104.5 69.5t168.5 25.5 q150 0 299 -63l-22 -136q-2 2 -23.5 11.5t-24.5 11.5t-22.5 10t-27 10.5t-25.5 9.5t-28.5 8t-30 6t-34.5 6t-35.5 2t-43.5 1q-94 0 -133 -38t-39 -87q0 -68 56.5 -98.5t154.5 -48t135 -33.5q74 -35 126 -99.5t52 -156.5q0 -109 -75.5 -196t-258.5 -87q-180 1 -348 93z" />
<glyph unicode="&#x21a;" horiz-adv-x="1392" d="M635 -102h119v-101q-6 -45 -31 -113.5t-29 -84.5h-59l37 178h-37v121zM72 1276v135h1245v-135l-531 2v-1278h-182v1278z" />
<glyph unicode="&#x21b;" horiz-adv-x="739" d="M299 -125h119v-100q-6 -45 -31 -114t-29 -85h-59l37 178h-37v121zM37 791v120h176v258h143v-258h289v-120h-289v-504q0 -178 111 -178q33 0 65.5 9t51 19t40 23.5t23.5 15.5l33 -121q-145 -78 -303 -78q-166 0 -168 263v551h-172z" />
<glyph unicode="&#x21e;" horiz-adv-x="1449" d="M393 1761h127l205 -139l203 139h71l56 -2q-252 -180 -267 -186q-10 -4 -26 -4h-74q-8 0 -17 3t-24.5 10t-28 15.5l-37.5 26.5l-47 35l-64 46zM193 0v1421h184v-618h696v618h184v-1421h-184v676h-696v-676h-184z" />
<glyph unicode="&#x21f;" horiz-adv-x="1058" d="M197 1774h127l204 -140l203 140h72l55 -2q-252 -180 -266 -187q-10 -4 -27 -4h-73q-8 0 -17.5 3t-25 10.5t-27.5 15.5l-38 26l-47 35l-64 46zM164 0v1479h153v-693q127 145 295 146q78 0 133.5 -24.5t83 -58.5t43 -86t18.5 -88t3 -85v-590h-160v575q0 111 -40 171.5 t-161 60.5q-109 0 -158.5 -92t-49.5 -223v-492h-160z" />
<glyph unicode="&#x221;" horiz-adv-x="1171" d="M72 455q0 195 103.5 337t260.5 142q162 0 299 -115v604h154v-1108q76 27 115 27q84 0 148.5 -58.5t64.5 -146.5q0 -80 -63.5 -131t-154.5 -51q-147 0 -239 129q-49 -55 -88 -110.5t-53.5 -78t-52.5 -99.5t-48 -95h-160l39 78l78 139l47 72q-66 -12 -98 -13 q-141 0 -246.5 134.5t-105.5 343.5zM231 457q0 -184 87.5 -268.5t191.5 -84.5q86 0 145.5 52.5t71.5 93.5q2 8 2 45v399q-2 2 -9 12l-10 13q-3 4 -12.5 14l-15.5 16l-17 14q-11 9 -20.5 14t-23 11.5t-26.5 10.5t-30.5 6t-34.5 2q-113 0 -206 -85t-93 -265zM891 180 q35 -102 125 -102q31 0 51 16.5t20 42.5q0 31 -26.5 53.5t-65.5 22.5q-22 0 -104 -33z" />
<glyph unicode="&#x225;" horiz-adv-x="1003" d="M55 0v102l533 682h-318l-49 -2h-137v129h733v-86l-524 -673h229q205 0 307.5 -97.5t102.5 -210.5q0 -98 -76 -161.5t-182 -63.5q-92 0 -180 41l22 123q98 -39 156 -39q47 0 75.5 28.5t28.5 69.5q0 59 -58.5 108.5t-193.5 49.5h-469z" />
<glyph unicode="&#x226;" horiz-adv-x="1366" d="M588 1569v182h184v-182h-184zM55 0l535 1421h182l533 -1421h-189l-158 418h-593l-156 -418h-154zM408 532h507q-244 682 -253 746q-14 -66 -71 -230l-117 -330q-60 -166 -66 -186z" />
<glyph unicode="&#x227;" horiz-adv-x="983" d="M391 1047v182h184v-182h-184zM90 231q0 76 57.5 132.5t150.5 84t182 41t179 13.5v69q-4 127 -53 189q-51 61 -129 61q-154 0 -307 -104l-12 137q158 90 325 90q139 0 232.5 -94t103.5 -225v-625h-155v72q-135 -94 -340 -95q-117 0 -175.5 83t-58.5 171zM240 233 q0 -57 54 -93t136 -36q90 0 159.5 37t69.5 125v129q-66 0 -130 -8t-133.5 -24.5t-112.5 -50.5t-43 -79z" />
<glyph unicode="&#x22e;" horiz-adv-x="1507" d="M659 1569v182h185v-182h-185zM113 707q0 317 189.5 538t451.5 221q258 0 447.5 -221t189.5 -538q0 -311 -185.5 -531.5t-453.5 -220.5q-256 0 -447.5 216.5t-191.5 535.5zM297 735q0 -266 128 -456.5t327 -190.5q195 0 325.5 187.5t130.5 459.5q0 268 -135 434t-321 166 q-193 0 -324 -170t-131 -430z" />
<glyph unicode="&#x22f;" d="M420 1047v182h184v-182h-184zM61 453q0 188 126 339.5t323 151.5q184 0 317.5 -144.5t133.5 -348.5q0 -203 -135.5 -338.5t-315.5 -135.5t-314.5 135.5t-134.5 340.5zM221 473q0 -168 83 -266t206 -98q115 0 202 93t87 271q0 158 -82 251t-207 93q-113 0 -201 -86 t-88 -258z" />
<glyph unicode="&#x232;" horiz-adv-x="1366" d="M57 1610q0 41 70 41h1110q68 0 68 -41t-58 -41h-1120q-70 0 -70 41zM4 1421h215l301 -436q164 -246 178 -272l44 70l75 114l91 135l96 140l85 123l62 89l25 37h180l-586 -852v-569h-178v569z" />
<glyph unicode="&#x233;" horiz-adv-x="944" d="M102 1047v131h738v-131h-738zM29 911h161l147 -342q58 -139 86 -220t38 -114.5t17 -76.5l9 -56q2 82 66.5 272.5t134.5 362.5l72 174h153l-444 -1095q-59 -137 -110.5 -186.5t-125.5 -49.5q-84 0 -149 17l-10 133q104 -35 149 -35q55 0 90 51t101 223q8 18 8 33 q0 8 -10 35z" />
<glyph unicode="&#x235;" horiz-adv-x="1171" d="M164 0v922h149v-144q119 154 299 154q80 0 135.5 -25.5t83 -59.5t43 -89.5t17.5 -89t2 -86.5v-269q66 29 115 29q82 0 146.5 -58.5t64.5 -146.5q0 -84 -67 -133t-151 -49q-43 0 -81.5 12.5t-64.5 28.5t-45 33.5t-27.5 29t-8.5 13.5q-20 -23 -38 -47l-37 -55 q-19 -30 -30 -49l-32 -57l-28 -51q-7 -13 -29 -59l-27 -53h-162q188 383 342 510v375q0 104 -42 162.5t-159 58.5q-82 0 -145 -72.5t-63 -253.5v-481h-160zM897 178q14 -51 49 -75.5t72 -24.5q31 0 51.5 16.5t20.5 42.5q0 33 -28 54.5t-63 21.5q-39 0 -102 -35z" />
<glyph unicode="&#x236;" horiz-adv-x="739" d="M-80 -299q78 303 289 479v611h-170v120h176v258h143v-258h289v-120h-289v-517q92 41 162 41q78 0 139.5 -44t61.5 -121q0 -59 -36 -100.5t-95.5 -60t-112.5 -26.5t-106 -8q-84 0 -125 68q-109 -117 -166 -322h-160zM377 133q43 -47 123 -47q49 0 72.5 22.5t17.5 51.5 q-10 31 -55 30q-60 0 -158 -57z" />
<glyph unicode="&#x237;" horiz-adv-x="546" d="M-125 -350l41 125q76 -63 154 -64q61 0 102 31t49 74q4 16 4 51v1044h154v-1013q0 -168 -80 -243t-178 -75q-125 0 -246 70z" />
<glyph unicode="&#x238;" horiz-adv-x="1705" d="M72 455q0 197 107.5 337t264.5 140q184 0 330 -119v610h154v-610q147 119 329 119q164 0 268.5 -141.5t104.5 -329.5q0 -201 -122 -342.5t-298 -141.5q-147 0 -276 117v-94h-160v121q-152 -143 -338 -144q-145 0 -254.5 134.5t-109.5 343.5zM231 453q0 -162 85 -255.5 t212 -93.5q92 0 159 57.5t79 98.5q2 10 2 35v362q0 55 -68.5 102.5t-148.5 47.5q-49 0 -100.5 -16.5t-102.5 -53.5t-84 -110.5t-33 -173.5zM934 272q0 -16 1 -25t4 -18.5t5 -12.5t10 -14l15 -20q66 -80 164 -80q137 0 237 92.5t100 260.5q0 160 -90 256t-225 96 q-84 0 -152.5 -48t-68.5 -104v-383z" />
<glyph unicode="&#x239;" horiz-adv-x="1705" d="M72 453q0 199 113.5 339t281.5 140t307 -148v148h154v-121q150 121 338 121q158 0 261 -141.5t103 -331.5q0 -197 -119.5 -339.5t-300.5 -142.5q-156 0 -282 123v-499h-160v510q-154 -133 -338 -134q-156 0 -257 143t-101 333zM231 455q0 -141 85 -246t214 -105 q90 0 167 59.5t77 127.5v284q0 70 -62.5 148t-162.5 78q-125 0 -221.5 -99.5t-96.5 -246.5zM928 283q0 -20 2 -32.5t4 -18t13 -18.5t16 -21q63 -88 172 -89q131 0 233 100.5t102 252.5q0 135 -90 239.5t-227 104.5q-84 0 -154.5 -50.5t-70.5 -107.5v-360z" />
<glyph unicode="&#x250;" horiz-adv-x="985" d="M164 285v626h153v-73q135 96 342 96q115 0 174.5 -82t59.5 -172q0 -76 -57.5 -132t-150.5 -85t-183 -41t-178 -12v-70l2 -55q6 -84 55 -140.5t125 -56.5q72 0 135.5 19.5t94 37t77.5 50.5l12 -140q-158 -88 -321 -88q-141 0 -235.5 93.5t-104.5 224.5zM324 514 q55 0 115.5 7t134 23.5t121.5 50.5t48 81q0 8 -4 29q-14 49 -67.5 75.5t-118.5 26.5q-88 0 -158.5 -37t-70.5 -123v-133z" />
<glyph unicode="&#x251;" horiz-adv-x="1058" d="M72 455q0 195 103.5 336t260.5 141q166 0 299 -113v113h154v-932h-160v106q-141 -129 -305 -129q-143 0 -247.5 137.5t-104.5 340.5zM231 457q0 -184 87.5 -268.5t191.5 -84.5q84 0 151.5 57.5t67.5 114.5v418q-2 2 -9 12l-10 13q-3 4 -12.5 14l-15.5 16l-17 14 q-11 9 -20.5 14t-23 11.5t-26.5 10.5t-30.5 6t-34.5 2q-113 0 -206 -85t-93 -265z" />
<glyph unicode="&#x252;" horiz-adv-x="1058" d="M166 0v922h153v-109q150 119 334 119q152 0 241 -148.5t89 -324.5q0 -205 -111.5 -343.5t-267.5 -138.5q-154 0 -278 119v-96h-160zM326 274q0 -16 1 -25t5 -19.5t5 -12.5t11 -15.5t14 -19.5q63 -78 164 -78q111 0 204 85t93 268q0 96 -27.5 168.5t-71.5 109.5t-89 54.5 t-90 17.5q-29 0 -56.5 -6t-47 -15.5t-37 -21.5t-27.5 -21.5l-20 -18.5l-11 -11q-20 -31 -20 -56v-383z" />
<glyph unicode="&#x253;" horiz-adv-x="1138" d="M205 0v1034q0 201 146.5 317.5t338.5 116.5q84 0 156 -25.5t102.5 -49t73.5 -62.5l-49 -129q-109 139 -281 139q-37 0 -78 -8t-88 -29.5t-82.5 -55.5t-60.5 -89t-25 -127v-225q162 125 361 125q150 0 246 -141.5t96 -331.5q0 -203 -115 -342.5t-280 -139.5 q-160 0 -301 127v-104h-160zM365 276q0 -57 64.5 -114.5t154.5 -57.5q125 0 221 87.5t96 265.5q0 166 -85 258t-212 92q-143 0 -239 -127v-404z" />
<glyph unicode="&#x254;" horiz-adv-x="909" d="M55 829q162 104 334 105q188 0 316.5 -140.5t128.5 -338.5q0 -193 -123 -341.5t-328 -148.5q-102 0 -164.5 20.5t-152.5 77.5l24 138q94 -68 152 -84q59 -18 143 -19q139 0 214 105.5t75 251.5q0 152 -80 249t-207 97q-162 0 -319 -109z" />
<glyph unicode="&#x255;" horiz-adv-x="909" d="M51 -299l193 377q-76 61 -123 161.5t-47 217.5q0 197 126 342t320 145q104 0 167 -18.5t155 -71.5l-25 -135l-22 14q-20 14 -22.5 15.5t-22 12.5t-25.5 13t-24.5 10.5t-28.5 10.5t-29.5 7t-35 6t-37 3t-44.5 2q-141 0 -217 -103.5t-76 -252.5q0 -147 80 -250 q117 195 303 194q104 0 176 -54t72 -140q0 -113 -108.5 -171.5t-239.5 -58.5q-78 0 -168 35q-8 -16 -74.5 -132t-97.5 -179h-125zM414 129q59 -20 108 -20q203 0 203 96q0 31 -29.5 50t-74.5 19q-55 0 -112.5 -34.5t-94.5 -110.5z" />
<glyph unicode="&#x256;" horiz-adv-x="1097" d="M72 455q0 197 107.5 337t264.5 140q184 0 330 -119v610h154v-1505l2 -70q2 -61 33.5 -113t93.5 -52q96 0 145 112l47 -127q-23 -33 -40 -52t-60 -39.5t-98 -20.5q-102 0 -192.5 82.5t-90.5 246.5v230q-152 -137 -330 -138q-160 0 -263 142.5t-103 335.5zM231 453 q0 -160 84 -254.5t213 -94.5q53 0 100.5 20.5t75 49.5t43 51.5t19.5 34.5q2 10 2 35v362q0 53 -67.5 101.5t-157.5 48.5q-125 0 -218.5 -91t-93.5 -263z" />
<glyph unicode="&#x257;" horiz-adv-x="1058" d="M72 455q0 195 103.5 337t260.5 142q37 0 72 -6t63.5 -15.5t53 -20.5t44 -23.5l33 -21.5t19.5 -16l8 -6v211q0 113 35 200t89 135t113.5 72.5t116.5 24.5q47 0 85 -16t56.5 -38.5t28 -40t9.5 -25.5q0 -10 -43 -127q-41 121 -134 120q-74 0 -135 -74.5t-61 -232.5v-1034 h-160v106q-141 -129 -305 -129q-143 0 -247.5 137.5t-104.5 340.5zM231 457q0 -184 87.5 -268.5t191.5 -84.5q84 0 151.5 57.5t67.5 114.5v418q-2 2 -9 12l-10 13q-3 4 -12.5 14l-15.5 16l-17 14q-11 9 -20.5 14t-23 11.5t-26.5 10.5t-30.5 6t-34.5 2q-113 0 -206 -85 t-93 -265z" />
<glyph unicode="&#x258;" horiz-adv-x="909" d="M59 451q8 268 117 389q96 104 250 104q166 0 289 -139t123 -342q0 -197 -125 -341.5t-320 -144.5q-170 0 -325 105l12 135q156 -113 313 -113q119 0 207 96.5t94 250.5h-635zM176 563h508q-20 98 -89 176t-171 78q-29 0 -58.5 -8t-71.5 -31.5t-74 -79t-44 -135.5z" />
<glyph unicode="&#x259;" horiz-adv-x="909" d="M55 461h654q-6 145 -95.5 245.5t-222.5 100.5q-156 0 -313 -113l-12 133q158 104 327 105q190 0 324.5 -140.5t134.5 -342.5q0 -197 -124 -339.5t-300 -142.5q-61 0 -118.5 19.5t-114 63.5t-94.5 134t-44 215zM174 346q2 -31 15.5 -68.5t40 -81.5t76.5 -74t118 -30 q88 0 163 63.5t109 190.5h-522z" />
<glyph unicode="&#x25a;" horiz-adv-x="1308" d="M55 301l525 404q-90 102 -207 102q-150 0 -295 -113l-12 133q145 104 305 105q190 0 315 -144l188 144h162v-270q0 -25 3 -42.5t8.5 -26.5t10.5 -13.5t11 -8.5t8 -4h15q47 0 55 68h160q-4 -94 -70 -145.5t-145 -51.5q-76 0 -147 50.5t-71 164.5v156l-131 -100v-2 q68 -111 68 -258q0 -193 -115.5 -337.5t-296.5 -144.5q-61 0 -115.5 14.5t-108.5 49.5t-86 104.5t-34 165.5zM215 301q2 -63 20.5 -107t49 -64.5t58.5 -29t58 -8.5q115 0 191 105.5t76 251.5q0 90 -35 174z" />
<glyph unicode="&#x25b;" horiz-adv-x="854" d="M68 272q0 150 190 236q-168 72 -168 186q0 250 356 250q84 0 152 -14.5t98.5 -28.5t87.5 -45l-24 -137q-68 43 -98.5 59.5t-85 28.5t-134.5 12h-6q-195 -4 -194 -129q0 -53 57 -92t182 -41l2 -4l119 4v-115h-135q-156 0 -211 -65q-33 -45 -33 -98q0 -84 74 -126t170 -42 q150 0 315 108l13 -137q-164 -104 -353 -105q-109 0 -187.5 29t-116.5 76t-54 94t-16 96z" />
<glyph unicode="&#x25c;" horiz-adv-x="966" d="M84 113l25 137q164 -168 372 -168q109 0 172.5 51t63.5 121q0 66 -59.5 121t-188.5 55h-74v125q4 0 30 1t42 2t47 6t51.5 10.5t46 16.5t41 24.5t25.5 35t10 45.5q0 51 -51 95.5t-156 44.5q-43 0 -85 -8.5t-75.5 -21.5t-62.5 -28.5t-50.5 -31t-36.5 -28.5l-26 -22l-10 -10 l-22 133q168 137 370 137q152 0 259.5 -74.5t107.5 -185.5q0 -43 -16.5 -80.5t-41 -62.5t-49 -41t-43.5 -25l-16 -10q195 -80 195 -225q0 -113 -111 -205t-285 -92q-221 0 -399 158z" />
<glyph unicode="&#x25d;" horiz-adv-x="1308" d="M84 113l25 137q164 -168 372 -168q111 0 173.5 51t62.5 121q0 66 -58.5 121t-187.5 55h-74v125l25 2h39q16 0 46 4t51.5 10.5t48 16.5t43 24.5t27.5 36t11 47.5q0 51 -50 95.5t-155 44.5q-59 0 -115.5 -14.5t-96.5 -37t-68.5 -43t-47 -38t-20.5 -17.5l-22 133 q168 137 370 137q74 0 137.5 -18t100.5 -44t62.5 -50.5t35.5 -42.5l10 -19l191 150h96v-270q0 -80 72 -80q59 2 69 53h97q-4 -94 -57.5 -136t-108.5 -42q-63 0 -115.5 47t-52.5 149v203l-170 -133v-25q0 -139 -164 -221q193 -82 193 -225q0 -115 -111 -206t-285 -91 q-221 0 -399 158z" />
<glyph unicode="&#x25e;" d="M55 471q0 197 130 341t331 144q199 0 318 -108q74 -70 73 -152q0 -145 -172 -221q201 -80 201 -223q0 -123 -125 -210t-295 -87q-201 0 -331 154.5t-130 361.5zM215 469q0 -141 77 -264t224 -123q109 0 182.5 50t73.5 122q0 66 -65.5 121t-212.5 55h-41v125l39 2 q37 2 60 4t64 11.5t66 23.5t44 40t19 60q0 53 -58 96.5t-169 43.5q-133 0 -218 -106.5t-85 -260.5z" />
<glyph unicode="&#x25f;" horiz-adv-x="626" d="M-84 -350l41 125q78 -63 154 -64q57 0 106 34t49 110q0 4 -1 13t-1 15v525h-198v120h198v383h156v-383h172v-120h-172v-502q0 -82 -12 -123q-20 -82 -85 -142.5t-161 -60.5q-123 0 -246 70z" />
<glyph unicode="&#x260;" horiz-adv-x="1097" d="M72 457q0 195 110.5 335t274.5 140q152 0 274 -131v205q0 158 102.5 238.5t225.5 80.5q41 0 74.5 -9t57 -25.5t37 -30t25.5 -31.5l13 -17l-47 -127q-18 37 -30.5 55.5t-46.5 39t-81 20.5q-72 0 -120 -48t-54 -110l-2 -47v-362h4v-617q0 -201 -110.5 -330.5t-286.5 -129.5 q-178 0 -351 112v135q84 -59 164 -90.5t193 -31.5q86 0 157.5 80.5t71.5 256.5v166q-135 -143 -309 -143q-143 0 -244.5 120t-101.5 296zM231 459q0 -123 82 -207t193 -84q98 0 158.5 80t62.5 203h4v143q0 70 -55 141.5t-148 71.5q-119 0 -208 -103.5t-89 -244.5z" />
<glyph unicode="&#x261;" horiz-adv-x="1058" d="M72 459q0 195 112.5 334t272.5 139q154 0 278 -135v135h154v-914q0 -207 -111.5 -334.5t-275.5 -127.5q-190 0 -361 112v135l23 -16q25 -16 36 -22.5l38.5 -22.5t52 -24.5t58.5 -18.5t72 -14t79 -4q86 0 157.5 81.5t71.5 262.5v112q0 33 -2 49q-53 -63 -130 -99t-114 -41 t-65 -5q-143 0 -244.5 119t-101.5 299zM231 457q0 -115 79 -202t196 -87q98 0 158.5 80t64.5 203h6v133q0 70 -54 146.5t-151 76.5q-121 0 -210 -102.5t-89 -247.5z" />
<glyph unicode="&#x262;" horiz-adv-x="983" d="M92 457q0 197 137.5 340t341.5 143q147 0 289 -61l-26 -152l-11 10q-12 10 -18 16.5t-21.5 17.5t-29 19.5t-35 17.5t-41 15t-46 10.5t-54.5 4.5q-141 0 -233.5 -114t-92.5 -269q0 -154 92 -268.5t231 -114.5q39 0 136 18v178h-142v117h301v-352q-150 -63 -297 -64 q-205 0 -343 143.5t-138 344.5z" />
<glyph unicode="&#x263;" horiz-adv-x="944" d="M29 911h159q272 -657 287 -735q8 51 75 220l136 335q70 166 74 180h153l-350 -839q4 -4 33 -38t40 -51l32 -51q20 -33 28.5 -66.5t8.5 -68.5q0 -94 -65 -167.5t-167 -73.5q-98 0 -162.5 72.5t-64.5 166.5q0 35 8 68t28 65l29 49q10 16 40 50t32 39zM385 -205 q0 -49 24.5 -80.5t63.5 -31.5t62.5 31.5t23.5 80.5q0 80 -86 191q-88 -111 -88 -191z" />
<glyph unicode="&#x264;" horiz-adv-x="1081" d="M16 752q4 96 67.5 150t145.5 54q66 0 123.5 -32.5t96 -86t57 -84t33.5 -63.5h2q14 33 32.5 63.5t57.5 84t96 86t123 32.5q84 0 146.5 -55t66.5 -149l-152 -25q-2 53 -26.5 80t-57.5 27q-27 0 -51 -19.5t-35.5 -38t-31 -56.5t-23.5 -44l-57 -119q-6 -14 -7 -22.5t2 -14.5 t3 -10q119 -246 127 -279q4 -20 4 -49q0 -88 -61.5 -157.5t-155.5 -69.5q-96 0 -157.5 68.5t-61.5 160.5q0 68 66.5 197t70.5 149q-2 14 -47 105q-39 80 -55.5 110.5t-45 59.5t-59.5 29t-56.5 -26t-27.5 -81zM471 174q0 -92 68 -92q70 0 69 92q0 39 -12 76t-33 76l-24 47 q-68 -138 -68 -199z" />
<glyph unicode="&#x265;" horiz-adv-x="1058" d="M164 322v589h160v-577q0 -111 41 -170.5t159 -59.5q109 0 159 92.5t50 223.5v491h160v-1321h-154v535q-84 -94 -168 -125q-59 -23 -127 -23q-78 0 -133 25t-82.5 58.5t-43 86t-18.5 88.5t-3 87z" />
<glyph unicode="&#x266;" horiz-adv-x="1058" d="M164 0v1038h2v56q0 178 138 276t317 98q100 0 168.5 -29.5t138.5 -92.5l-47 -127q-53 63 -112.5 92.5t-150.5 29.5q-61 0 -123.5 -18t-117.5 -78.5t-55 -152.5v-54h-5v-252q125 145 295 146q78 0 134.5 -25.5t84 -59.5t43 -88t17.5 -87t2 -82v-590h-160v578q0 47 -5 79.5 t-23.5 71.5t-61.5 58.5t-111 19.5q-109 0 -158.5 -92t-49.5 -223v-492h-160z" />
<glyph unicode="&#x267;" horiz-adv-x="1040" d="M164 0v1038h2v56q0 123 70.5 212t166 125.5t199.5 36.5q74 0 135.5 -22.5t90 -43t65.5 -56.5l-47 -127q-27 35 -47.5 54t-74.5 43.5t-122 24.5q-59 0 -117.5 -18t-110.5 -78.5t-52 -152.5v-54h-5v-252q125 145 295 146q80 0 136.5 -26.5t83 -60.5t42 -89.5t17.5 -87 t2 -80.5v-705q0 -150 -96.5 -238.5t-231.5 -88.5q-66 0 -121 23.5t-72.5 39.5t-45.5 47l45 129q74 -113 192 -112q66 0 118 48t52 165v686q0 109 -41 167t-162 58q-80 0 -143 -72.5t-63 -245.5v-489h-160z" />
<glyph unicode="&#x268;" horiz-adv-x="671" d="M51 408v120h205v383h154v-383h204v-120h-204v-408h-154v408h-205zM242 1208v183h184v-183h-184z" />
<glyph unicode="&#x269;" horiz-adv-x="681" d="M203 244v667h159v-665q-2 -68 25 -105t62 -37q31 0 47 28t21 64.5t9 106.5h160q-8 -143 -70.5 -234.5t-164.5 -91.5q-33 0 -72 12.5t-80 40t-68.5 83t-27.5 131.5z" />
<glyph unicode="&#x26a;" horiz-adv-x="391" d="M115 0v911h159v-911h-159z" />
<glyph unicode="&#x26b;" horiz-adv-x="784" d="M80 635q4 84 58.5 134t127.5 50q16 0 49 -4v608h154v-657q6 -6 41 -6q61 0 68 59h127q-4 -86 -60.5 -135t-128.5 -49q-14 0 -47 4v-639h-154v688q-29 4 -41 4q-57 0 -69 -57h-125z" />
<glyph unicode="&#x26c;" horiz-adv-x="716" d="M39 639q0 90 62.5 168t179.5 100v516h153v-862q94 43 178 125l82 -94v-2q-127 -119 -260 -156v-434h-153v416l-15 2q-14 2 -34.5 7t-46 13t-51 25.5t-47 40t-35 57.5t-13.5 78zM164 639q0 -100 117 -113v252q-117 -41 -117 -139z" />
<glyph unicode="&#x26d;" horiz-adv-x="528" d="M166 -106v1529h153v-1505l3 -70q4 -61 35.5 -113t91.5 -52q100 0 145 112l47 -127q-76 -113 -197 -112q-104 0 -191 82t-87 256z" />
<glyph unicode="&#x26e;" horiz-adv-x="1077" d="M166 0v1423h153v-512h687v-51l-5 -35l-14 -26l-303 -420q131 -35 236.5 -134.5t105.5 -248.5q0 -162 -120 -289t-310 -127q-225 0 -401 170l47 131q61 -66 88 -86q119 -90 264 -90q141 0 206.5 91t65.5 196q0 109 -108.5 194.5t-341.5 85.5l366 506h-463v-778h-153z" />
<glyph unicode="&#x26f;" horiz-adv-x="1626" d="M164 322v589h160v-577q0 -109 39.5 -169.5t160.5 -60.5q109 0 159 92.5t50 221.5v493h160v-577q0 -109 39 -169.5t160 -60.5q109 0 160 92.5t51 223.5q0 2 -1.5 6t-1.5 6v479h162v-921h-149v143q-121 -156 -301 -156q-63 0 -112.5 17.5t-75 42t-42 49.5t-22.5 42t-8 17 q-115 -168 -308 -168q-78 0 -134 27t-83.5 60.5t-43 89t-17.5 88.5t-2 80z" />
<glyph unicode="&#x270;" horiz-adv-x="1626" d="M164 322v589h160v-577q0 -109 39.5 -169.5t160.5 -60.5q109 0 159 92.5t50 221.5v493h160v-577q0 -109 39 -169.5t160 -60.5q109 0 160 92.5t51 223.5q0 2 -1.5 6t-1.5 6v479h162v-1321h-149v543q-121 -156 -301 -156q-63 0 -112.5 17.5t-75 42t-42 49.5t-22.5 42t-8 17 q-115 -168 -308 -168q-78 0 -134 27t-83.5 60.5t-43 89t-17.5 88.5t-2 80z" />
<glyph unicode="&#x271;" horiz-adv-x="1667" d="M164 0v922h149v-144q119 154 301 154q63 0 113.5 -17.5t76 -42t42 -48t22.5 -42.5l6 -18q45 70 125 119t183 49q94 0 154.5 -32t86 -89t33.5 -105.5t8 -115.5v-707q0 -154 -99 -240.5t-228 -86.5q-45 0 -81 7t-62.5 23.5t-41 26.5t-34.5 31l-25 24l47 127q27 -35 40 -50 t56 -38.5t97 -23.5q66 0 118 48t52 165v673q0 51 -5.5 84t-23 73t-61.5 60.5t-111 20.5q-82 0 -145.5 -71.5t-63.5 -246.5v-489h-160v578q0 51 -6 85.5t-25.5 70.5t-61.5 54.5t-108 18.5q-109 0 -158.5 -92t-49.5 -223v-492h-160z" />
<glyph unicode="&#x272;" horiz-adv-x="1058" d="M-125 -332l47 127q45 -113 127 -112q117 0 117 194l-2 21v1024h149v-78l2 -60q109 147 295 148q76 0 131.5 -22.5t84 -55.5t45 -83t20.5 -90t4 -93v-588h-160v575q0 51 -6 86t-25.5 72t-63.5 55.5t-112 18.5q-84 0 -146.5 -76t-62.5 -242v-622h-6q-2 -139 -78.5 -225 t-179.5 -86q-119 -1 -180 112z" />
<glyph unicode="&#x273;" horiz-adv-x="1097" d="M164 0v922h149v-144q119 154 299 154q78 0 134.5 -26.5t84 -60.5t43 -88.5t17.5 -87t2 -81.5v-703q0 -106 38 -154t85 -48q102 0 147 112l47 -127q-74 -113 -196 -112q-102 0 -191.5 81.5t-89.5 245.5v697q0 109 -41 168t-162 59q-80 0 -143 -72.5t-63 -245.5v-489h-160z " />
<glyph unicode="&#x274;" horiz-adv-x="1034" d="M119 0v911h233l404 -768v768h159v-911h-233l-403 768v-768h-160z" />
<glyph unicode="&#x275;" d="M61 453q0 188 126 339.5t323 151.5q184 0 317.5 -144.5t133.5 -348.5q0 -203 -135.5 -338.5t-315.5 -135.5t-314.5 135.5t-134.5 340.5zM223 516h576q-12 141 -93 221t-196 80q-39 0 -80 -13t-87 -43t-79 -93.5t-41 -151.5zM227 395q6 -109 84 -197.5t197 -88.5 q123 0 197.5 83.5t89.5 202.5h-568z" />
<glyph unicode="&#x276;" horiz-adv-x="1404" d="M37 451q0 203 139 347t334 144q45 0 117.5 -14.5t105.5 -16.5h576v-106h-117l-49 2h-309v-275h436v-116h-436v-301h202l293 2v-117h-516q-113 -2 -183.5 -16.5t-119.5 -14.5q-186 0 -329.5 137.5t-143.5 344.5zM193 471q0 -145 89 -261t242 -116q53 0 84 10.5t44.5 40 t16.5 58t3 86.5v33q0 57 2 90v174q-4 141 -19 174q-27 55 -129 55q-154 0 -243.5 -103.5t-89.5 -240.5z" />
<glyph unicode="&#x277;" horiz-adv-x="1251" d="M55 406q0 207 147.5 358t372.5 168l48 2q264 -12 416.5 -165t152.5 -361q0 -172 -99.5 -301.5t-250.5 -129.5q-47 0 -86 15.5t-63.5 37t-41 44t-25 39t-10.5 16.5q-82 -152 -237 -152q-143 0 -233.5 128.5t-90.5 300.5zM215 401q0 -68 10.5 -127t50 -114.5t105.5 -55.5 q82 0 136 57.5t54 92.5q0 8 -7 43t-13 96.5t-6 136.5q0 61 25.5 88t54 27t54.5 -27.5t26 -85.5q0 -70 -9.5 -137t-18.5 -107t-9 -44q0 -31 48 -85.5t122 -54.5q72 0 119 56.5t61 119t14 128.5q0 168 -119.5 283.5t-289.5 115.5q-164 0 -286 -114t-122 -292z" />
<glyph unicode="&#x278;" horiz-adv-x="1251" d="M94 502q0 166 129 296t322 152v473h160v-473q178 -20 313 -145t135 -305q0 -166 -128 -296t-320 -153v-450h-160v450h-2q-178 20 -313.5 145.5t-135.5 305.5zM244 500q0 -129 85 -216t216 -106v645q-131 -18 -216 -105t-85 -218zM705 178q131 20 215 107.5t84 216.5 q0 125 -82 212t-217 109v-645z" />
<glyph unicode="&#x279;" horiz-adv-x="700" d="M29 -23v140q139 2 231 86t113 200q4 29 4 86v422h155v-921h-143v110l-2 74q-127 -191 -358 -197z" />
<glyph unicode="&#x27a;" horiz-adv-x="700" d="M29 -23v140q147 2 243.5 97t104.5 226v869h155v-1319h-143v110l-2 74q-127 -191 -358 -197z" />
<glyph unicode="&#x27b;" horiz-adv-x="700" d="M29 -23v140q139 2 231 86t113 200q4 29 4 86v422h155v-1015q0 -41 3 -60q6 -57 37.5 -105t89.5 -48q90 0 143 106q2 4 2 6l45 -127q-74 -113 -197 -112q-102 0 -190 82.5t-88 248.5v271q-139 -177 -348 -181z" />
<glyph unicode="&#x27c;" horiz-adv-x="700" d="M166 -399v1321h143v-185q133 193 361 195v-137q-150 -4 -245 -98.5t-103 -225.5l-3 -82v-788h-153z" />
<glyph unicode="&#x27d;" horiz-adv-x="700" d="M166 -113v1035h143v-185q133 193 361 195v-137q-147 -4 -237.5 -93.5t-106.5 -199.5q-6 -29 -7 -84v-533q0 -106 47.5 -154t104.5 -48q37 0 67.5 11t48 28.5t30 34t18.5 26.5l6 12l47 -127q-25 -31 -43 -49t-67.5 -40.5t-110.5 -22.5q-125 0 -213 89.5t-88 241.5z" />
<glyph unicode="&#x27e;" horiz-adv-x="700" d="M166 0v653h10q4 84 53.5 143.5t129 86t154.5 38t157 11.5v-137h-41q-281 0 -305 -115q-4 -20 -5 -59v-621h-153z" />
<glyph unicode="&#x27f;" horiz-adv-x="643" d="M4 606q6 147 65.5 236.5t159.5 89.5q33 0 71 -12.5t80 -40t69.5 -83t27.5 -128.5v-668h-160v666q0 78 -27.5 108.5t-58.5 30.5q-37 0 -50 -48t-17 -151h-160z" />
<glyph unicode="&#x280;" horiz-adv-x="923" d="M119 0v911h332q188 0 283 -80.5t95 -173.5q0 -145 -172 -225l-45 -18l256 -414h-159l-232 393h-205v-393h-153zM272 518h179q92 0 163.5 32t71.5 107.5t-92 116.5q-59 23 -166 23h-154l-2 -105v-174z" />
<glyph unicode="&#x281;" horiz-adv-x="923" d="M119 0v911h153v-393h205l232 393h159l-256 -413q104 -33 160.5 -99.5t56.5 -144.5q0 -94 -94 -174t-284 -80h-332zM272 115h154q100 0 149 16q111 33 111 121q0 84 -94 119q-51 23 -164 22h-154l-2 -104v-174z" />
<glyph unicode="&#x282;" horiz-adv-x="784" d="M55 -115v328q174 -106 346 -107q102 0 146.5 43.5t44.5 96.5t-36 86t-79 45q-20 6 -91 20.5t-105 24.5q-82 25 -147.5 89t-65.5 163q0 47 14 89t48 86t104.5 69.5t168.5 25.5q150 0 302 -63l-25 -136q-57 29 -83 39.5t-84 23.5t-128 13q-94 0 -133 -38t-39 -87 q0 -82 98 -118q16 -4 95 -19.5t114 -28.5q80 -25 148.5 -93t68.5 -177q0 -49 -14 -93t-48 -89t-104.5 -73t-169.5 -28q-100 0 -217 35v-145q0 -104 39 -144t90 -40q31 0 55.5 11t40 27.5t24.5 33t13 28.5l7 12l47 -127q-25 -37 -41.5 -56.5t-56.5 -37.5t-93 -18 q-254 -1 -254 329z" />
<glyph unicode="&#x283;" horiz-adv-x="681" d="M-55 -332l47 127q45 -113 143 -112q59 0 93 52t36 124v1269q0 178 88 259t194.5 81t192.5 -86l-47 -127q-55 86 -143 86q-51 0 -84 -41q-14 -16 -23.5 -34.5t-13.5 -39t-5 -31.5t-2 -32.5t-1 -23.5v-1243q0 -68 -8 -101q-20 -92 -91 -165.5t-180 -73.5q-120 -1 -196 112z " />
<glyph unicode="&#x284;" horiz-adv-x="681" d="M-84 -332l47 127q16 -33 29.5 -51t48.5 -39.5t82 -21.5q61 0 99 49t42 116v541h-205v121h205v532q0 137 91 210t202 73q57 0 104.5 -20.5t63.5 -36t43 -47.5l-45 -127q-20 33 -32.5 49t-48.5 36.5t-83 20.5q-53 0 -96 -37t-43 -127v-526h207v-121h-207v-508 q0 -158 -92 -241.5t-201 -83.5q-57 0 -104.5 21.5t-64.5 39.5t-42 51z" />
<glyph unicode="&#x285;" horiz-adv-x="751" d="M4 606q8 147 68.5 236.5t160.5 89.5q35 0 73 -12.5t80 -40t69.5 -83t27.5 -130.5v-764v-25v-22v-20q0 -15 1 -20t2 -17.5t3.5 -17.5t5.5 -14.5t7 -15.5t10 -12l12 -12q20 -18 43 -19q27 0 43.5 25.5t21.5 64.5t7 109h162q-8 -147 -68.5 -236.5t-161.5 -89.5 q-35 0 -72.5 12.5t-79.5 40t-69.5 83t-27.5 130.5v764v25v22v20q0 15 -1.5 20t-2.5 17.5t-3 17.5t-5 14.5t-7 15.5t-10 12l-12 12q-20 18 -43 19q-41 0 -54.5 -45t-19.5 -154h-160z" />
<glyph unicode="&#x286;" horiz-adv-x="681" d="M-59 -244q0 90 73.5 160t194.5 78l55 2v1132q0 176 87 258t192 82q106 0 196 -86l-47 -127q-66 86 -145 86q-49 0 -89 -47t-40 -159v-1178q90 -41 167 -127t81 -229h-162q0 119 -105 215q-23 -109 -83 -184.5t-160 -75.5q-86 0 -150.5 56t-64.5 144zM57 -229 q0 -33 26 -60.5t73 -27.5q96 0 106 206q-39 4 -43 5h-2q-74 0 -117 -40t-43 -83z" />
<glyph unicode="&#x287;" horiz-adv-x="739" d="M55 854q139 78 305 78q164 0 166 -260v-551h172v-121h-176v-260h-143v260h-289v121h289v504q0 176 -111 176q-27 0 -52.5 -5t-46.5 -16l-34 -16q-12 -6 -29 -19l-18 -12z" />
<glyph unicode="&#x288;" horiz-adv-x="739" d="M37 791v120h176v258h143v-258h234v-120h-234v-902q0 -113 41 -159.5t90 -46.5q23 0 43.5 6t35 16t26.5 22.5t19 23.5t12.5 21.5t7.5 16.5l2 6l47 -127q-70 -113 -197 -112q-100 0 -187 81.5t-87 247.5v906h-172z" />
<glyph unicode="&#x289;" horiz-adv-x="1171" d="M49 408v120h170v383h160v-383h409v383h162v-383h170v-120h-170v-408h-155v98q-139 -121 -361 -121q-72 0 -119 23t-66.5 68t-24.5 80.5t-5 91.5v168h-170zM379 236q0 -78 30.5 -111t137.5 -33q104 0 172.5 58.5t68.5 162.5v95h-407l-2 -72v-100z" />
<glyph unicode="&#x28a;" horiz-adv-x="1138" d="M113 768v143h323q-2 -98 -68.5 -254.5t-66.5 -248.5q0 -135 75 -231.5t191 -96.5q106 0 186.5 91t80.5 235q0 90 -67 249.5t-69 255.5h324v-143h-166q18 -43 58 -116.5t59.5 -129t19.5 -121.5q0 -172 -120.5 -309t-305.5 -137q-180 0 -303 136t-123 315q0 61 19.5 116.5 t60.5 130t58 115.5h-166z" />
<glyph unicode="&#x28b;" horiz-adv-x="985" d="M164 305v617h160v-627q0 -190 149 -191q115 0 186.5 122t71.5 302q0 164 -53 363l153 41q59 -201 60 -408q0 -215 -120 -381t-306 -166q-129 0 -215 74t-86 254z" />
<glyph unicode="&#x28c;" horiz-adv-x="944" d="M29 0l352 911h180l352 -911h-157l-191 500q-88 252 -96 307q-8 -55 -76 -243l-137 -369q-70 -182 -74 -195h-153z" />
<glyph unicode="&#x28d;" horiz-adv-x="1398" d="M29 0l282 911h176l110 -360q40 -133 61.5 -218t26.5 -103.5t12.5 -66.5l9.5 -61q4 72 55 258.5t106.5 365.5t57.5 185h161l283 -911h-156l-89 290l-59 202q-22 74 -36 136t-18 82.5l-10.5 55.5t-6.5 41q-2 -53 -35.5 -185.5t-71.5 -257.5l-74 -241q-36 -115 -38 -123 h-143l-150 496q-70 244 -77 311q-6 -57 -59.5 -246.5t-110 -370t-58.5 -190.5h-149z" />
<glyph unicode="&#x28e;" horiz-adv-x="944" d="M29 0l352 864l32 87l30 84q9 26 27.5 71t31.5 66l30 54q18 32 35 46l38.5 30.5t46 22.5t53.5 6h4q84 0 149 -16l10 -133q-104 33 -151 32q-66 0 -98.5 -53t-92.5 -219q-6 -20 -6 -33q0 -8 12 -37l381 -872h-159l-147 341q-58 138 -86.5 222t-38 115t-17.5 78t-8 51 q-4 -66 -69.5 -256.5t-134.5 -367.5t-71 -183h-153z" />
<glyph unicode="&#x28f;" horiz-adv-x="948" d="M16 911h189q258 -379 272 -403q49 82 154.5 234.5l116.5 168.5h180l-359 -522q-18 -25 -18 -57v-332h-156v365z" />
<glyph unicode="&#x290;" horiz-adv-x="890" d="M55 0v84l545 707l-61 -3h-455v123h731v-82l-543 -702h412l43 2h94v-233q0 -113 30 -163t71 -50q72 0 108 112q43 -117 43 -127q0 -33 -42 -72.5t-109 -39.5q-88 0 -149.5 74.5t-76.5 179.5q-4 31 -4 96v94h-637z" />
<glyph unicode="&#x291;" horiz-adv-x="1003" d="M55 0v102l533 682h-318l-49 -2h-137v129h733v-86l-524 -673h211l6 12l15 25l23 36q13 20 29 42l32 44q17 23 33.5 41.5t35 33.5t35.5 24q23 10 59 10q88 0 151.5 -56.5t63.5 -142.5q0 -94 -81 -153.5t-195 -67.5h-142l-149 -299h-154l152 299h-363zM651 152h29 q154 0 154 71q0 29 -21.5 49.5t-44.5 20.5q-25 0 -48.5 -31.5t-68.5 -109.5z" />
<glyph unicode="&#x292;" horiz-adv-x="890" d="M84 -250l49 131q35 -55 83 -94t94 -54.5t77 -21.5t57 -6q113 0 173.5 85t60.5 202q0 109 -103.5 194.5t-330.5 85.5l352 506h-512v133h731v-51l-2 -35l-14 -26l-293 -418q162 -49 247 -154.5t85 -228.5q0 -164 -110 -291t-284 -127q-208 0 -360 170z" />
<glyph unicode="&#x293;" horiz-adv-x="890" d="M51 -178q0 104 98.5 171.5t241.5 67.5q150 0 287 -90q2 6 2 23q0 127 -118 202.5t-312 75.5h-4l352 506h-512v133h731v-51l-2 -35l-14 -26l-293 -418q164 -53 248 -156.5t84 -226.5q0 -80 -31 -162q70 -94 100 -235h-161l-13 49l-14 45q-2 -2 -13.5 -12.5t-22.5 -18.5 l-30 -21q-18 -13 -39.5 -23.5t-47 -20t-57.5 -14.5t-67 -5q-61 0 -122.5 11.5t-126 36t-104.5 74.5t-40 120zM176 -180q0 -115 256 -115q156 0 209 119q-115 113 -248 113q-119 0 -168 -34t-49 -83z" />
<glyph unicode="&#x294;" d="M113 1329q174 115 372 115q119 0 207 -35t132 -92t64.5 -117.5t20.5 -128.5q0 -78 -32.5 -140.5t-89 -103.5t-110.5 -65.5t-116 -40.5v-721h-162v817q348 47 349 258q0 244 -265 244q-172 0 -323 -121z" />
<glyph unicode="&#x295;" d="M113 1071q0 68 20.5 128.5t64.5 118.5t132 92t207 34q201 0 372 -115l-49 -131q-150 121 -321 121q-266 0 -267 -244q0 -49 19.5 -89t50.5 -66.5t67.5 -46t73.5 -29.5t68 -16.5t51 -8.5l19 -2v-817h-160v721q-139 39 -243.5 123t-104.5 227z" />
<glyph unicode="&#x296;" d="M113 123l47 129q162 -150 346 -150q242 0 242 287q0 133 -100.5 219t-244.5 86h-55v729h162v-610q158 -25 278.5 -134.5t120.5 -285.5q0 -74 -18.5 -141.5t-60.5 -132t-123.5 -103.5t-196.5 -39q-217 1 -397 146z" />
<glyph unicode="&#x297;" d="M135 -4v1053q0 117 32 199.5t88 126.5t118.5 62.5t136.5 18.5q72 0 134.5 -17.5t121.5 -58.5t94 -121.5t37 -193.5h-160q-2 123 -50 188.5t-177 65.5q-72 0 -119 -23.5t-66.5 -68.5t-24.5 -82t-5 -90v-1078q4 -119 49 -190.5t168 -71.5q135 0 185.5 77t50.5 208h159 q0 -121 -36.5 -207t-97 -130t-125 -63.5t-136.5 -19.5q-70 0 -130 18.5t-118.5 62.5t-93.5 130t-35 205z" />
<glyph unicode="&#x298;" horiz-adv-x="1507" d="M113 707q0 319 188 540t453 221q258 0 448.5 -222t190.5 -539q0 -309 -187.5 -530.5t-453.5 -221.5q-258 0 -448.5 215t-190.5 537zM297 737q0 -266 128 -457.5t327 -191.5q195 0 325.5 186.5t130.5 460.5q0 270 -135 436t-321 166q-190 0 -322.5 -170t-132.5 -430z M668 711q0 33 24.5 59.5t59.5 26.5q37 0 61.5 -26t24.5 -60.5t-27 -59t-59.5 -24.5t-58 24.5t-25.5 59.5z" />
<glyph unicode="&#x299;" horiz-adv-x="966" d="M121 0v911h332q188 0 283 -74.5t95 -160.5q0 -66 -53 -115t-106 -65l-56 -19q92 -18 173 -76.5t81 -148.5q0 -92 -94 -172t-287 -80h-368zM270 115h160q195 0 266 71q16 16 22.5 27.5t7.5 26t1 16.5q-2 20 -13.5 41.5t-39 49.5t-88 45.5t-146.5 17.5h-170v-295zM270 537 h144q229 0 274 108l6 25q-2 14 -3 20t-9 22.5t-30.5 31t-57.5 26.5q-37 14 -74 19.5t-74.5 6.5t-46.5 1h-129v-260z" />
<glyph unicode="&#x29a;" d="M84 254q0 31 11 60.5t28.5 51t39 40t43.5 30.5l39 22q17 9 29 13l11 4q-82 33 -127 91.5t-45 125.5q0 111 114.5 187.5t274.5 76.5q203 0 333 -144t130 -341q0 -207 -129 -361.5t-332 -154.5q-170 0 -295 87t-125 212zM248 256q0 -78 73.5 -126t182.5 -48q145 0 223 121 t78 266q0 154 -85 260.5t-218 106.5q-106 0 -166 -43t-60 -99q0 -18 3 -26q8 -29 30.5 -49.5t47 -32t60.5 -18.5t57.5 -9t55 -3t37.5 -1v-125h-41q-139 0 -208.5 -51t-69.5 -123z" />
<glyph unicode="&#x29b;" horiz-adv-x="1021" d="M92 457q0 199 139.5 342t339.5 143h2q94 -2 172 -41v148q0 166 78 245.5t170 79.5q96 0 174 -86l-45 -121q-47 80 -127 80q-53 0 -89 -50t-36 -150v-261l-133 -75q-45 127 -168 127q-125 0 -221 -110t-96 -273q0 -154 91 -268.5t235 -114.5q37 0 133 18v178h-142v117h301 v-352q-150 -63 -297 -64q-199 0 -340 141.5t-141 346.5z" />
<glyph unicode="&#x29c;" horiz-adv-x="1034" d="M115 0v911h159v-379h482v379h159v-911h-159v416h-482v-416h-159z" />
<glyph unicode="&#x29d;" horiz-adv-x="677" d="M-70 -178q0 98 66.5 164.5t157.5 74.5l53 2h74v848h153v-848h209v-124h-209q0 -10 1 -26.5t1 -25.5q0 -156 -81 -231.5t-175 -75.5t-172 69t-78 173zM55 -178q0 -47 35 -79t78 -32q41 0 77 34t36 110v84h-74q-109 0 -139 -70q-13 -20 -13 -47zM252 1210v183h184v-183 h-184z" />
<glyph unicode="&#x29e;" horiz-adv-x="1001" d="M-43 911h168l319 -458l166 165v293h144v-1321h-150v836l-418 -426h-184l346 352v2z" />
<glyph unicode="&#x29f;" horiz-adv-x="761" d="M115 0v911h159v-809l70 2h342v-104h-571z" />
<glyph unicode="&#x2a0;" horiz-adv-x="1097" d="M72 453q0 203 111.5 341t267.5 138q162 0 282 -137v133q0 113 38 195.5t96.5 123.5t112.5 59.5t103 18.5q117 0 183 -108l-47 -130q-45 113 -134 113q-72 0 -134 -65.5t-62 -196.5v-1337h-162v501q-135 -125 -309 -125q-147 0 -246.5 138.5t-99.5 337.5zM231 453 q0 -143 81 -246t198 -103q82 0 152.5 56.5t70.5 122.5v299q0 66 -53 143.5t-152 77.5q-106 0 -201.5 -95t-95.5 -255z" />
<glyph unicode="&#x2a1;" d="M113 1329q174 115 372 115q119 0 207 -35t132 -92t64.5 -117.5t20.5 -128.5q0 -78 -32.5 -140.5t-89 -103.5t-110.5 -65.5t-116 -40.5v-219h283v-121h-283v-381h-162v381h-284v121h284v315q348 47 349 258q0 244 -265 244q-172 0 -323 -121z" />
<glyph unicode="&#x2a2;" d="M113 1071q0 68 20.5 128.5t64.5 118.5t132 92t207 34q201 0 372 -115l-49 -131q-150 121 -321 121q-266 0 -267 -244q0 -49 19.5 -89t50.5 -66.5t67.5 -46t73.5 -29.5t68 -16.5t51 -8.5l19 -2v-315h284v-121h-284v-381h-160v381h-285v121h285v219q-139 39 -243.5 123 t-104.5 227z" />
<glyph unicode="&#x2a3;" horiz-adv-x="1693" d="M860 0v84l545 707l-516 -3v123h731v-82l-543 -702l549 2v-129h-766zM72 453q0 203 105.5 342t258.5 139q156 0 297 -113v658h156v-1479h-162v106q-137 -129 -303 -129q-150 0 -251 139.5t-101 336.5zM231 455q0 -182 86 -266.5t191 -84.5q86 0 152.5 57.5t66.5 112.5v392 q0 27 -7 41t-36 38q-63 61 -152 62h-4q-49 0 -97 -18.5t-95 -56.5t-76 -109.5t-29 -167.5z" />
<glyph unicode="&#x2a4;" horiz-adv-x="1460" d="M72 456.5q0 194.5 89 336t228 141.5q123 0 244 -82v59h6v512h154v-512h591v-88l-387 -448q199 -45 304.5 -150.5t105.5 -228.5q0 -160 -120 -288t-308 -128q-229 0 -404 170l50 131q53 -59 86 -86q123 -90 264 -90q133 0 202.5 86t69.5 203q0 111 -108.5 179.5 t-257.5 88.5l-88 8v-135l-160 -92v35q-131 -100 -254 -101q-135 0 -221 142.5t-86 337zM231 453q0 -186 72 -267.5t160 -81.5q59 0 114.5 40t55.5 98v487q-66 78 -150 78q-41 0 -82 -17.5t-80.5 -54.5t-64.5 -110.5t-25 -171.5zM793 375l350 403h-348l-2 -61v-342z" />
<glyph unicode="&#x2a5;" horiz-adv-x="1806" d="M860 0v102l533 682h-318l-49 -2h-137v129h733v-86l-524 -673h211l6 12l15 25l23 36l28 42l33 44q17 23 33.5 41.5t35 33.5t35.5 24q23 10 59 10q88 0 151.5 -56.5t63.5 -142.5q0 -94 -81 -153.5t-195 -67.5h-142l-149 -299h-154l152 299h-363zM1456 152h29q154 0 153 71 q0 29 -21.5 49.5t-43.5 20.5q-25 0 -48.5 -31.5t-68.5 -109.5zM72 453q0 203 105.5 342t258.5 139q156 0 297 -113v658h156v-1479h-162v106q-137 -129 -303 -129q-150 0 -251 139.5t-101 336.5zM231 455q0 -182 86 -266.5t191 -84.5q86 0 152.5 57.5t66.5 112.5v392 q0 27 -7 41t-36 38q-63 61 -152 62h-4q-49 0 -97 -18.5t-95 -56.5t-76 -109.5t-29 -167.5z" />
<glyph unicode="&#x2a6;" horiz-adv-x="1308" d="M37 791v120h176v389h143v-389h211v-120h-211v-515q2 -39 5.5 -59t16.5 -50t48 -44t90 -14h410q55 2 80.5 4t60.5 15t55 40q27 33 27 80q0 31 -14.5 56.5t-31 39.5t-51 26.5t-54 17.5t-63.5 13.5t-56 10.5q-92 20 -168 88.5t-76 175.5q0 45 14.5 87t48 86t103 69.5 t166.5 25.5q150 0 295 -63l-23 -136q-2 2 -19.5 10.5t-22.5 10.5t-22.5 10t-25.5 10t-25.5 8.5t-29 9.5t-31 7t-35.5 6t-36.5 3t-43.5 1q-166 0 -166 -127q0 -47 33 -76.5t70 -40t100.5 -22.5t87.5 -20q92 -29 156.5 -101t64.5 -176q0 -27 -6 -56.5t-25.5 -76.5t-69.5 -85 t-126 -52q-53 -10 -129 -11h-571q-55 0 -91 31t-48.5 88.5t-15.5 91t-3 88.5v515h-172z" />
<glyph unicode="&#x2a7;" horiz-adv-x="1081" d="M37 791v120h176v389h143v-389h326v199q0 143 29 207q66 152 245 151q37 0 66 -6t51.5 -18t33.5 -20.5t27.5 -24t18.5 -17.5l-45 -127q-59 86 -145 86q-127 0 -127 -200v-1250q0 -336 -275 -335q-127 0 -199 112l48 127q16 -33 26 -50t43 -39.5t78 -22.5q125 0 125 206 v152q-133 -63 -279 -64q-195 0 -194 277v537h-172zM356 272q0 -164 160 -163q59 0 112.5 40.5t53.5 135.5v506h-324l-2 -62v-457z" />
<glyph unicode="&#x2a8;" horiz-adv-x="1402" d="M547 -299l192 377q-76 61 -123 161.5t-47 217.5q0 197 126 342t321 145q104 0 166.5 -18.5t154.5 -71.5l-24 -135l-23 14q-20 14 -22 15.5t-21.5 12.5t-26 13t-24.5 10.5t-28.5 10.5t-30 7t-35 6t-37 3t-43.5 2q-141 0 -217 -103.5t-76 -252.5q0 -147 80 -250 q117 195 303 194q104 0 176 -54t72 -140q0 -113 -108.5 -171.5t-239.5 -58.5q-78 0 -168 35q-8 -16 -75 -132t-97 -179h-125zM909 129q59 -20 109 -20q203 0 203 96q0 31 -30 50t-75 19q-55 0 -112.5 -34.5t-94.5 -110.5zM37 791v120h176v258h143v-258h289v-120h-289v-504 q0 -178 111 -178q33 0 65.5 9t51 19t40 23.5t23.5 15.5l33 -121q-145 -78 -303 -78q-166 0 -168 263v551h-172z" />
<glyph unicode="&#x2a9;" horiz-adv-x="1476" d="M584 0v922h149v-144q119 154 299 154q76 0 131.5 -23.5t83 -57.5t44 -85t19.5 -88t3 -88v-590h-2q-2 -174 -75 -297t-187 -123q-123 0 -242 70l55 125q66 -63 135 -64q61 0 109.5 53.5t48.5 180.5v55h-2v575q0 111 -40 171.5t-161 60.5q-109 0 -159 -92t-50 -223v-492 h-159zM55 791v120h152v150q0 8 -1 24.5t-1 24.5q0 182 99 286.5t245 104.5q76 0 162 -22v-138q-88 35 -166 35q-74 0 -132.5 -43t-58.5 -143v-279h232v-120h-226v-791h-153v791h-152z" />
<glyph unicode="&#x2aa;" horiz-adv-x="1067" d="M340 70l25 139q63 -37 91.5 -52.5t93 -33t136.5 -17.5q102 0 146.5 43.5t44.5 96.5t-36 86t-79 45q-20 6 -91 20.5t-106 24.5q-82 25 -147.5 89t-65.5 163q0 47 14.5 89t48.5 86t104.5 69.5t168.5 25.5q150 0 299 -63l-22 -136q-2 2 -23.5 11.5t-25 11.5t-23 10 t-26.5 10.5l-25.5 9.5t-28.5 8t-29.5 6t-35 6t-36 2t-42.5 1q-94 0 -133 -38t-39 -87q0 -68 56 -98.5t154.5 -48t135.5 -33.5q74 -35 126 -99.5t52 -156.5q0 -109 -76 -196t-258 -87q-180 1 -348 93zM166 0v1479h153v-1479h-153z" />
<glyph unicode="&#x2ab;" horiz-adv-x="1173" d="M340 0v84l545 707l-516 -3v123h731v-82l-543 -702l549 2v-129h-766zM166 0v1479h153v-1479h-153z" />
<glyph unicode="&#x2ac;" horiz-adv-x="698" d="M14 1022h78q98 -315 109 -404q2 33 27.5 126.5t54 184.5t28.5 93h72q104 -334 113 -404q4 31 29.5 122t54 180.5t30.5 101.5h74l-141 -455h-88l-29 93l-29 97l-22 81q-12 45 -19.5 77.5t-9.5 55.5q-2 -29 -18.5 -95.5t-35.5 -127.5l-38 -120q-18 -58 -18 -61h-80zM14 455 h78q98 -315 109 -404q2 33 27.5 126t54 184.5t28.5 93.5h72q104 -334 113 -404q4 31 29.5 122t54 180t30.5 102h74l-141 -455h-88l-29 93l-29 96l-22 81q-12 45 -19.5 78t-9.5 55q-2 -29 -18.5 -95t-35.5 -128l-38 -120q-18 -58 -18 -60h-80z" />
<glyph unicode="&#x2ad;" d="M164 877h694v-377h-127v250h-442v-250h-125v377zM164 377h694v-377h-127v250h-442v-250h-125v377z" />
<glyph unicode="&#x2ae;" horiz-adv-x="1138" d="M-49 606q2 145 63.5 235.5t159.5 90.5q88 0 154.5 -62.5t66.5 -158.5q0 -59 -2 -72v-262q0 -150 58.5 -211.5t132.5 -61.5q53 0 92 33t57.5 74t28.5 110.5t11 110.5t1 107v372h160v-1310h-160v450q-92 -74 -192 -74q-61 0 -114.5 16.5t-110 57.5t-90.5 130t-34 216v146 v94q0 37 1.5 51t1.5 19q0 51 -19.5 74.5t-42.5 23.5q-37 0 -50 -47t-13 -152h-160z" />
<glyph unicode="&#x2af;" horiz-adv-x="1138" d="M-49 606q2 145 63.5 235.5t159.5 90.5q88 0 154.5 -62.5t66.5 -158.5q0 -59 -2 -72v-262q0 -150 58.5 -211.5t132.5 -61.5q53 0 92 33t57.5 74t28.5 110.5t11 110.5t1 107v372h160v-1061q0 -31 4 -55t12 -38.5t16.5 -25t18.5 -14.5t17.5 -6t13.5 -2l6 -2q33 6 47 43 t16 156h160q-6 -147 -64.5 -236.5t-158.5 -89.5q-49 0 -101.5 20.5t-99.5 85t-47 162.5v203q-92 -74 -192 -74q-47 0 -90 8.5t-92.5 36t-84 71.5t-58.5 122t-24 182v146v94q0 37 1.5 51t1.5 19q0 94 -62 98q-39 -6 -51 -47t-12 -152h-160z" />
<glyph unicode="&#x2b0;" horiz-adv-x="528" d="M82 758v741h78v-348q55 74 145 74q47 0 77 -15.5t43 -44t17 -53.5t4 -59v-295h-79v289q0 55 -19.5 84.5t-79.5 29.5q-106 0 -106 -164v-239h-80z" />
<glyph unicode="&#x2b1;" horiz-adv-x="528" d="M82 758v520h2v29q-2 80 63.5 133t161.5 53q88 0 154 -61l-23 -64q-55 61 -131 62q-53 0 -101 -29t-48 -96v-154q57 74 147 74q139 0 139 -172v-295h-79v289q0 57 -20.5 85.5t-78.5 28.5q-106 0 -106 -164v-239h-80z" />
<glyph unicode="&#x2b2;" horiz-adv-x="272" d="M-61 584l14 61q45 -31 80 -31q80 0 80 78v522h77v-505q0 -86 -40.5 -123t-90.5 -37q-63 0 -120 35zM98 1362v92h92v-92h-92z" />
<glyph unicode="&#x2b3;" horiz-adv-x="350" d="M82 758v461h74v-93q61 96 178 99v-70q-63 0 -118.5 -44t-55.5 -148v-205h-78z" />
<glyph unicode="&#x2b4;" horiz-adv-x="350" d="M14 748v69q63 0 118.5 44t55.5 149v204h78v-460h-71v92q-68 -96 -181 -98z" />
<glyph unicode="&#x2b5;" horiz-adv-x="350" d="M14 748v69q63 0 118.5 44t55.5 149v204h78v-507q-2 -53 17.5 -80t46.5 -27q49 0 73 57l23 -65q-39 -55 -96.5 -55t-95 39.5t-44.5 95.5q-2 18 -2 57v109q-70 -88 -174 -90z" />
<glyph unicode="&#x2b6;" horiz-adv-x="460" d="M59 758v456h78v-196h101l116 196h80l-127 -206q106 -35 107 -121q0 -53 -51.5 -91t-137.5 -38h-166zM137 815h84q121 0 121 70q0 45 -47 59q-25 10 -80 10h-78v-139z" />
<glyph unicode="&#x2b7;" horiz-adv-x="698" d="M14 1212h78q98 -315 109 -403q2 33 27.5 126t54 184t28.5 93h72q104 -334 113 -403q4 31 29.5 122t54 180t30.5 101h74l-141 -454h-88l-29 93l-29 96l-22 81q-12 45 -19.5 78t-9.5 55q-2 -29 -18.5 -95.5t-35.5 -127.5l-38 -120q-18 -58 -18 -60h-80z" />
<glyph unicode="&#x2b8;" horiz-adv-x="471" d="M14 1214h80l65 -151l39 -94q15 -37 23 -60.5t10 -33l6.5 -31t6.5 -33.5q2 74 137 403h76l-224 -548q-29 -70 -54 -93.5t-62 -23.5q-41 0 -74 8l-6 66q55 -16 76 -17q29 0 49 33q8 14 29.5 64.5t19.5 56.5q0 3 -197 454z" />
<glyph unicode="&#x2b9;" horiz-adv-x="342" d="M-16 1014l186 407h162l-223 -407h-125z" />
<glyph unicode="&#x2ba;" d="M221 1081l131 342h160l-166 -342h-125zM561 1081l131 342h160l-164 -342h-127z" />
<glyph unicode="&#x2bb;" horiz-adv-x="569" d="M197 995v142l2 30l84 256h86l-54 -256h54v-172h-172z" />
<glyph unicode="&#x2bc;" horiz-adv-x="569" d="M197 1309v172h172v-144l-2 -28l-84 -256h-86l53 256h-53z" />
<glyph unicode="&#x2bd;" horiz-adv-x="569" d="M197 1280v143h172v-172h-54l54 -256h-86l-74 222l-10 32z" />
<glyph unicode="&#x2be;" horiz-adv-x="681" d="M201 0v125q98 6 143 58.5t45 107.5q0 57 -47 108.5t-141 55.5v125q133 -4 223 -85t90 -204q0 -111 -84 -199t-229 -92z" />
<glyph unicode="&#x2bf;" horiz-adv-x="681" d="M164 291q0 111 85 199t230 90v-125q-102 -6 -145 -58.5t-43 -105.5q0 -59 47 -109.5t141 -56.5v-125q-135 4 -225 86t-90 205z" />
<glyph unicode="&#x2c0;" horiz-adv-x="909" d="M113 1475q152 84 315 84q109 0 186.5 -32t113.5 -84t51.5 -100.5t15.5 -99.5q0 -121 -87 -191.5t-202 -101.5v-223h-160v317l31 5q31 4 73 15t83.5 30.5t71.5 59.5t30 91q0 188 -207 189q-131 0 -268 -88z" />
<glyph unicode="&#x2c1;" horiz-adv-x="909" d="M113 1243q0 51 15 99.5t51 100.5t114 84t186 32q164 0 316 -84l-47 -129q-137 88 -269 88q-207 0 -207 -189q0 -51 30 -91t72 -59.5t84 -30.5t72 -15l31 -5v-317h-160v223q-115 31 -201.5 101.5t-86.5 191.5z" />
<glyph unicode="&#x2c2;" horiz-adv-x="681" d="M55 1243q0 2 1 7t1 7.5t2 7.5t4.5 8t4.5 7t7 8l11 9q6 5 14.5 9.5t18.5 8.5q418 174 438 174q27 0 46.5 -18.5t19.5 -47.5q0 -31 -19.5 -47t-54.5 -28l-252 -105q274 -113 293 -123q33 -20 33 -57q0 -29 -19.5 -46.5t-46.5 -17.5q-23 0 -51 15l-391 160q-23 10 -36 21 t-16.5 18.5t-5.5 17.5t-2 12z" />
<glyph unicode="&#x2c3;" horiz-adv-x="681" d="M57 1063q0 49 72 76l254 104q-276 113 -295 123q-31 23 -31 57q0 29 19.5 47.5t44.5 18.5q20 0 438 -174q25 -10 39 -22.5t17 -19.5t6 -20l2 -10q-6 -47 -60 -69q-418 -174 -440 -175q-27 0 -46.5 17.5t-19.5 46.5z" />
<glyph unicode="&#x2c6;" d="M193 1042l256 289h124l256 -289h-124l-195 203l-193 -203h-124z" />
<glyph unicode="&#x2c7;" d="M180 1309h127l205 -140l203 140h71l56 -2q-252 -180 -267 -187q-10 -4 -26 -4h-74q-8 0 -17 3t-24.5 10.5t-28 15.5t-37.5 26l-47 35l-64 46z" />
<glyph unicode="&#x2c8;" horiz-adv-x="454" d="M164 969v454h125v-454h-125z" />
<glyph unicode="&#x2c9;" d="M141 1161v131h738v-131h-738z" />
<glyph unicode="&#x2ca;" d="M420 1081l272 342h160l-307 -342h-125z" />
<glyph unicode="&#x2cb;" d="M170 1423h160l272 -342h-125z" />
<glyph unicode="&#x2cc;" horiz-adv-x="454" d="M164 -399v454h125v-454h-125z" />
<glyph unicode="&#x2cd;" horiz-adv-x="681" d="M-78 -410q0 31 21.5 55.5t72.5 24.5h646q98 0 98 -80q0 -31 -21.5 -55t-74.5 -24h-648q-55 0 -74.5 25t-19.5 54z" />
<glyph unicode="&#x2ce;" d="M199 -131h159l273 -266h-125z" />
<glyph unicode="&#x2cf;" d="M389 -397l273 266h159l-305 -266h-127z" />
<glyph unicode="&#x2d0;" horiz-adv-x="569" d="M113 0l170 350h2l168 -350h-340zM113 911h340l-168 -352h-2z" />
<glyph unicode="&#x2d1;" horiz-adv-x="569" d="M113 911h340l-168 -352h-2z" />
<glyph unicode="&#x2d2;" horiz-adv-x="681" d="M201 291v125q98 6 143 58t45 108q0 57 -47 108t-141 55v125q133 -4 223 -84.5t90 -203.5q0 -111 -84 -199t-229 -92z" />
<glyph unicode="&#x2d3;" horiz-adv-x="681" d="M164 582q0 111 85 198.5t230 89.5v-125q-102 -6 -145 -58t-43 -105q0 -59 47 -109.5t141 -56.5v-125q-135 4 -225 86t-90 205z" />
<glyph unicode="&#x2d4;" horiz-adv-x="909" d="M195 176v127h194v277h127v-277h195v-127h-516z" />
<glyph unicode="&#x2d5;" horiz-adv-x="909" d="M195 455v125h516v-125h-195v-279h-127v279h-194z" />
<glyph unicode="&#x2d6;" horiz-adv-x="909" d="M164 227v125h227v228h125v-228h227v-125h-227v-227h-125v227h-227z" />
<glyph unicode="&#x2d7;" horiz-adv-x="909" d="M113 387v135h682v-135h-682z" />
<glyph unicode="&#x2d8;" d="M164 1309h125q4 -47 30.5 -80t65.5 -47.5t69.5 -19.5t57.5 -5q39 0 80 8.5t88 45t51 98.5h127q-6 -135 -109.5 -212t-238.5 -77t-238.5 78t-107.5 211z" />
<glyph unicode="&#x2d9;" horiz-adv-x="569" d="M221 1208v183h185v-183h-185z" />
<glyph unicode="&#x2da;" horiz-adv-x="1366" d="M453 1143q0 63 62.5 114.5t164.5 51.5q92 0 159.5 -48.5t67.5 -119.5q0 -63 -62.5 -114.5t-164.5 -51.5q-106 0 -166.5 53.5t-60.5 114.5zM567 1141q0 -37 25.5 -68t87 -31t87.5 31t26 70q0 37 -26 67.5t-87 30.5q-51 0 -82 -26.5t-31 -73.5z" />
<glyph unicode="&#x2db;" horiz-adv-x="569" d="M-59 -268q0 25 9 49t20.5 44.5t33 44.5t37.5 38l43 36q27 22 38 30t36 24l24 16l62 47l41 37l55 -98q-29 -25 -97.5 -76t-100 -87t-31.5 -75q0 -12 2 -20q23 -29 63 -29q18 0 37.5 7.5t34 17.5t28 23.5t21.5 24.5l14 19l6 9l105 -72q-109 -180 -270 -180q-82 0 -146.5 49 t-64.5 121z" />
<glyph unicode="&#x2dc;" d="M170 1083q2 100 61.5 162t139.5 62q55 0 143 -49.5t129 -49.5q39 0 60.5 29t23.5 72h125q-2 -98 -61.5 -162t-139.5 -64q-53 0 -141 49.5t-131 49.5q-74 0 -84 -99h-125z" />
<glyph unicode="&#x2dd;" d="M561 1044l273 267h159l-305 -267h-127zM219 1044l273 267h159l-305 -267h-127z" />
<glyph unicode="&#x2de;" horiz-adv-x="681" d="M-47 698v2q172 201 180 215l2 9q4 8 6 15t9.5 17.5t14.5 16.5t20.5 11t29.5 5q80 0 80 -92v-45v-12q0 -53 2 -85t11 -80t34 -74t64 -26q86 0 108 93l2 12h160q-6 -70 -31 -107q-35 -57 -98.5 -89.5t-136.5 -32.5q-174 0 -246 200l-21 78l-94 -111z" />
<glyph unicode="&#x2df;" d="M195 1053l186 104l-186 105l53 114l264 -147l262 147l53 -114l-188 -105l188 -104l-53 -115l-264 147l-262 -147z" />
<glyph unicode="&#x2e0;" horiz-adv-x="471" d="M14 1214h80q8 -23 49 -120t65.5 -160.5t29.5 -87.5q10 59 143 368h76l-176 -419q2 -2 13 -14.5l16 -18.5t14.5 -21.5t14.5 -25.5t9 -26.5t4 -31.5q0 -47 -32.5 -83.5t-83.5 -36.5q-49 0 -81 36.5t-32 83.5q0 12 3 26l5 22q2 8 12.5 23t12.5 19.5t17 22.5t17 23zM193 655 q0 -23 12 -39t31 -16q20 0 32.5 16.5t12.5 40.5q0 41 -45 95q-43 -58 -43 -97z" />
<glyph unicode="&#x2e1;" horiz-adv-x="243" d="M82 758v741h78v-741h-78z" />
<glyph unicode="&#x2e2;" horiz-adv-x="391" d="M29 793l10 71q84 -51 162 -51q51 0 72.5 21.5t21.5 48.5q0 33 -22.5 48t-76 25.5t-57.5 12.5q-106 35 -106 129q0 51 39 92t129 41q76 0 151 -33l-12 -68q-82 39 -143 39q-45 0 -69 -17t-24 -42q0 -47 54 -63q6 -2 36.5 -7.5t56 -13.5t54.5 -23.5t46.5 -45t17.5 -68.5 q0 -55 -38 -98t-130 -43q-88 0 -172 45z" />
<glyph unicode="&#x2e3;" horiz-adv-x="471" d="M0 758l199 235l-193 221h86l139 -170h2l138 170h84l-189 -221l205 -235h-86l-154 194l-147 -194h-84z" />
<glyph unicode="&#x2e4;" horiz-adv-x="512" d="M57 1294q0 76 49.5 131.5t161.5 55.5q100 0 187 -58l-25 -65q-74 59 -162 59q-131 0 -131 -119q0 -106 166 -129q6 -2 8 -2v-409h-82v360q-68 18 -120 61t-52 115z" />
<glyph unicode="&#x2e5;" horiz-adv-x="681" d="M600 -45v1513h160v-1513h-160zM-78 1386q0 31 21.5 55.5t72.5 24.5h646q98 0 98 -80q0 -31 -21.5 -55t-74.5 -24h-648q-55 0 -74.5 25t-19.5 54z" />
<glyph unicode="&#x2e6;" horiz-adv-x="681" d="M600 -45v1513h160v-1513h-160zM-78 1049q0 31 21.5 55t72.5 24h646q98 0 98 -79q0 -31 -21.5 -55.5t-74.5 -24.5h-648q-55 0 -74.5 25.5t-19.5 54.5z" />
<glyph unicode="&#x2e7;" horiz-adv-x="681" d="M600 -45v1513h160v-1513h-160zM-78 711q0 31 21.5 55.5t72.5 24.5h646q98 0 98 -80q0 -31 -21.5 -55.5t-74.5 -24.5h-648q-55 0 -74.5 25.5t-19.5 54.5z" />
<glyph unicode="&#x2e8;" horiz-adv-x="681" d="M600 -45v1513h160v-1513h-160zM-78 373q0 31 21.5 55.5t72.5 24.5h646q98 0 98 -80q0 -31 -21.5 -55.5t-74.5 -24.5h-648q-55 0 -74.5 25.5t-19.5 54.5z" />
<glyph unicode="&#x2e9;" horiz-adv-x="681" d="M600 -45v1513h160v-1513h-160zM-78 33q0 31 21.5 55.5t72.5 24.5h646q98 0 98 -80q0 -31 -21.5 -55.5t-74.5 -24.5h-648q-55 0 -74.5 25.5t-19.5 54.5z" />
<glyph unicode="&#x2f9;" horiz-adv-x="591" d="M113 922v454h454v-125h-329v-329h-125z" />
<glyph unicode="&#x2fa;" horiz-adv-x="591" d="M20 1251v125h455v-454h-125v329h-330z" />
<glyph unicode="&#x300;" horiz-adv-x="0" d="M-825 1573h159l273 -266h-125z" />
<glyph unicode="&#x301;" horiz-adv-x="0" d="M-635 1307l273 266h159l-305 -266h-127z" />
<glyph unicode="&#x302;" horiz-adv-x="0" d="M-831 1309l256 288h124l256 -288h-124l-195 202l-193 -202h-124z" />
<glyph unicode="&#x303;" horiz-adv-x="0" d="M-1139 1262q8 6 55.5 47t62.5 53t58 42t69 41t64.5 22.5t73.5 11.5q76 0 199 -63.5t197 -63.5q117 0 276 127l82 -97q-6 -4 -56 -47l-64 -54q-13 -11 -57 -42t-68.5 -41t-63.5 -21.5t-74 -11.5q-76 0 -200 63.5t-197 63.5q-121 0 -275 -127z" />
<glyph unicode="&#x304;" horiz-adv-x="0" d="M-883 1544v131h738v-131h-738z" />
<glyph unicode="&#x305;" horiz-adv-x="0" d="M-1421 1745q0 41 69 41h1110q68 0 68 -41t-57 -41h-1121q-69 0 -69 41z" />
<glyph unicode="&#x306;" horiz-adv-x="0" d="M-860 1571h125q4 -47 30.5 -80t65.5 -47t69.5 -19.5t57.5 -5.5q39 0 80 8.5t88 45t51 98.5h127q-6 -135 -109.5 -212t-238.5 -77t-238.5 78t-107.5 211z" />
<glyph unicode="&#x307;" horiz-adv-x="0" d="M-348 1487v182h184v-182h-184z" />
<glyph unicode="&#x308;" horiz-adv-x="0" d="M-406 1440v182h185v-182h-185zM-805 1440v182h184v-182h-184z" />
<glyph unicode="&#x309;" horiz-adv-x="0" d="M-713 1403q88 88 191 88q111 0 159 -49t48 -111q0 -49 -29 -81.5t-63.5 -48t-63.5 -48.5t-29 -80q0 -6 1 -14t1 -12h-59v30q0 72 24.5 119t63.5 78l39 29q10 20 10 34q0 72 -100 72q-92 0 -162 -92z" />
<glyph unicode="&#x30a;" horiz-adv-x="0" d="M-913 1405q0 63 62.5 114.5t164.5 51.5q92 0 159.5 -48t67.5 -120q0 -63 -62.5 -114.5t-164.5 -51.5q-106 0 -166.5 53.5t-60.5 114.5zM-799 1403q0 -37 25.5 -67.5t87 -30.5t87.5 30.5t26 69.5q0 37 -26 67.5t-87 30.5q-51 0 -82 -26.5t-31 -73.5z" />
<glyph unicode="&#x30b;" horiz-adv-x="0" d="M-463 1307l273 266h159l-305 -266h-127zM-805 1307l273 266h159l-305 -266h-127z" />
<glyph unicode="&#x30c;" horiz-adv-x="0" d="M-844 1571h127l205 -139l203 139h71l56 -2q-252 -180 -267 -187q-10 -4 -26 -4h-74q-8 0 -17 3t-24.5 10.5t-28 15.5t-37.5 27l-47 34l-64 46z" />
<glyph unicode="&#x30d;" horiz-adv-x="0" d="M-594 1468h162l-19 -387h-124z" />
<glyph unicode="&#x30e;" horiz-adv-x="0" d="M-756 1468h162l-18 -387h-125zM-436 1468h162l-19 -387h-125z" />
<glyph unicode="&#x30f;" horiz-adv-x="0" d="M-854 1423h160l131 -342h-127zM-514 1423h162l129 -342h-125z" />
<glyph unicode="&#x311;" horiz-adv-x="0" d="M-860 1044q4 133 108.5 210t237.5 77q135 0 238.5 -76.5t109.5 -210.5h-127q-4 61 -51 97.5t-88 44.5t-80 8q-41 0 -82 -8t-88 -44t-53 -98h-125z" />
<glyph unicode="&#x313;" horiz-adv-x="0" d="M-313 1335q0 37 24.5 61.5t63.5 24.5q74 0 129 -56t55 -130q0 -70 -58.5 -127t-170.5 -61v86q76 4 109.5 34.5t33.5 69.5q0 29 -23 61q-35 -47 -77 -47q-35 0 -60.5 23.5t-25.5 60.5z" />
<glyph unicode="&#x314;" horiz-adv-x="0" d="M-416 1235q0 72 54.5 129t130.5 57q43 0 65.5 -25.5t22.5 -60.5q0 -37 -25 -60.5t-61 -23.5q-25 0 -43.5 11.5t-26.5 23.5l-8 12q-23 -33 -23 -63q0 -37 35 -67.5t111 -34.5v-86q-102 2 -167 56t-65 132z" />
<glyph unicode="&#x315;" horiz-adv-x="0" d="M-373 1604v172h172v-144l-2 -28l-84 -256h-86l54 256h-54z" />
<glyph unicode="&#x316;" horiz-adv-x="0" d="M-825 -131h159l273 -266h-125z" />
<glyph unicode="&#x317;" horiz-adv-x="0" d="M-635 -397l273 266h159l-305 -266h-127z" />
<glyph unicode="&#x318;" horiz-adv-x="0" d="M-684 -438v127h278v194h125v-516h-125v195h-278z" />
<glyph unicode="&#x319;" horiz-adv-x="0" d="M-633 -633v516h125v-194h279v-127h-279v-195h-125z" />
<glyph unicode="&#x31a;" horiz-adv-x="0" d="M-571 1526v125h454v-455h-125v330h-329z" />
<glyph unicode="&#x31c;" horiz-adv-x="0" d="M-518 -406q0 111 85 199t230 90v-125q-102 -6 -145 -58t-43 -106q0 -59 47 -109t141 -56v-125q-135 4 -225 85.5t-90 204.5z" />
<glyph unicode="&#x31d;" horiz-adv-x="0" d="M-715 -520v127h195v276h127v-276h194v-127h-516z" />
<glyph unicode="&#x31e;" horiz-adv-x="0" d="M-715 -242v125h516v-125h-194v-278h-127v278h-195z" />
<glyph unicode="&#x31f;" horiz-adv-x="0" d="M-745 -469v125h227v227h125v-227h227v-125h-227v-227h-125v227h-227z" />
<glyph unicode="&#x320;" horiz-adv-x="0" d="M-797 -240v136h682v-136h-682z" />
<glyph unicode="&#x321;" horiz-adv-x="0" d="M-596 -332l47 127q45 -113 131 -112q51 0 86 45t41 116l2 60v119h125v-129q0 -176 -79 -257t-173 -81q-114 -1 -180 112z" />
<glyph unicode="&#x322;" horiz-adv-x="0" d="M-291 23h125v-199q0 -57 26.5 -92t50 -42t48.5 -7q31 0 54.5 10t38 26.5t23.5 32t15 27.5l4 10l47 -127q-23 -33 -39 -50.5t-55 -36.5t-90 -19q-102 0 -175 71.5t-73 190.5v205z" />
<glyph unicode="&#x323;" horiz-adv-x="0" d="M-373 -205v172h172v-172h-172z" />
<glyph unicode="&#x324;" horiz-adv-x="0" d="M-406 -317v182h185v-182h-185zM-805 -317v182h184v-182h-184z" />
<glyph unicode="&#x325;" horiz-adv-x="0" d="M-913 -295q0 63 62.5 114.5t164.5 51.5q92 0 159.5 -48t67.5 -120q0 -63 -62.5 -114.5t-164.5 -51.5q-106 0 -166.5 53.5t-60.5 114.5zM-799 -297q0 -37 25.5 -67.5t87 -30.5t87.5 30.5t26 69.5q0 37 -26 67.5t-87 30.5q-51 0 -82 -26.5t-31 -73.5z" />
<glyph unicode="&#x326;" horiz-adv-x="0" d="M-260 -98h119v-101q-6 -45 -31 -113.5t-29 -84.5h-59l37 178h-37v121z" />
<glyph unicode="&#x327;" horiz-adv-x="0" d="M-670 -393l152 346h125l-133 -346h-144z" />
<glyph unicode="&#x328;" horiz-adv-x="0" d="M-629 -268q0 25 9.5 49t20.5 44.5t32.5 44.5t38.5 38l43 36q27 22 38 30t35 24l25 16l61 47l41 37l56 -98q-29 -25 -97.5 -76t-100.5 -87t-32 -75q0 -12 2 -20q23 -29 64 -29q18 0 37.5 7.5t34 17.5t27.5 23.5t22 24.5l14 19l6 9l105 -72q-109 -180 -271 -180 q-82 0 -146.5 49t-64.5 121z" />
<glyph unicode="&#x329;" horiz-adv-x="0" d="M-291 -604v454h125v-454h-125z" />
<glyph unicode="&#x32a;" horiz-adv-x="0" d="M-860 -227h694v-377h-127v250h-442v-250h-125v377z" />
<glyph unicode="&#x32b;" horiz-adv-x="0" d="M-926 -358q0 76 39 161l109 -63q-25 -57 -25 -107q0 -55 27.5 -91t73.5 -36q51 0 85.5 38t38.5 89q8 74 66 74q23 0 38 -12t18 -25.5t6.5 -35t5.5 -27.5q12 -41 44.5 -71t75.5 -30q45 0 73 36t28 91q0 45 -27 107l111 63q37 -90 37 -161q0 -111 -61.5 -187t-160.5 -76 q-111 0 -188 91l-10 -11q-10 -10 -20.5 -18l-28 -20.5t-36 -20.5t-44 -14.5t-51.5 -6.5q-104 0 -164 78.5t-60 184.5z" />
<glyph unicode="&#x32c;" horiz-adv-x="0" d="M-844 -131h127l205 -139l203 139h71l56 -2q-252 -180 -267 -186q-10 -4 -26 -5h-74q-8 0 -17 3.5t-24.5 10.5t-28 15t-37.5 27l-47 35l-64 46z" />
<glyph unicode="&#x32d;" horiz-adv-x="0" d="M-831 -422l256 289h124l256 -289h-124l-195 203l-193 -203h-124z" />
<glyph unicode="&#x32e;" horiz-adv-x="0" d="M-860 -129h125q4 -47 30.5 -80t65.5 -47t69.5 -19.5t57.5 -5.5q39 0 80 8.5t88 45.5t51 98h127q-6 -135 -109.5 -212t-238.5 -77t-238.5 78t-107.5 211z" />
<glyph unicode="&#x32f;" horiz-adv-x="0" d="M-1884 -551q4 133 108.5 210t237.5 77q135 0 238.5 -77t109.5 -210h-127q-4 61 -51 97t-88 44.5t-80 8.5q-41 0 -82 -8.5t-88 -44t-53 -97.5h-125z" />
<glyph unicode="&#x330;" horiz-adv-x="0" d="M-854 -485q2 100 61.5 161.5t139.5 61.5q55 0 143 -49t129 -49q39 0 60.5 28.5t23.5 71.5h125q-2 -98 -61.5 -161.5t-139.5 -63.5q-53 0 -141 49t-131 49q-74 0 -84 -98h-125z" />
<glyph unicode="&#x331;" horiz-adv-x="0" d="M-760 -410q0 31 21.5 55.5t72.5 24.5h646q98 0 98 -80q0 -31 -21.5 -55t-74.5 -24h-648q-55 0 -74.5 25t-19.5 54z" />
<glyph unicode="&#x332;" horiz-adv-x="0" d="M-1421 -467q0 41 69 41h1110q68 0 68 -41t-57 -41h-1121q-69 0 -69 41z" />
<glyph unicode="&#x334;" horiz-adv-x="0" d="M-854 430q2 100 61.5 161.5t139.5 61.5q55 0 143 -49t129 -49q39 0 60.5 28.5t23.5 71.5h125q-2 -98 -61.5 -161.5t-139.5 -63.5q-53 0 -141 49t-131 49q-74 0 -84 -98h-125z" />
<glyph unicode="&#x335;" horiz-adv-x="0" d="M-559 442v115h545v-115h-545z" />
<glyph unicode="&#x337;" horiz-adv-x="0" d="M-518 301l491 418l82 -96l-491 -418z" />
<glyph unicode="&#x338;" horiz-adv-x="0" d="M-909 -449l18 68l647 1856q16 59 66 59q25 0 43 -16.5t18 -44.5q0 -14 -14 -58l-651 -1866q-8 -23 -18.5 -36t-17.5 -17t-16.5 -5t-11.5 -3h-2q-25 0 -43 18t-18 45z" />
<glyph unicode="&#x339;" horiz-adv-x="0" d="M-481 -696v125q98 6 143 58t45 107q0 57 -47 108.5t-141 55.5v125q133 -4 223 -85t90 -204q0 -111 -84 -198.5t-229 -91.5z" />
<glyph unicode="&#x33a;" horiz-adv-x="0" d="M-860 -227h125v-252h442v252h127v-377h-694v377z" />
<glyph unicode="&#x33b;" horiz-adv-x="0" d="M-860 -227h694v-439h-694v439zM-735 -428v-113h442v187h-440z" />
<glyph unicode="&#x33c;" horiz-adv-x="0" d="M-942 -479q68 272 244 272q104 0 186 -90q78 90 186 90q35 0 66 -11t53.5 -29.5t42 -43t32.5 -48t22.5 -49.5t14.5 -44l9 -33l4 -14l-111 -62q0 2 -5 26l-8 37q-3 13 -10 38.5t-16.5 41t-22.5 33t-30.5 25.5t-38.5 8q-43 0 -72.5 -25.5t-38.5 -54t-15.5 -60.5t-6.5 -34 q-18 -35 -55 -35q-16 0 -27.5 5.5t-17.5 12.5t-11 18t-6 18.5t-4 17.5v10q-4 51 -39.5 89t-82.5 38q-31 0 -53.5 -16.5t-38 -50t-21.5 -57t-16 -66.5q-2 -12 -5 -19z" />
<glyph unicode="&#x33d;" horiz-adv-x="0" d="M-829 1327l186 105l-186 104l53 115l264 -148l262 148l53 -115l-188 -104l188 -105l-53 -115l-264 148l-262 -148z" />
<glyph unicode="&#x346;" horiz-adv-x="0" d="M-860 1597h694v-376h-127v249h-442v-249h-125v376z" />
<glyph unicode="&#x347;" horiz-adv-x="0" d="M-662 -670v121h545v-121h-545zM-662 -260v121h545v-121h-545z" />
<glyph unicode="&#x348;" horiz-adv-x="0" d="M-756 -293h162l-18 -387h-125zM-436 -293h162l-19 -387h-125z" />
<glyph unicode="&#x349;" horiz-adv-x="0" d="M-571 -264v125h454v-455h-125v330h-329z" />
<glyph unicode="&#x34d;" horiz-adv-x="0" d="M-1126 -307q193 68 241 256h82q-25 -115 -119 -215h701q-90 96 -119 215h82q16 -63 46 -111.5t69 -77t65.5 -42t61.5 -25.5q-37 -14 -62.5 -27.5t-64.5 -42.5t-69 -76t-46 -110h-82q29 115 119 215h-701q94 -104 119 -215h-82q-16 63 -46 110t-68.5 76t-64 42.5 t-62.5 27.5z" />
<glyph unicode="&#x361;" horiz-adv-x="0" d="M-440 977q4 143 149.5 237.5t353.5 94.5q193 0 347.5 -88t160.5 -244h-159q-8 96 -111.5 148.5t-232.5 52.5q-121 0 -230.5 -49.5t-118.5 -151.5h-159z" />
<glyph unicode="&#x362;" horiz-adv-x="0" d="M-852 -307q0 41 64 41h1433q-92 96 -117 215h82q43 -186 240 -256q-199 -76 -240 -256h-82q25 115 117 215h-1417q-4 0 -12.5 -1t-10.5 -1q-57 0 -57 43z" />
<glyph unicode="&#x374;" horiz-adv-x="397" d="M27 1014l186 407h162l-223 -407h-125z" />
<glyph unicode="&#x375;" horiz-adv-x="397" d="M49 -410l221 410h127l-188 -410h-160z" />
<glyph unicode="&#x37a;" horiz-adv-x="227" d="M33 -137h160v-252q0 -98 -80 -98t-80 96v254z" />
<glyph unicode="&#x37e;" horiz-adv-x="569" d="M182 -166q66 74 68 170l2 2q-53 27 -53 80q0 33 23.5 58.5t58.5 25.5q94 0 94 -166q0 -150 -105 -260zM199 825q0 37 25.5 60.5t60 23.5t59.5 -25.5t25 -58.5q0 -35 -26 -60.5t-58 -25.5q-37 0 -61.5 25.5t-24.5 60.5z" />
<glyph unicode="&#x384;" horiz-adv-x="342" d="M-16 1014l186 407h162l-223 -407h-125z" />
<glyph unicode="&#x385;" horiz-adv-x="569" d="M25 1101.5q0 24.5 18 44t43 19.5q29 0 46.5 -19.5t17.5 -41.5q0 -27 -17.5 -46.5t-44.5 -19.5t-45 19.5t-18 44zM416 1101.5q0 24.5 18.5 44t45 19.5t45 -19.5t18.5 -41.5q0 -27 -17.5 -46.5t-46.5 -19.5q-27 0 -45 19.5t-18 44zM152 1014l186 407h162l-224 -407h-124z " />
<glyph unicode="&#x386;" horiz-adv-x="1366" d="M-16 1014l186 407h162l-223 -407h-125zM55 0l535 1421h182l533 -1421h-189l-158 418h-593l-156 -418h-154zM408 532h507q-244 682 -253 746q-14 -66 -71 -230l-117 -330q-60 -166 -66 -186z" />
<glyph unicode="&#x387;" horiz-adv-x="569" d="M197 825q0 37 25.5 60.5t60 23.5t59.5 -25.5t25 -58.5q0 -35 -26 -60.5t-58 -25.5q-37 0 -61.5 25.5t-24.5 60.5z" />
<glyph unicode="&#x388;" horiz-adv-x="1564" d="M-16 1014l186 407h162l-223 -407h-125zM535 0v1415h915v-135l-731 4v-485h676v-125h-676v-531l760 4v-147h-944z" />
<glyph unicode="&#x389;" horiz-adv-x="1792" d="M-16 1014l186 407h162l-223 -407h-125zM535 0v1421h184v-618h696v618h184v-1421h-184v676h-696v-676h-184z" />
<glyph unicode="&#x38a;" horiz-adv-x="911" d="M-16 1014l186 407h162l-223 -407h-125zM535 0v1421h184v-1421h-184z" />
<glyph unicode="&#x38c;" horiz-adv-x="1677" d="M-16 1014l186 407h162l-223 -407h-125zM283 707q0 317 189.5 538t451.5 221q258 0 447.5 -221t189.5 -538q0 -311 -185.5 -531.5t-453.5 -220.5q-256 0 -447.5 216.5t-191.5 535.5zM467 735q0 -266 128 -456.5t327 -190.5q195 0 325.5 187.5t130.5 459.5q0 268 -135 434 t-321 166q-193 0 -324 -170t-131 -430z" />
<glyph unicode="&#x38e;" horiz-adv-x="1935" d="M-16 1014l186 407h162l-223 -407h-125zM455 1137q2 143 96 236t229 93q92 0 162 -47t104.5 -113.5t55 -134t28.5 -114.5l9 -49q4 47 13 92t34.5 115.5t61.5 123t100.5 90t144.5 37.5q135 0 229.5 -93t96.5 -236h-160q-4 88 -51 140t-117 52q-59 0 -105.5 -26.5t-74 -76.5 t-45 -103.5t-25.5 -128t-10 -126t-2 -118.5v-750h-182v748q0 68 -2.5 119t-10.5 125.5t-25.5 128t-45 104.5t-73.5 77.5t-106 26.5q-74 0 -120 -54t-50 -138h-159z" />
<glyph unicode="&#x38f;" horiz-adv-x="1648" d="M-16 1014l186 407h162l-223 -407h-125zM260 0v145l356 -2q-27 94 -87 207t-112 196t-93 191.5t-41 208.5q0 213 180 366.5t444 153.5t445.5 -153.5t181.5 -366.5q0 -100 -41 -209.5t-93 -191.5t-112.5 -193.5t-87.5 -208.5l356 2v-145h-501q2 117 48 248t101.5 230.5 t100.5 227.5t45 238q0 174 -129 285.5t-312 111.5q-188 0 -316 -113.5t-128 -283.5q0 -111 46 -238.5t101.5 -227t101.5 -231.5t48 -247h-502z" />
<glyph unicode="&#x390;" horiz-adv-x="540" d="M-80 1102q0 29 19.5 46t46 17t44 -18.5t17.5 -44.5q0 -25 -17.5 -44.5t-45.5 -19.5q-25 0 -44.5 19.5t-19.5 44.5zM313 1102q0 29 19.5 46t44.5 17q27 0 44 -18.5t17 -42.5q0 -27 -17.5 -46.5t-44 -19.5t-45 19.5t-18.5 44.5zM47 1014l186 407h162l-223 -407h-125z M86 238v673h160v-671q0 -29 4 -51.5t11 -37t15.5 -23.5t17.5 -13t16 -6.5t12 -2.5h4q70 8 73 119h113q-2 -109 -63.5 -178.5t-149.5 -69.5q-84 0 -148.5 69t-64.5 192z" />
<glyph unicode="&#x391;" horiz-adv-x="1366" d="M55 0l535 1421h182l533 -1421h-189l-158 418h-593l-156 -418h-154zM408 532h507q-244 682 -253 746q-14 -66 -71 -230l-117 -330q-60 -166 -66 -186z" />
<glyph unicode="&#x392;" horiz-adv-x="1366" d="M197 0v1421h454q141 0 251 -34.5t170.5 -90t90 -115t29.5 -116.5q0 -102 -88 -190.5t-256 -131.5q166 -27 283.5 -124t117.5 -234q0 -150 -130 -256t-310 -125q-35 -4 -104 -4h-508zM369 115h290q197 0 309.5 80.5t112.5 191.5q0 98 -98 183t-264 104q-35 2 -105 2h-243 l-2 -76v-485zM369 803h245q193 0 304.5 80t111.5 180q0 90 -105.5 167t-320.5 77h-233l-2 -72v-432z" />
<glyph unicode="&#x393;" horiz-adv-x="1110" d="M193 0v1415h829v-135l-645 4v-1284h-184z" />
<glyph unicode="&#x394;" horiz-adv-x="1705" d="M84 0l674 1421h186l674 -1421h-1534zM324 172h1009q-188 383 -354 758l-127 284l-23 64q-8 -31 -24 -68l-127 -284l-162 -355l-139 -292z" />
<glyph unicode="&#x395;" horiz-adv-x="1222" d="M193 0v1415h915v-135l-731 4v-485h676v-125h-676v-531l760 4v-147h-944z" />
<glyph unicode="&#x396;" horiz-adv-x="1251" d="M113 0v51q0 29 3 39t23 39l762 1165l-760 -2v129h996v-49v-11q0 -5 -1 -10t-1 -7.5t-1 -6.5t-2.5 -6t-4.5 -7t-4 -7t-6 -9.5t-7 -11.5l-762 -1163l799 2v-135h-1034z" />
<glyph unicode="&#x397;" horiz-adv-x="1449" d="M193 0v1421h184v-618h696v618h184v-1421h-184v676h-696v-676h-184z" />
<glyph unicode="&#x398;" horiz-adv-x="1593" d="M113 707q0 311 198.5 535t485.5 224q274 0 477 -220t203 -539q0 -311 -199 -531.5t-483 -220.5q-276 0 -479 216.5t-203 535.5zM285 707q0 -270 149.5 -446.5t360.5 -176.5q205 0 357.5 172t152.5 451q0 270 -148.5 452t-361.5 182q-205 0 -357.5 -177.5t-152.5 -456.5z M399 627v172h791v-172h-791z" />
<glyph unicode="&#x399;" horiz-adv-x="569" d="M193 0v1421h184v-1421h-184z" />
<glyph unicode="&#x39a;" horiz-adv-x="1421" d="M195 0v1421h176v-759l743 759h191l-549 -561v-2l577 -858h-192l-498 743l-272 -276v-467h-176z" />
<glyph unicode="&#x39b;" horiz-adv-x="1251" d="M55 0l480 1421h178l479 -1421h-195l-260 788l-55 183l-33 108q-14 49 -20 74l-9 37q-3 12 -8.5 41t-9.5 47q-6 -84 -127 -463l-268 -815h-152z" />
<glyph unicode="&#x39c;" horiz-adv-x="1792" d="M205 0v1421h233l316 -821q133 -365 141 -412h2q6 41 71.5 223.5t67.5 186.5l316 823h235v-1421h-160v1212l-2 66q-6 -37 -20 -76l-123 -336l-315 -821h-148l-307 797q-135 379 -147 436v-1278h-160z" />
<glyph unicode="&#x39d;" horiz-adv-x="1449" d="M195 0v1421h256l561 -1114l80 -164v1278h159v-1421h-256l-561 1114l-80 164v-1278h-159z" />
<glyph unicode="&#x39e;" horiz-adv-x="1366" d="M84 0v154h1192v-154h-1192zM94 1257v154h1172v-154h-1172zM225 657v152h910v-152h-910z" />
<glyph unicode="&#x39f;" horiz-adv-x="1507" d="M113 707q0 317 189.5 538t451.5 221q258 0 447.5 -221t189.5 -538q0 -311 -185.5 -531.5t-453.5 -220.5q-256 0 -447.5 216.5t-191.5 535.5zM297 735q0 -266 128 -456.5t327 -190.5q195 0 325.5 187.5t130.5 459.5q0 268 -135 434t-321 166q-193 0 -324 -170t-131 -430z " />
<glyph unicode="&#x3a0;" horiz-adv-x="1449" d="M193 0v1415h1064v-1415h-184v1290h-696v-1290h-184z" />
<glyph unicode="&#x3a1;" horiz-adv-x="1308" d="M195 0v1421h483q193 0 315 -80q94 -57 146.5 -144t52.5 -187q0 -154 -129 -287t-377 -133q-10 0 -32.5 1t-35.5 1h-239v-592h-184zM373 711h272q205 0 293 92t88 207q0 49 -17.5 96t-57.5 95t-118.5 77t-187.5 29h-272v-596z" />
<glyph unicode="&#x3a3;" horiz-adv-x="1478" d="M113 0l475 684v2l-475 602v133h1251v-135l-1018 4l455 -581l-393 -566l956 2v-145h-1251z" />
<glyph unicode="&#x3a4;" horiz-adv-x="1392" d="M72 1276v135h1245v-135l-531 2v-1278h-182v1278z" />
<glyph unicode="&#x3a5;" horiz-adv-x="1593" d="M113 1137q2 143 96 236t229 93q92 0 162 -47t104.5 -113.5t55 -134t28.5 -114.5l9 -49q4 47 13 92t34.5 115.5t61.5 123t100.5 90t144.5 37.5q135 0 229.5 -93t96.5 -236h-160q-4 88 -51 140t-117 52q-59 0 -105.5 -26.5t-74 -76.5t-45 -103.5t-25.5 -128t-10 -126 t-2 -118.5v-750h-182v748q0 68 -2.5 119t-10.5 125.5t-25.5 128t-45 104.5t-73.5 77.5t-106 26.5q-74 0 -120 -54t-50 -138h-159z" />
<glyph unicode="&#x3a6;" horiz-adv-x="1478" d="M113 711q0 186 155.5 327.5t378.5 163.5v219h172v-217q121 -18 191 -45q166 -63 260 -186t94 -262q0 -66 -25.5 -136.5t-83 -146.5t-170 -133t-266.5 -78v-217h-172v219q-213 20 -373.5 158.5t-160.5 333.5zM291 711q0 -33 7 -69t29.5 -85t59.5 -89t104.5 -74t155.5 -48 v729q-168 -25 -262 -125t-94 -239zM819 344q94 16 165 52t107.5 76t59.5 89t29 83t6 67q0 43 -11.5 88t-45 104.5t-113.5 106.5t-197 67v-733z" />
<glyph unicode="&#x3a7;" horiz-adv-x="1366" d="M29 0l549 748v2l-521 671h215l396 -534l385 534h196l-493 -671v-2l579 -748h-215l-452 625l-443 -625h-196z" />
<glyph unicode="&#x3a8;" horiz-adv-x="1593" d="M113 1130v127h149q35 0 55.5 -4t46 -30.5t39.5 -75.5q23 -74 24 -285t58 -327q70 -141 220 -185v1071h172v-1073q287 86 286 490v55q0 88 6.5 153.5t20.5 103.5t26.5 61.5t38 32.5t40 11t44.5 2h138v-127q-49 -4 -79 -30.5t-42.5 -75.5t-16.5 -94t-6 -112.5t-6 -104.5 q-55 -436 -450 -494v-219h-172v219h-3q-41 6 -77.5 15.5t-102 43t-114 85t-91.5 147.5t-57 221q-2 29 -4 92.5t-6 106.5t-16.5 92t-43 76.5t-77.5 31.5z" />
<glyph unicode="&#x3a9;" horiz-adv-x="1478" d="M90 0v145l356 -2q-27 94 -87 207t-112 196t-93 191.5t-41 208.5q0 213 180 366.5t444 153.5t445.5 -153.5t181.5 -366.5q0 -100 -41 -209.5t-93 -191.5t-112.5 -193.5t-87.5 -208.5l356 2v-145h-501q2 117 48 248t101.5 230.5t100.5 227.5t45 238q0 174 -129 285.5 t-312 111.5q-188 0 -316 -113.5t-128 -283.5q0 -111 46 -238.5t101.5 -227t101.5 -231.5t48 -247h-502z" />
<glyph unicode="&#x3aa;" horiz-adv-x="569" d="M39 1597.5q0 34.5 24.5 60t61.5 25.5t60.5 -25.5t23.5 -60t-25.5 -59.5t-58.5 -25q-37 0 -61.5 25t-24.5 59.5zM358 1597q0 35 24 60.5t60.5 25.5t61 -26.5t24.5 -59.5q0 -35 -26.5 -59.5t-59.5 -24.5q-35 0 -59.5 25.5t-24.5 58.5zM193 0v1421h184v-1421h-184z" />
<glyph unicode="&#x3ab;" horiz-adv-x="1593" d="M532 1599q0 35 26 59.5t58 24.5q35 0 60.5 -24.5t25.5 -61.5q0 -35 -25.5 -59.5t-58.5 -24.5q-37 0 -61.5 24.5t-24.5 61.5zM887 1599.5q0 36.5 25.5 60t60.5 23.5q33 0 58.5 -24.5t25.5 -61.5q0 -35 -25.5 -59.5t-58.5 -24.5q-37 0 -61.5 25t-24.5 61.5zM113 1137 q2 143 96 236t229 93q92 0 162 -47t104.5 -113.5t55 -134t28.5 -114.5l9 -49q4 47 13 92t34.5 115.5t61.5 123t100.5 90t144.5 37.5q135 0 229.5 -93t96.5 -236h-160q-4 88 -51 140t-117 52q-59 0 -105.5 -26.5t-74 -76.5t-45 -103.5t-25.5 -128t-10 -126t-2 -118.5v-750 h-182v748q0 68 -2.5 119t-10.5 125.5t-25.5 128t-45 104.5t-73.5 77.5t-106 26.5q-74 0 -120 -54t-50 -138h-159z" />
<glyph unicode="&#x3ac;" horiz-adv-x="1296" d="M471 1014l186 407h162l-223 -407h-125zM84 455q0 188 107.5 332.5t277.5 144.5q225 0 354 -344l47 131l70 213h160q-29 -98 -98.5 -299t-108.5 -266q76 -233 149 -234q41 0 50 49h159q-4 -96 -66.5 -150.5t-142.5 -54.5q-160 0 -254 207q-139 -207 -323 -207 q-152 0 -266.5 135.5t-114.5 342.5zM244 457q0 -172 67.5 -249t151.5 -77q68 0 131 56.5t95 111.5t32 72l-16 67q-23 80 -37.5 121t-44 101.5t-69.5 89t-91 28.5q-84 0 -151.5 -78.5t-67.5 -242.5z" />
<glyph unicode="&#x3ad;" horiz-adv-x="880" d="M307 1014l187 407h161l-223 -407h-125zM84 229q0 145 164 226q-137 84 -137 213q0 117 97 190.5t230 73.5q176 0 328 -160l-115 -113q-113 113 -215 113q-63 0 -114.5 -35t-51.5 -94q0 -131 265 -131v-125q-293 0 -293 -129q0 -63 61.5 -92t130.5 -29q119 0 246 113 l113 -113q-164 -160 -357 -160q-147 0 -249.5 69.5t-102.5 182.5z" />
<glyph unicode="&#x3ae;" horiz-adv-x="1052" d="M477 1014l187 407h161l-223 -407h-125zM55 727q8 121 66.5 175t130.5 54q123 0 176 -168q86 168 240 168q117 0 207 -108.5t90 -321.5v-925h-162v899q0 4 1 14t1 16q0 139 -55.5 202t-120.5 63q-76 0 -122 -66.5t-52 -157.5v-571h-162v573q0 37 -1 68t-2 51.5t-4 36.5 t-4 25.5t-6 17.5l-5 10q-1 2 -6 7.5t-5 7.5l-10 2q-35 -2 -41 -72h-154z" />
<glyph unicode="&#x3af;" horiz-adv-x="540" d="M47 1014l186 407h162l-223 -407h-125zM84 238v673h160v-671q0 -29 4 -51.5t11 -37t15.5 -23.5t17.5 -13t16 -6.5t11 -2.5h5q70 8 73 119h113q-2 -109 -63.5 -178.5t-149.5 -69.5q-84 0 -148.5 69t-64.5 192z" />
</font>
</defs>
</svg>
